SplineFontDB: 3.0
FontName: LeagueScript-Thin
FullName: League Script
FamilyName: League Script
Weight: Thin
Copyright: Copyright (c) 2010, Haley Fiege (haley@kingdomofawesome.com).
Version: 001.002
ItalicAngle: -36.2
UnderlinePosition: -50
UnderlineWidth: 50
Ascent: 750
Descent: 250
sfntRevision: 0x00010000
LayerCount: 2
Layer: 0 1 "Back"  1
Layer: 1 1 "Fore"  0
XUID: [1021 496 529952750 15961215]
FSType: 0
OS2Version: 2
OS2_WeightWidthSlopeOnly: 0
OS2_UseTypoMetrics: 1
CreationTime: 1286985632
ModificationTime: 1291992389
PfmFamily: 81
TTFWeight: 100
TTFWidth: 5
LineGap: 0
VLineGap: 0
Panose: 0 0 0 0 0 0 0 0 0 0
OS2TypoAscent: 0
OS2TypoAOffset: 1
OS2TypoDescent: 0
OS2TypoDOffset: 1
OS2TypoLinegap: 0
OS2WinAscent: 0
OS2WinAOffset: 1
OS2WinDescent: 0
OS2WinDOffset: 1
HheadAscent: -565
HheadAOffset: 1
HheadDescent: 348
HheadDOffset: 1
OS2SubXSize: 700
OS2SubYSize: 650
OS2SubXOff: 0
OS2SubYOff: 140
OS2SupXSize: 700
OS2SupYSize: 650
OS2SupXOff: 0
OS2SupYOff: 477
OS2StrikeYSize: 50
OS2StrikeYPos: 250
OS2Vendor: 'pyrs'
OS2CodePages: 00000001.00000000
OS2UnicodeRanges: 80000027.40000002.00000000.00000000
Lookup: 4 0 0 "'dlig' Discretionary Ligatures in Latin lookup 0"  {"'dlig' Discretionary Ligatures in Latin lookup 0 subtable"  } ['dlig' ('latn' <'dflt' > ) ]
Lookup: 258 0 0 "'kern' Horizontal Kerning in Latin lookup 0"  {"'kern' Horizontal Kerning in Latin lookup 0 subtable"  } ['kern' ('latn' <'dflt' > ) ]
MarkAttachClasses: 1
DEI: 91125
TtTable: prep
PUSHW_1
 511
SCANCTRL
PUSHB_1
 4
SCANTYPE
EndTTInstrs
LangName: 1033 "" "" "" "" "" "" "" "" "" "" "" "" "" "" "http://scripts.sil.org/OFL" 
Encoding: UnicodeBmp
UnicodeInterp: none
NameList: Adobe Glyph List
DisplaySize: -48
AntiAlias: 1
FitToEm: 1
WinInfo: 65250 29 11
BeginPrivate: 4
BlueValues 23 [0 0 574 574 1106 1106]
OtherBlues 11 [-598 -576]
BlueScale 8 0.039625
ExpansionFactor 4 0.06
EndPrivate
BeginChars: 65555 205

StartChar: a
Encoding: 97 97 1
Width: 887
Flags: MW
HStem: -20 20G<91.5 185> -18 21G<87 155> 501 20G<461.5 503.5>
LayerCount: 2
Fore
SplineSet
900 225 m 128,-1,1
 905 218 905 218 900 212 c 1,2,3
 658 -5 658 -5 502 -5 c 0,4,5
 463 -5 463 -5 430.5 9 c 128,-1,6
 398 23 398 23 395 56 c 128,-1,7
 392 89 392 89 431 135 c 1,8,9
 360 77 360 77 306 44 c 0,10,11
 207 -18 207 -18 136 -18 c 128,-1,12
 65 -18 65 -18 21 17.5 c 128,-1,13
 -23 53 -23 53 -32 114 c 1,14,15
 -44 221 -44 221 109 351 c 0,16,17
 209 436 209 436 306 478.5 c 128,-1,18
 403 521 403 521 490 521 c 0,19,20
 545 521 545 521 587.5 504 c 0,21,22
 600 499 600 499 621.5 479.5 c 128,-1,23
 643 460 643 460 649 434 c 0,24,25
 665 361 665 361 563 252 c 1,26,27
 569 256 569 256 590 271.5 c 128,-1,28
 611 287 611 287 655.5 316 c 0,29,30
 746.034 375 746.034 375 751 375 c 1,31,32
 759 381 759 381 763 372 c 1,33,34
 769 364 769 364 760 360 c 1,35,36
 706.293 327.493 706.293 327.493 683.647 312.747 c 2,37,-1
 633.5 280 l 2,38,39
 528.798 211.467 528.798 211.467 462 143 c 1,40,41
 410 88 410 88 413 57 c 1,42,43
 414 34 414 34 442.5 23.5 c 128,-1,44
 471 13 471 13 501 13 c 0,45,46
 583 13 583 13 686 74 c 128,-1,47
 789 135 789 135 887 226 c 1,48,0
 895 232 895 232 900 225 c 128,-1,1
32 31.5 m 128,-1,50
 72 0 72 0 120.5 0 c 128,-1,51
 169 0 169 0 212.5 15.5 c 128,-1,52
 256 31 256 31 305.5 65 c 0,53,54
 390.254 123.215 390.254 123.215 468 189 c 1,55,56
 652 341 652 341 632 430 c 0,57,58
 627 451 627 451 609 467 c 128,-1,59
 591 483 591 483 577.5 488.5 c 128,-1,60
 564 494 564 494 561 494 c 0,61,62
 528 503 528 503 490 503 c 0,63,64
 406 503 406 503 309.5 459.5 c 128,-1,65
 213 416 213 416 121 337 c 1,66,67
 43 272 43 272 12 216 c 128,-1,68
 -19 160 -19 160 -13.5 111.5 c 128,-1,49
 -8 63 -8 63 32 31.5 c 128,-1,50
EndSplineSet
EndChar

StartChar: b
Encoding: 98 98 2
Width: 682
Flags: W
LayerCount: 2
Fore
SplineSet
413 106 m 0,0,1
 331 16 331 16 233 -8.5 c 128,-1,2
 135 -33 135 -33 73 6 c 128,-1,3
 11 45 11 45 -1 117 c 1,4,5
 -32.7219 261.511 -32.7219 261.511 217 593 c 1,6,7
 306 709 306 709 399 812 c 128,-1,8
 492 915 492 915 541 959 c 0,9,10
 635.312 1043.69 635.312 1043.69 671 1008 c 1,11,12
 713.162 970.054 713.162 970.054 648.5 876 c 0,13,14
 643 868 643 868 643 867 c 0,15,16
 522 692 522 692 310 467 c 1,17,-1
 120 275 l 2,18,19
 76 231 76 231 17 197 c 1,20,21
 8 157 8 157 15 124 c 1,22,23
 15 105.806 15 105.806 35 72.9032 c 128,-1,24
 55 40 55 40 78 24 c 0,25,26
 133 -13 133 -13 227 8 c 1,27,28
 321 31 321 31 400 118 c 0,29,30
 457 181 457 181 480 261 c 1,31,32
 458 275 458 275 435.5 304.5 c 128,-1,33
 413 334 413 334 407 369 c 0,34,35
 398.142 417.721 398.142 417.721 431.151 437.057 c 128,-1,36
 464.161 456.393 464.161 456.393 487.029 435.491 c 128,-1,37
 509.897 414.588 509.897 414.588 511.949 367.294 c 128,-1,38
 514 320 514 320 501 269 c 1,39,40
 563 240 563 240 622.5 253 c 128,-1,41
 682 266 682 266 732 310 c 0,42,43
 739 315 739 315 745 309 c 1,44,45
 750 302 750 302 744 296 c 0,46,47
 687 247 687 247 630 235 c 0,48,49
 554 218 554 218 496 251 c 1,50,51
 472 171 472 171 413 106 c 0,0,1
645 1002 m 0,52,53
 615 1002 615 1002 545 938 c 1,54,55
 506 904 506 904 411.5 799 c 128,-1,56
 317 694 317 694 232 582 c 0,57,58
 61 358 61 358 23 222 c 1,59,60
 74 254 74 254 108 288 c 0,61,62
 244.329 422.894 244.329 422.894 297 479 c 0,63,64
 508 703 508 703 628 877 c 1,65,66
 669.72 935.408 669.72 935.408 668.5 972 c 0,67,68
 668 987 668 987 660.5 994.5 c 128,-1,69
 653 1002 653 1002 645 1002 c 0,52,53
483.5 412 m 0,70,71
 475 428 475 428 456.5 428 c 128,-1,72
 438 428 438 428 430 410.5 c 0,73,74
 410.314 367.436 410.314 367.436 455 309 c 0,75,76
 469 291 469 291 485 280 c 1,77,78
 505.096 371.348 505.096 371.348 483.5 412 c 0,70,71
EndSplineSet
EndChar

StartChar: c
Encoding: 99 99 3
Width: 706
Flags: MW
HStem: -5 21G<153 171.5> -4 21G<195.5 200>
LayerCount: 2
Fore
SplineSet
191 -4 m 1,0,-1
 162 -5 l 1,1,2
 126 -5 126 -5 95 0 c 0,3,4
 -13 20 -13 20 -25 95 c 0,5,6
 -32 141 -32 141 -4.5 202.5 c 128,-1,7
 23 264 23 264 79 326 c 128,-1,8
 135 388 135 388 202 432 c 128,-1,9
 269 476 269 476 332 490.5 c 0,10,11
 447.168 517.007 447.168 517.007 486 470 c 1,12,13
 512.712 425.481 512.712 425.481 488 381 c 0,14,15
 484 374 484 374 475 377 c 1,16,17
 468 381 468 381 472 389 c 0,18,19
 494 429 494 429 471 459 c 1,20,21
 442 499 442 499 336 473 c 0,22,23
 276 459 276 459 211 416.5 c 128,-1,24
 146 374 146 374 93 315 c 128,-1,25
 40 256 40 256 13 197.5 c 128,-1,26
 -14 139 -14 139 -8 101.5 c 128,-1,27
 -2 64 -2 64 29 43 c 128,-1,28
 60 22 60 22 94.5 18.5 c 0,29,30
 186.794 9.13683 186.794 9.13683 195.047 13.9333 c 1,31,-1
 196 14 l 1,32,33
 250 14 250 14 356 41 c 0,34,35
 540 88 540 88 697 220 c 0,36,37
 705 226 705 226 710.5 218.5 c 128,-1,38
 716 211 716 211 709 206 c 0,39,40
 621 134 621 134 529 88 c 128,-1,41
 437 42 437 42 345.5 19 c 128,-1,42
 254 -4 254 -4 197 -4 c 2,43,-1
 191 -4 l 1,0,-1
EndSplineSet
EndChar

StartChar: d
Encoding: 100 100 4
Width: 884
Flags: MW
HStem: -16 21G<95.5 164.5>
LayerCount: 2
Fore
SplineSet
1107 862 m 0,0,1
 1120 805 1120 805 1007 686 c 0,2,3
 934 609 934 609 757 454 c 1,4,-1
 645 354 l 1,5,6
 547 211 547 211 486 99 c 0,7,8
 462 54 462 54 480.5 30 c 128,-1,9
 499 6 499 6 589 29.5 c 128,-1,10
 679 53 679 53 789 139 c 0,11,12
 845 182 845 182 883 220 c 0,13,14
 890 227 890 227 896 220.5 c 128,-1,15
 902 214 902 214 896 208 c 0,16,17
 853 165 853 165 801 125 c 0,18,19
 684 37 684 37 589 12 c 1,20,21
 552 1 552 1 517 1 c 0,22,23
 468.125 1 468.125 1 457.5 35 c 0,24,25
 455 43 455 43 455 51 c 128,-1,26
 455 59 455 59 456.5 67 c 128,-1,27
 458 75 458 75 460 82 c 0,28,29
 470.922 120.228 470.922 120.228 555 250 c 1,30,31
 431.402 116.381 431.402 116.381 313 42 c 1,32,33
 218 -16 218 -16 145 -16 c 128,-1,34
 72 -16 72 -16 25 19.5 c 128,-1,35
 -22 55 -22 55 -29 116 c 0,36,37
 -40 224 -40 224 112 353 c 0,38,39
 312 524 312 524 489 524 c 0,40,41
 622 524 622 524 644 450 c 0,42,43
 653 418 653 418 638 376 c 1,44,45
 787.129 594.29 787.129 594.29 939.5 778 c 0,46,47
 1010 863 1010 863 1034.5 881.5 c 128,-1,48
 1059 900 1059 900 1082 891 c 0,49,50
 1098.24 884.912 1098.24 884.912 1105 868 c 0,51,52
 1107 863 1107 863 1107 862 c 0,0,1
471 190 m 1,53,54
 651 360 651 360 627 445 c 0,55,56
 609 506 609 506 489 506 c 0,57,58
 320 506 320 506 124 339 c 1,59,60
 -21 218 -21 218 -11 118 c 0,61,62
 -6 65 -6 65 35.5 33 c 128,-1,63
 77 1 77 1 137 1 c 0,64,65
 268 1 268 1 471 190 c 1,53,54
994 698 m 0,66,67
 1099 809 1099 809 1090 858 c 0,68,69
 1087 873 1087 873 1074 875.5 c 128,-1,70
 1061 878 1061 878 1040 863 c 1,71,72
 1022 848 1022 848 953 765.5 c 128,-1,73
 884 683 884 683 802 574 c 1,74,-1
 689 418 l 1,75,-1
 745 467 l 1,76,77
 932 632 932 632 994 698 c 0,66,67
EndSplineSet
EndChar

StartChar: e
Encoding: 101 101 5
Width: 702
Flags: W
LayerCount: 2
Fore
SplineSet
41 13 m 0,0,1
 -15 44 -15 44 -21 111 c 128,-1,2
 -27 178 -27 178 0 241.5 c 128,-1,3
 27 305 27 305 67 346 c 1,4,5
 37 362 37 362 37 364 c 1,6,7
 30 368 30 368 34 376 c 1,8,9
 40 384 40 384 49.5 377 c 128,-1,10
 59 370 59 370 80 360 c 1,11,12
 88 369 88 369 104.5 384.5 c 2,13,14
 127 406 l 1,15,16
 260 535 260 535 406 554 c 0,17,18
 494 565 494 565 551 513 c 128,-1,19
 608 461 608 461 564 386 c 0,20,21
 531 330 531 330 461 301.5 c 128,-1,22
 391 273 391 273 321 276 c 0,23,24
 216 281 216 281 116 323 c 1,25,-1
 84 337 l 1,26,27
 59 314 59 314 37 272.5 c 128,-1,28
 15 231 15 231 2 184.5 c 128,-1,29
 -11 138 -11 138 0 94 c 0,30,31
 19.8793 14.4829 19.8793 14.4829 130.5 6.5 c 0,32,33
 206.703 1.00081 206.703 1.00081 314.5 29 c 0,34,35
 418.012 55.8862 418.012 55.8862 543.5 130 c 0,36,37
 618 174 618 174 706 250 c 0,38,39
 713 255 713 255 719 249 c 1,40,41
 723 243 723 243 718 236 c 1,42,43
 627 159 627 159 552 115 c 128,-1,44
 477 71 477 71 384 33 c 1,45,46
 262.673 -11.3309 262.673 -11.3309 150.5 -10.5 c 0,47,48
 83 -10 83 -10 41 13 c 0,0,1
96 351 m 1,49,-1
 123 339 l 1,50,51
 221 299 221 299 321 294 c 0,52,53
 389 291 389 291 455 320.5 c 128,-1,54
 521 350 521 350 549 396 c 1,55,56
 572 440 572 440 557 474 c 128,-1,57
 542 508 542 508 499.5 526 c 128,-1,58
 457 544 457 544 400 536 c 128,-1,59
 343 528 343 528 279.5 496.5 c 128,-1,60
 216 465 216 465 138 393 c 1,61,-1
 96 351 l 1,49,-1
EndSplineSet
EndChar

StartChar: f
Encoding: 102 102 6
Width: 510
Flags: MW
HStem: -575 21G<-446 -415.5>
LayerCount: 2
Fore
SplineSet
-435 -575 m 0,0,1
 -518.032 -575 -518.032 -575 -452 -422 c 0,2,3
 -427 -364 -427 -364 -409 -337 c 1,4,5
 -337 -197 -337 -197 -5 219 c 1,6,-1
 141 400 l 1,7,8
 459 789 459 789 628 980 c 1,9,10
 665 1019 665 1019 702 1011 c 1,11,12
 731 1006 731 1006 742.5 981.5 c 128,-1,13
 754 957 754 957 751 926.5 c 0,14,15
 745.796 873.592 745.796 873.592 736 854 c 1,16,17
 694 732 694 732 568 599 c 128,-1,18
 442 466 442 466 221 322 c 0,19,20
 153 277 153 277 10 209 c 1,21,-1
 -74 103 l 1,22,23
 -42 71 -42 71 -3 56 c 0,24,25
 139 1 139 1 364 106 c 0,26,27
 457 150 457 150 536 217 c 0,28,29
 544 223 544 223 549 216 c 128,-1,30
 554 209 554 209 548 203 c 0,31,32
 466 134 466 134 371 89 c 1,33,34
 134 -17 134 -17 -11 40 c 0,35,36
 -47 54 -47 54 -71 76 c 1,37,38
 -57 -79 -57 -79 -123 -237.5 c 128,-1,39
 -189 -396 -189 -396 -295 -499 c 1,40,41
 -376 -575 -376 -575 -435 -575 c 0,0,1
-90 82 m 1,42,43
 -332 -227 -332 -227 -393 -345 c 1,44,45
 -416 -385 -416 -385 -436 -429 c 0,46,47
 -485.847 -544.86 -485.847 -544.86 -445 -556 c 1,48,49
 -393 -568 -393 -568 -308 -486 c 0,50,51
 -205 -388 -205 -388 -139.5 -229 c 128,-1,52
 -74 -70 -74 -70 -90 82 c 1,42,43
642 968 m 0,53,54
 627 952 627 952 561.5 875.5 c 2,55,-1
 380.5 661.5 l 1,56,-1
 155 389 l 1,57,-1
 36 241 l 1,58,59
 160 303 160 303 211 337 c 0,60,61
 633 613 633 613 719 860 c 1,62,63
 721 862 721 862 726 880.5 c 0,64,65
 741.452 937.673 741.452 937.673 727 973 c 0,66,67
 719 991 719 991 694.5 994.5 c 128,-1,68
 670 998 670 998 642 968 c 0,53,54
EndSplineSet
EndChar

StartChar: g
Encoding: 103 103 7
Width: 763
Flags: MW
HStem: -618 20G<-232.5 -191.5> 499 20G<437.5 524>
LayerCount: 2
Fore
SplineSet
711.5 181 m 128,-1,1
 753 211 753 211 759.5 216.5 c 128,-1,2
 766 222 766 222 771.5 215 c 128,-1,3
 777 208 777 208 769 202 c 0,4,5
 728 169 728 169 668 130 c 0,6,7
 547 52 547 52 445 14 c 0,8,9
 400 -2 400 -2 321 -42 c 1,10,11
 230 -172 230 -172 109 -320 c 0,12,13
 -32.607 -493.205 -32.607 -493.205 -115 -555 c 0,14,15
 -131 -567 -131 -567 -163 -582.5 c 128,-1,16
 -195 -598 -195 -598 -220 -598 c 0,17,18
 -262 -598 -262 -598 -281 -564 c 1,19,20
 -302 -523 -302 -523 -256 -459 c 128,-1,21
 -210 -395 -210 -395 -128 -325 c 0,22,23
 64 -158 64 -158 309 -29 c 1,24,-1
 345 23 l 2,25,26
 374 66 374 66 413 110 c 1,27,28
 350 62 350 62 316 41 c 0,29,30
 215 -21 215 -21 145.5 -21 c 128,-1,31
 76 -21 76 -21 30 15.5 c 128,-1,32
 -16 52 -16 52 -22 111 c 0,33,34
 -34 218 -34 218 118 348 c 1,35,36
 320 519 320 519 495 519 c 0,37,38
 530 519 530 519 560.5 513 c 128,-1,39
 591 507 591 507 621 486 c 128,-1,40
 651 465 651 465 659 431 c 0,41,42
 674 363 674 363 589 267 c 1,43,44
 685 331 685 331 739 358 c 1,45,46
 748 361 748 361 751 353.5 c 128,-1,47
 754 346 754 346 750 343.5 c 128,-1,48
 746 341 746 341 729.5 332.5 c 0,49,50
 667.355 300.486 667.355 300.486 610 260 c 0,51,52
 457 154 457 154 360 13 c 0,53,54
 348 -3 348 -3 343 -11 c 1,55,56
 407 19 407 19 457.5 37.5 c 128,-1,57
 508 56 508 56 589 103.5 c 128,-1,0
 670 151 670 151 711.5 181 c 128,-1,1
41 29 m 128,-1,59
 80 -2 80 -2 129 -2.5 c 128,-1,60
 178 -3 178 -3 221.5 12.5 c 128,-1,61
 265 28 265 28 315.5 62 c 128,-1,62
 366 96 366 96 395 118.5 c 2,63,-1
 478 186 l 1,64,65
 661 339 661 339 641 427 c 0,66,67
 632 467 632 467 589.5 484 c 128,-1,68
 547 501 547 501 495 501 c 0,69,70
 327 501 327 501 130 335 c 0,71,72
 51 268 51 268 20.5 211.5 c 128,-1,73
 -10 155 -10 155 -4 107.5 c 128,-1,58
 2 60 2 60 41 29 c 128,-1,59
56.7019 -355.247 m 128,-1,75
 178 -212 178 -212 285 -61 c 1,76,77
 61 -184 61 -184 -117 -339 c 0,78,79
 -200 -411 -200 -411 -240.5 -468.5 c 128,-1,80
 -281 -526 -281 -526 -266.5 -552.5 c 128,-1,81
 -252 -579 -252 -579 -226 -581 c 0,82,83
 -189.061 -583.841 -189.061 -583.841 -126.828 -541.168 c 128,-1,74
 -64.5962 -498.495 -64.5962 -498.495 56.7019 -355.247 c 128,-1,75
EndSplineSet
EndChar

StartChar: h
Encoding: 104 104 8
Width: 775
Flags: MW
HStem: -4 21G<-102 -102>
LayerCount: 2
Fore
SplineSet
-102 -4 m 2,0,-1
 -118 4 l 1,1,2
 -61 153 -61 153 59 341 c 1,3,-1
 124 438 l 1,4,5
 326.596 721.634 326.596 721.634 513 917 c 1,6,7
 607 1017 607 1017 641 1033.5 c 128,-1,8
 675 1050 675 1050 700.5 1041.5 c 0,9,10
 745 1026.67 745 1026.67 745 978 c 0,11,12
 745 945.333 745 945.333 722 907 c 1,13,14
 639 796 639 796 426 632 c 1,15,16
 303 539 303 539 142 432 c 1,17,18
 10 240 10 240 -64 86 c 1,19,20
 0 175 0 175 54 242.5 c 128,-1,21
 108 310 108 310 187 387.5 c 0,22,23
 306.716 504.943 306.716 504.943 417 527 c 0,24,25
 462 535 462 535 497.5 531 c 128,-1,26
 533 527 533 527 566 500 c 128,-1,27
 599 473 599 473 601 432 c 128,-1,28
 603 391 603 391 577 341 c 128,-1,29
 551 291 551 291 532 269 c 128,-1,30
 513 247 513 247 487.5 221.5 c 128,-1,31
 462 196 462 196 429 153 c 1,32,33
 363 71 363 71 374 39 c 1,34,35
 380 28 380 28 398 25 c 1,36,37
 463 18 463 18 551 68 c 128,-1,38
 639 118 639 118 778 235 c 0,39,40
 786 241 786 241 791.5 233.5 c 128,-1,41
 797 226 797 226 790 221 c 0,42,43
 656 108 656 108 563 54 c 128,-1,44
 470 0 470 0 396 7 c 0,45,46
 364 10 364 10 356 34 c 0,47,48
 338.126 85.0679 338.126 85.0679 466.5 222 c 0,49,50
 504 262 504 262 526 289 c 128,-1,51
 548 316 548 316 566.5 355.5 c 0,52,53
 607.294 442.601 607.294 442.601 554 488 c 1,54,55
 516 519 516 519 466 514.5 c 128,-1,56
 416 510 416 510 381.5 498.5 c 128,-1,57
 347 487 347 487 343 483 c 1,58,59
 217 420 217 420 45 202 c 0,60,61
 7 154 7 154 -29.5 102.5 c 2,62,-1
 -84 24 l 2,63,64
 -102 -3 -102 -3 -102 -4 c 2,0,-1
682 1027 m 0,65,66
 668 1027 668 1027 644.5 1016 c 128,-1,67
 621 1005 621 1005 521.5 900.5 c 128,-1,68
 422 796 422 796 309 654 c 1,69,70
 247 579 247 579 171 472 c 1,71,72
 583 750 583 750 707 918 c 1,73,74
 716.967 927.967 716.967 927.967 724.483 955.983 c 128,-1,75
 732 984 732 984 722 1002 c 1,76,77
 712 1028 712 1028 682 1027 c 0,65,66
EndSplineSet
EndChar

StartChar: i
Encoding: 105 105 9
Width: 429
Flags: MW
HStem: 4 21G<10.5 96.5> 610 97<301.5 328>
VStem: 266 97<645.5 672>
LayerCount: 2
Fore
SplineSet
29 4 m 0,0,1
 -52 4 -52 4 -62 50 c 1,2,3
 -76.5262 103.954 -76.5262 103.954 -29.5 186 c 0,4,5
 12.6098 259.468 12.6098 259.468 38.8049 295.234 c 128,-1,6
 65 331 65 331 82.5 356.5 c 128,-1,7
 100 382 100 382 137.5 431 c 0,8,9
 201.087 514.087 201.087 514.087 218 531 c 1,10,11
 223 538 223 538 230.5 532.5 c 128,-1,12
 238 527 238 527 234 522 c 2,13,-1
 209.5 492.5 l 2,14,15
 189 468 189 468 151.5 419.5 c 1,16,-1
 82 326 l 1,17,18
 0.324539 209.092 0.324539 209.092 -27.1353 151.003 c 128,-1,19
 -54.5952 92.9137 -54.5952 92.9137 -45 54 c 1,20,21
 -36 22 -36 22 37 22 c 128,-1,22
 110 22 110 22 217 81 c 128,-1,23
 324 140 324 140 421 224 c 0,24,25
 429 230 429 230 434 223 c 128,-1,26
 439 216 439 216 433 210 c 0,27,28
 190 4 190 4 29 4 c 0,0,1
348.5 692.5 m 128,-1,30
 363 678 363 678 363 658.5 c 128,-1,31
 363 639 363 639 349 624.5 c 128,-1,32
 335 610 335 610 315 610 c 128,-1,33
 295 610 295 610 280.5 624.5 c 128,-1,34
 266 639 266 639 266 659 c 128,-1,35
 266 679 266 679 280.5 693 c 128,-1,36
 295 707 295 707 314.5 707 c 128,-1,29
 334 707 334 707 348.5 692.5 c 128,-1,30
EndSplineSet
EndChar

StartChar: j
Encoding: 106 106 10
Width: 318
Flags: MW
HStem: 612 97<233.5 260>
VStem: 198 97<647 673.5>
LayerCount: 2
Fore
SplineSet
-473 -519 m 1,0,1
 -551 -597 -551 -597 -603.5 -597 c 128,-1,2
 -656 -597 -656 -597 -666 -550 c 128,-1,3
 -676 -503 -676 -503 -642 -457 c 0,4,5
 -586 -379 -586 -379 -484 -304.5 c 128,-1,6
 -382 -230 -382 -230 -219 -132 c 1,7,8
 -179 -71 -179 -71 -97 64.5 c 1,9,10
 47.5 308 l 1,11,-1
 141 470.5 l 2,12,13
 172 525 172 525 174 530 c 1,14,15
 180 538 180 538 186 533 c 1,16,17
 194 530 194 530 191 523 c 128,-1,18
 188 516 188 516 157 461.5 c 2,19,-1
 63 299 l 1,20,-1
 -61 89 l 1,21,-1
 -184 -111 l 1,22,23
 -166 -101 -166 -101 -102 -63 c 2,24,25
 23 12.5 l 2,26,27
 84 50 84 50 170 110.5 c 128,-1,28
 256 171 256 171 313 225 c 0,29,30
 320 232 320 232 326 225.5 c 128,-1,31
 332 219 332 219 326 212 c 1,32,33
 268 158 268 158 182 97 c 128,-1,34
 96 36 96 36 33 -2.5 c 2,35,-1
 -205 -145 l 1,36,37
 -375 -412 -375 -412 -473 -519 c 1,0,1
-240 -166 m 1,38,39
 -384 -253 -384 -253 -479.5 -324 c 128,-1,40
 -575 -395 -575 -395 -628 -468 c 0,41,42
 -658 -509 -658 -509 -648 -544 c 1,43,44
 -644 -564 -644 -564 -630.5 -572.5 c 128,-1,45
 -617 -581 -617 -581 -599.5 -578.5 c 128,-1,46
 -582 -576 -582 -576 -566 -569 c 128,-1,47
 -550 -562 -550 -562 -537 -552 c 0,48,49
 -515.333 -535.333 -515.333 -535.333 -487 -507 c 1,50,51
 -398 -410 -398 -410 -240 -166 c 1,38,39
295 660 m 128,-1,53
 295 640 295 640 280.5 626 c 128,-1,54
 266 612 266 612 246.5 612 c 128,-1,55
 227 612 227 612 212.5 626 c 128,-1,56
 198 640 198 640 198 660 c 128,-1,57
 198 680 198 680 212.5 694.5 c 128,-1,58
 227 709 227 709 247 709 c 128,-1,59
 267 709 267 709 281 694.5 c 128,-1,52
 295 680 295 680 295 660 c 128,-1,53
EndSplineSet
EndChar

StartChar: k
Encoding: 107 107 11
Width: 671
Flags: MW
HStem: 1020 20G<649 650 650 650>
LayerCount: 2
Fore
SplineSet
-78 -11 m 1,0,-1
 -95 -5 l 1,1,2
 -22.6466 191.962 -22.6466 191.962 255 596 c 1,3,-1
 403.5 805.5 l 1,4,-1
 512 951 l 1,5,6
 536.752 986.36 536.752 986.36 577.876 1013.18 c 128,-1,7
 619 1040 619 1040 649 1040 c 2,8,-1
 650 1040 l 1,9,10
 688 1038 688 1038 713 1003.5 c 0,11,12
 779.969 911.083 779.969 911.083 427 597 c 1,13,-1
 290 486 l 1,14,15
 476.265 556.367 476.265 556.367 556 511 c 0,16,17
 599 487 599 487 605 439.5 c 128,-1,18
 611 392 611 392 581 354.5 c 128,-1,19
 551 317 551 317 496.5 292 c 128,-1,20
 442 267 442 267 380.5 262 c 0,21,22
 290.743 254.703 290.743 254.703 180 299 c 1,23,24
 137.516 150.304 137.516 150.304 180 71 c 0,25,26
 225 -15 225 -15 368 14 c 1,27,28
 474.922 34.562 474.922 34.562 667 209 c 0,29,30
 674 216 674 216 679.5 209 c 128,-1,31
 685 202 685 202 679 196 c 0,32,33
 488 20 488 20 371 -3 c 0,34,35
 280 -21 280 -21 226 2 c 0,36,37
 188 19 188 19 164 63 c 1,38,39
 117.482 154.583 117.482 154.583 162.5 302.5 c 2,40,-1
 166 314 l 1,41,-1
 169 323 l 1,42,-1
 183 317.5 l 2,43,44
 187 316 187 316 193.5 313 c 128,-1,45
 200 310 200 310 210 306.5 c 128,-1,46
 220 303 220 303 232 299.5 c 128,-1,47
 244 296 244 296 257.5 292.5 c 128,-1,48
 271 289 271 289 286.5 286.5 c 128,-1,49
 302 284 302 284 318 282 c 0,50,51
 354.606 277.424 354.606 277.424 385 281 c 1,52,53
 440 285 440 285 490 308.5 c 128,-1,54
 540 332 540 332 565.5 364 c 128,-1,55
 591 396 591 396 586 436.5 c 0,56,57
 577.448 505.773 577.448 505.773 488 509.5 c 0,58,59
 406.087 512.913 406.087 512.913 303.5 472.5 c 0,60,61
 287 466 287 466 283 464 c 0,62,63
 149 409 149 409 30 208 c 1,64,65
 -39 89 -39 89 -78 -11 c 1,0,-1
649 1022 m 1,66,67
 592 1022 592 1022 526 940 c 1,68,69
 376 740 376 740 270 585 c 1,70,-1
 148 403 l 1,71,72
 296 508 296 508 414.5 611.5 c 0,73,74
 631.405 800.949 631.405 800.949 687 910 c 0,75,76
 717 967 717 967 698 993.5 c 128,-1,77
 679 1020 679 1020 649 1022 c 1,66,67
EndSplineSet
EndChar

StartChar: l
Encoding: 108 108 12
Width: 533
Flags: MW
HStem: -9 21G<37 67.5>
LayerCount: 2
Fore
SplineSet
131 1 m 0,0,1
 97 -9 97 -9 48.5 -9 c 128,-1,2
 0 -9 0 -9 -28 24 c 0,3,4
 -65 66 -65 66 -40 141 c 1,5,6
 15 298 15 298 208 592 c 1,7,8
 359.622 811.622 359.622 811.622 377 829 c 1,9,10
 377 832.98 377 832.98 415.5 872.99 c 0,11,12
 509.179 970.343 509.179 970.343 570 995 c 1,13,14
 624 1019 624 1019 655.5 998.5 c 0,15,16
 744.394 940.648 744.394 940.648 603 743 c 1,17,18
 521 631 521 631 405.5 528.5 c 128,-1,19
 290 426 290 426 27 248 c 1,20,21
 -16.4925 159.612 -16.4925 159.612 -23.7463 131.806 c 0,22,23
 -40.7608 66.5837 -40.7608 66.5837 -14 36 c 0,24,25
 29 -11 29 -11 127 19 c 0,26,27
 248 55 248 55 338 103 c 128,-1,28
 428 151 428 151 530 230 c 0,29,30
 537 235 537 235 543 229 c 1,31,32
 549 221 549 221 542 216 c 0,33,34
 434 134 434 134 343 85 c 128,-1,35
 252 36 252 36 131 1 c 0,0,1
411.5 841.5 m 2,36,-1
 394.357 821.968 l 2,37,38
 386.714 812.935 386.714 812.935 365.857 784.968 c 2,39,-1
 304 699 l 1,40,-1
 223 582 l 1,41,42
 113 414 113 414 44 281 c 1,43,44
 292 453 292 453 400.5 549 c 128,-1,45
 509 645 509 645 593 760.5 c 128,-1,46
 677 876 677 876 672 940 c 1,47,48
 671 967 671 967 649 981 c 0,49,50
 599 1013 599 1013 491 921 c 0,51,52
 476 908 476 908 460.5 892.5 c 0,53,54
 424.236 855.577 424.236 855.577 411.5 841.5 c 2,36,-1
EndSplineSet
EndChar

StartChar: m
Encoding: 109 109 13
Width: 1238
Flags: W
LayerCount: 2
Fore
SplineSet
-238 -17 m 1,0,-1
 -251 -5 l 1,1,2
 -118 129.5 l 2,3,4
 -66 182 -66 182 -43 208 c 0,5,6
 158 432 158 432 148 484 c 1,7,8
 145 491 145 491 137.5 494 c 128,-1,9
 130 497 130 497 132 506 c 1,10,11
 135 514 135 514 148.5 509 c 128,-1,12
 162 504 162 504 165 487 c 0,13,14
 173 450 173 450 109 363 c 1,15,16
 78 317 78 317 22 254 c 1,17,-1
 50 277 l 1,18,19
 283.706 473.176 283.706 473.176 423 508 c 0,20,21
 547 539 547 539 572 459 c 0,22,23
 594.274 386.938 594.274 386.938 514 250 c 1,24,25
 517 253 517 253 523 259.5 c 128,-1,26
 529 266 529 266 532 269 c 0,27,28
 644 381 644 381 746 446.5 c 128,-1,29
 848 512 848 512 939 502 c 1,30,31
 990 494 990 494 1005 459 c 0,32,33
 1038 378 1038 378 876 195 c 1,34,35
 784 89 784 89 806 49 c 0,36,37
 819 26 819 26 857.5 23.5 c 0,38,39
 919.122 19.4986 919.122 19.4986 990 51 c 0,40,41
 1105 101 1105 101 1233 223 c 0,42,43
 1240 230 1240 230 1246 223.5 c 128,-1,44
 1252 217 1252 217 1246 210 c 0,45,46
 1110 81 1110 81 996 34 c 0,47,48
 960 19 960 19 924 10 c 128,-1,49
 888 1 888 1 847 6 c 128,-1,50
 806 11 806 11 791.5 37.5 c 0,51,52
 762.035 91.3494 762.035 91.3494 863 207 c 0,53,54
 1049.22 421.047 1049.22 421.047 969 473.5 c 0,55,56
 949.882 486 949.882 486 937 486 c 1,57,58
 856 495 856 495 746 426 c 1,59,60
 614.668 341.27 614.668 341.27 450 154 c 0,61,62
 432 134 432 134 388 78.5 c 2,63,-1
 321 -4 l 1,64,-1
 307 7 l 1,65,66
 324 23 324 23 436 166 c 1,67,68
 492 242 492 242 531 322.5 c 128,-1,69
 570 403 570 403 554 454 c 0,70,71
 550 468 550 468 541.5 478 c 128,-1,72
 533 488 533 488 520 494 c 1,73,74
 457 515 457 515 338.5 455.5 c 128,-1,75
 220 396 220 396 61 263 c 0,76,77
 -36 183 -36 183 -115 105 c 2,78,-1
 -238 -17 l 1,0,-1
EndSplineSet
EndChar

StartChar: n
Encoding: 110 110 14
Width: 853
Flags: MW
HStem: -7 21G<-158 -158>
LayerCount: 2
Fore
SplineSet
-158 -7 m 1,0,-1
 -173 4 l 1,1,-1
 -98 106 l 2,2,3
 -62 154 -62 154 -15 225 c 0,4,5
 136 452 136 452 117 491 c 0,6,7
 114 499 114 499 121 503 c 1,8,9
 129 506 129 506 133 499 c 0,10,11
 147 471 147 471 109 397.5 c 128,-1,12
 71 324 71 324 13 234 c 1,13,-1
 57 279 l 1,14,15
 333.255 548.349 333.255 548.349 550 505 c 1,16,17
 620.013 489.725 620.013 489.725 622.5 435 c 0,18,19
 623.921 403.748 623.921 403.748 608 373.5 c 2,20,-1
 598 355 l 2,21,22
 593 346 593 346 588 338.5 c 2,23,-1
 579.5 326 l 2,24,25
 576 321 576 321 570 314 c 2,26,-1
 530 261.5 l 1,27,28
 420.918 115.1 420.918 115.1 436 51 c 0,29,30
 440.5 30 440.5 30 463 21 c 0,31,32
 543.096 -11.0385 543.096 -11.0385 772.5 169 c 0,33,34
 853 232.177 853 232.177 853 237 c 1,35,36
 861 243 861 243 866 236 c 128,-1,37
 871 229 871 229 865 223 c 0,38,39
 791 157 791 157 706 97 c 1,40,41
 564 -1 564 -1 489 -1 c 0,42,43
 469.5 -1 469.5 -1 456 5 c 0,44,45
 363.781 40.6978 363.781 40.6978 480 222 c 1,46,-1
 515 272 l 2,47,48
 534 298 534 298 545.5 311.5 c 0,49,50
 559.556 328 559.556 328 571.778 344.5 c 128,-1,51
 584 361 584 361 597 394.5 c 128,-1,52
 610 428 610 428 602 449 c 1,53,54
 593 478 593 478 546 487 c 0,55,56
 339 529 339 529 70 267 c 0,57,58
 -11 187 -11 187 -84.5 92.5 c 128,-1,59
 -158 -2 -158 -2 -158 -7 c 1,0,-1
EndSplineSet
EndChar

StartChar: o
Encoding: 111 111 15
Width: 866
Flags: MW
HStem: -10 21G<131 141 131 131>
LayerCount: 2
Fore
SplineSet
141 -10 m 2,0,-1
 131 -10 l 1,1,2
 25.5404 -3.72264 25.5404 -3.72264 -6 72.5 c 0,3,4
 -25.7053 120.121 -25.7053 120.121 -13 190 c 1,5,6
 12 286 12 286 106.5 378 c 128,-1,7
 201 470 201 470 293 512 c 1,8,9
 436.52 574.063 436.52 574.063 537 531 c 0,10,11
 544 528 544 528 550 524.5 c 2,12,-1
 561.5 517.5 l 2,13,14
 572.5 510.5 572.5 510.5 579.75 503.25 c 2,15,-1
 588.5 494.5 l 2,16,17
 596.5 486.5 596.5 486.5 592 479 c 1,18,19
 606 476 606 476 615 465 c 0,20,21
 633 445 633 445 621 399 c 128,-1,22
 609 353 609 353 569 297 c 128,-1,23
 529 241 529 241 504 213 c 1,24,25
 574 145 574 145 672.5 149 c 128,-1,26
 771 153 771 153 859 223 c 0,27,28
 866 229 866 229 871.5 221.5 c 128,-1,29
 877 214 877 214 871 209 c 0,30,31
 783 141 783 141 689 132 c 0,32,33
 632 127 632 127 580 144 c 128,-1,34
 528 161 528 161 492 199 c 1,35,36
 468 172 468 172 436 142 c 0,37,38
 271.507 -10 271.507 -10 141 -10 c 2,0,-1
576 481 m 1,39,40
 534.621 531 534.621 531 457.81 531 c 128,-1,41
 381 531 381 531 297.5 494 c 128,-1,42
 214 457 214 457 121.5 368.5 c 0,43,44
 16.093 267.651 16.093 267.651 1 162 c 0,45,46
 -1 148 -1 148 3 113.5 c 128,-1,47
 7 79 7 79 24 56 c 0,48,49
 58 11 58 11 132 8 c 1,50,51
 192 4 192 4 268 42.5 c 0,52,53
 372.315 95.3439 372.315 95.3439 482 215 c 1,54,55
 470 234 470 234 461 273 c 128,-1,56
 452 312 452 312 463.5 363.5 c 0,57,58
 486.79 467.798 486.79 467.798 560 480 c 0,59,60
 566 481 566 481 576 481 c 1,39,40
604 403 m 1,61,62
 612 441 612 441 603 452 c 128,-1,63
 594 463 594 463 567.5 462.5 c 128,-1,64
 541 462 541 462 516 436 c 128,-1,65
 491 410 491 410 481 364 c 0,66,67
 465 286 465 286 494 229 c 1,68,69
 587 337 587 337 604 403 c 1,61,62
EndSplineSet
EndChar

StartChar: p
Encoding: 112 112 16
Width: 891
Flags: MW
HStem: -562 21G<-461 -439>
LayerCount: 2
Fore
SplineSet
914 254 m 1,0,1
 920 246 920 246 913 241 c 0,2,3
 738 84 738 84 561 25 c 0,4,5
 465 -6 465 -6 363 -8 c 1,6,7
 256.5 -8 256.5 -8 154 33 c 1,8,9
 91 52 91 52 46 94 c 1,10,-1
 -160 -235 l 1,11,12
 -301.647 -447.471 -301.647 -447.471 -374 -515 c 0,13,14
 -389 -529 -389 -529 -415 -545.5 c 128,-1,15
 -441 -562 -441 -562 -461 -562 c 0,16,17
 -503 -560 -503 -560 -497 -507.5 c 128,-1,18
 -491 -455 -491 -455 -423.5 -330.5 c 128,-1,19
 -356 -206 -356 -206 -254 -65 c 1,20,21
 -136 95 -136 95 -1 236 c 1,22,23
 117 357 117 357 232 447 c 1,24,-1
 322 606 l 2,25,26
 326 614 326 614 334.5 609.5 c 128,-1,27
 343 605 343 605 337 597 c 1,28,29
 337 595 337 595 269 475 c 1,30,31
 374 561 374 561 522 561 c 0,32,33
 632 561 632 561 681 501 c 0,34,35
 712 463 712 463 715 417 c 128,-1,36
 718 371 718 371 697 326.5 c 0,37,38
 658.79 245.531 658.79 245.531 580 171 c 1,39,40
 456 60 456 60 310 30 c 0,41,42
 272 23 272 23 247 23 c 1,43,44
 291.558 11.8605 291.558 11.8605 358.779 10.4302 c 128,-1,45
 426 9 426 9 487.5 24 c 128,-1,46
 549 39 549 39 612 64 c 0,47,48
 749.306 118.486 749.306 118.486 901 254 c 0,49,50
 908 260 908 260 914 254 c 1,0,1
-368 -484 m 1,51,52
 -244 -356 -244 -356 53 140 c 1,53,-1
 208 405 l 1,54,55
 -32 208 -32 208 -239 -76 c 0,56,57
 -344 -220 -344 -220 -408.5 -341.5 c 0,58,59
 -516 -544 -516 -544 -460 -544 c 0,60,61
 -428 -544 -428 -544 -368 -484 c 1,51,52
160 50 m 1,62,63
 225 33 225 33 306 48 c 1,64,65
 449 77 449 77 568 185 c 1,66,67
 639.686 248.493 639.686 248.493 677.5 328 c 0,68,69
 697 369 697 369 695 411.5 c 128,-1,70
 693 454 693 454 666 490 c 0,71,72
 626 543 626 543 522 543 c 0,73,74
 418.8 543 418.8 543 345 502 c 0,75,76
 304.659 479.588 304.659 479.588 277.329 458.794 c 2,77,-1
 246 435 l 1,78,-1
 68 130 l 2,79,80
 64 124 64 124 56 110 c 1,81,82
 92 74 92 74 160 50 c 1,62,63
EndSplineSet
EndChar

StartChar: q
Encoding: 113 113 17
Width: 798
Flags: MW
HStem: -20 20G<117 183.5> 519 20G<456.5 538>
LayerCount: 2
Fore
SplineSet
822 388 m 1,0,1
 824 378 824 378 814 378 c 1,2,3
 687.53 360.103 687.53 360.103 541 219 c 1,4,-1
 474 151 l 1,5,-1
 470 146 l 1,6,7
 471 144 471 144 471 140 c 0,8,9
 449.959 -76.1499 449.959 -76.1499 333 -288 c 0,10,11
 285 -375 285 -375 229 -445 c 128,-1,12
 173 -515 173 -515 128.5 -545.5 c 0,13,14
 41.508 -605.124 41.508 -605.124 12 -544 c 1,15,16
 -1.08511 -523.645 -1.08511 -523.645 13 -472 c 0,17,18
 16 -461 16 -461 19 -456 c 0,19,20
 71 -347 71 -347 272 -78 c 1,21,-1
 439 136 l 1,22,23
 381 90 381 90 335 62 c 0,24,25
 236 0 236 0 165.5 0 c 128,-1,26
 95 0 95 0 49 36 c 128,-1,27
 3 72 3 72 -3 132 c 0,28,29
 -15 240 -15 240 138 369 c 0,30,31
 339 539 339 539 514 539 c 0,32,33
 657 539 657 539 678 451 c 0,34,35
 691 398 691 398 634 319 c 1,36,-1
 681 349 l 1,37,38
 752 388 752 388 812 395 c 0,39,40
 822 397 822 397 822 388 c 1,0,1
61 50 m 128,-1,42
 101 18 101 18 149 18 c 128,-1,43
 197 18 197 18 241 33.5 c 128,-1,44
 285 49 285 49 334 82 c 0,45,46
 413.163 135.314 413.163 135.314 458.081 173.657 c 2,47,-1
 518.5 225 l 2,48,49
 534 238 534 238 542 246 c 0,50,51
 677 372 677 372 660 446.5 c 128,-1,52
 643 521 643 521 514 521 c 0,53,54
 344 521 344 521 149 355 c 0,55,56
 70 288 70 288 37 226 c 1,57,58
 10 178 10 178 15.5 130 c 128,-1,41
 21 82 21 82 61 50 c 128,-1,42
317 -279 m 0,59,60
 427 -81 427 -81 451 123 c 1,61,62
 113 -301 113 -301 35 -463 c 0,63,64
 12 -509 12 -509 28 -537 c 1,65,66
 56.3486 -578.578 56.3486 -578.578 113 -535 c 0,67,68
 160 -499 160 -499 215.5 -430.5 c 128,-1,69
 271 -362 271 -362 317 -279 c 0,59,60
EndSplineSet
EndChar

StartChar: r
Encoding: 114 114 18
Width: 652
Flags: MW
HStem: 579 20G<226.5 239.5>
LayerCount: 2
Fore
SplineSet
632 111 m 1,0,1
 499 29 499 29 406.5 -2.5 c 128,-1,2
 314 -34 314 -34 273 -33 c 128,-1,3
 232 -32 232 -32 211.5 -6 c 0,4,5
 171.724 44.4478 171.724 44.4478 226 153 c 0,6,7
 258 216 258 216 316.5 293 c 128,-1,8
 375 370 375 370 396.5 401 c 128,-1,9
 418 432 418 432 410 446.5 c 128,-1,10
 402 461 402 461 358 461 c 0,11,12
 330.857 461 330.857 461 294.429 469.5 c 128,-1,13
 258 478 258 478 238 489 c 1,14,15
 234 483 234 483 232 479 c 0,16,17
 140 320 140 320 17 209 c 0,18,19
 9 203 9 203 4 210 c 128,-1,20
 -1 217 -1 217 5 223 c 0,21,22
 112 319 112 319 216 489 c 0,23,24
 217 491 217 491 218.5 493.5 c 128,-1,25
 220 496 220 496 222 500 c 1,26,27
 188 526 188 526 195 568 c 0,28,29
 200 599 200 599 226.5 599 c 128,-1,30
 253 599 253 599 261 578 c 1,31,32
 269 553 269 553 246 505 c 1,33,34
 287 482 287 482 357 479 c 1,35,36
 414 479 414 479 426.5 455.5 c 128,-1,37
 439 432 439 432 415 396 c 0,38,39
 405 381 405 381 339 293 c 0,40,41
 219.484 133.645 219.484 133.645 212.742 59.3226 c 128,-1,42
 206 -15 206 -15 285 -15 c 0,43,44
 316 -15 316 -15 379 7 c 0,45,46
 493 47 493 47 623 126 c 0,47,48
 630 131 630 131 634.5 124 c 128,-1,49
 639 117 639 117 632 111 c 1,0,1
228 581 m 0,50,51
 217 580 217 580 214.5 566.5 c 128,-1,52
 212 553 212 553 217 537.5 c 128,-1,53
 222 522 222 522 231 516 c 1,54,55
 250 555 250 555 244.5 568 c 128,-1,56
 239 581 239 581 228 581 c 0,50,51
EndSplineSet
EndChar

StartChar: s
Encoding: 115 115 19
Width: 541
Flags: W
LayerCount: 2
Fore
SplineSet
290 222 m 1,0,-1
 289 201 l 1,1,2
 280 52.5 280 52.5 223 3 c 0,3,4
 193 -22 193 -22 147.5 -17 c 128,-1,5
 102 -12 102 -12 85 22.5 c 128,-1,6
 68 57 68 57 87 101 c 0,7,8
 114 166 114 166 267 232 c 1,9,-1
 272 234 l 1,10,11
 273 275 273 275 266.5 344.5 c 128,-1,12
 260 414 260 414 259 435 c 1,13,14
 34 246 34 246 4 216 c 1,15,16
 -4 210 -4 210 -9.5 216.5 c 128,-1,17
 -15 223 -15 223 -11 226.5 c 2,18,-1
 137.5 356 l 1,19,-1
 258 458 l 1,20,21
 258 561 258 561 293 593 c 0,22,23
 317 615 317 615 340 607.5 c 128,-1,24
 363 600 363 600 368.5 579 c 128,-1,25
 374 558 374 558 357 530.5 c 128,-1,26
 340 503 340 503 325.5 490 c 128,-1,27
 311 477 311 477 294.5 464.5 c 128,-1,28
 278 452 278 452 276 450 c 1,29,-1
 276 444 l 1,30,31
 277 415 277 415 284 347 c 128,-1,32
 291 279 291 279 290 242 c 1,33,34
 338.972 262.264 338.972 262.264 397.5 280 c 2,35,-1
 414 285 l 2,36,37
 505 312 505 312 584 308 c 0,38,39
 593 308 593 308 593 299 c 128,-1,40
 593 290 593 290 584 290 c 0,41,42
 470.096 296.157 470.096 296.157 290 222 c 1,0,-1
272 215 m 1,43,44
 127 155 127 155 103 93 c 0,45,46
 88 55 88 55 101.5 28.5 c 128,-1,47
 115 2 115 2 154 -0.5 c 128,-1,48
 193 -3 193 -3 212 16 c 1,49,50
 266 62 266 62 272 215 c 1,43,44
305 579 m 0,51,52
 279 556 279 556 276 472 c 1,53,54
 298 487 298 487 319 508 c 1,55,56
 359 552 359 552 351 576 c 0,57,58
 348 586 348 586 334.5 589.5 c 128,-1,59
 321 593 321 593 305 579 c 0,51,52
EndSplineSet
EndChar

StartChar: t
Encoding: 116 116 20
Width: 664
Flags: MW
HStem: -17 21G<210 238> 527 21G
LayerCount: 2
Fore
SplineSet
-22 220 m 2,0,1
 136 353.5 l 1,2,-1
 354 530 l 1,3,4
 254 530 254 530 136 542 c 1,5,6
 127 544 127 544 127 552 c 128,-1,7
 127 560 127 560 136 560 c 0,8,9
 142 560 142 560 201.5 555 c 128,-1,10
 261 550 261 550 363 547 c 1,11,12
 566 927 566 927 655 1042 c 0,13,14
 675 1069 675 1069 686 1076 c 128,-1,15
 697 1083 697 1083 705.5 1079 c 128,-1,16
 714 1075 714 1075 717 1069 c 0,17,18
 725 1050 725 1050 705 1002 c 1,19,20
 631.119 809.909 631.119 809.909 396 546 c 1,21,22
 528 544 528 544 617 548 c 0,23,24
 626 548 626 548 626 539 c 128,-1,25
 626 530 626 530 617 530 c 0,26,27
 552 527 552 527 501 527 c 128,-1,28
 450 527 450 527 380 529 c 1,29,30
 377 526 377 526 372.5 521 c 128,-1,31
 368 516 368 516 366 514 c 2,32,-1
 198.5 192 l 2,33,34
 173 142 173 142 172 140 c 128,-1,35
 171 138 171 138 168.5 132.5 c 128,-1,36
 166 127 166 127 161 112 c 128,-1,37
 156 97 156 97 153 83 c 0,38,39
 145.386 47.4689 145.386 47.4689 161 26 c 0,40,41
 186 -9 186 -9 270 5 c 128,-1,42
 354 19 354 19 444.5 68 c 128,-1,43
 535 117 535 117 583.5 154.5 c 128,-1,44
 632 192 632 192 672 228 c 0,45,46
 680 234 680 234 685 227 c 128,-1,47
 690 220 690 220 684 214 c 0,48,49
 598 137 598 137 489.5 71 c 128,-1,50
 381 5 381 5 281 -12 c 0,51,52
 251 -17 251 -17 230 -17 c 0,53,54
 170 -17 170 -17 147 16 c 1,55,56
 117.214 55.7143 117.214 55.7143 149 132 c 0,57,58
 155.343 147.224 155.343 147.224 342 499 c 1,59,60
 339 497 339 497 260.5 434 c 1,61,-1
 94 297.5 l 1,62,63
 6 224 6 224 -10 206 c 0,64,65
 -19 197 -19 197 -24.5 205 c 128,-1,66
 -30 213 -30 213 -22 220 c 2,0,1
401 579 m 1,67,68
 642.179 853.832 642.179 853.832 697 1032 c 0,69,70
 707.983 1069.66 707.983 1069.66 695 1061 c 1,71,72
 633.27 1008.09 633.27 1008.09 401 579 c 1,67,68
EndSplineSet
EndChar

StartChar: u
Encoding: 117 117 21
Width: 839
Flags: W
LayerCount: 2
Fore
SplineSet
589 25 m 0,0,1
 523 -7 523 -7 475.5 -8.5 c 0,2,3
 379.84 -11.5208 379.84 -11.5208 388 66 c 0,4,5
 395.324 131.915 395.324 131.915 466 239 c 1,6,-1
 443 218 l 2,7,8
 335 119 335 119 227.5 63 c 128,-1,9
 120 7 120 7 40 7 c 0,10,11
 -15 7 -15 7 -39 38 c 128,-1,12
 -63 69 -63 69 -40 134 c 1,13,14
 -5 227 -5 227 107 388 c 1,15,-1
 213 534 l 1,16,17
 220 541 220 541 227 535.5 c 128,-1,18
 234 530 234 530 228 523 c 2,19,-1
 173 450 l 1,20,21
 66.1183 297.957 66.1183 297.957 39.5592 251.479 c 0,22,23
 -9 166.5 -9 166.5 -25.75 119.5 c 128,-1,24
 -42.5 72.5 -42.5 72.5 -24.75 49.25 c 128,-1,25
 -7 26 -7 26 27.5 24 c 128,-1,26
 62 22 62 22 102.5 34 c 0,27,28
 178.027 56.3784 178.027 56.3784 225 82 c 0,29,30
 376 163 376 163 529 329 c 1,31,-1
 696 535 l 1,32,-1
 710 523 l 1,33,-1
 542 316 l 2,34,35
 462 217 462 217 424 130 c 1,36,37
 396 70 396 70 410 37 c 128,-1,38
 424 4 424 4 475.5 9 c 128,-1,39
 527 14 527 14 581 41 c 0,40,41
 696 97 696 97 824 222 c 0,42,43
 831 228 831 228 837 221.5 c 128,-1,44
 843 215 843 215 837 209 c 0,45,46
 706 83 706 83 589 25 c 0,0,1
EndSplineSet
EndChar

StartChar: v
Encoding: 118 118 22
Width: 859
Flags: W
LayerCount: 2
Fore
SplineSet
-33 82 m 1,0,1
 -33 149 -33 149 81 337 c 0,2,3
 171 487 171 487 138 508 c 0,4,5
 111.519 525.654 111.519 525.654 74.5 492 c 1,6,-1
 64 482 l 2,7,8
 56 474 56 474 51 467 c 128,-1,9
 46 460 46 460 42 453.5 c 128,-1,10
 38 447 38 447 30.5 452.5 c 0,11,12
 22.5522 458.328 22.5522 458.328 26.7761 464.664 c 128,-1,13
 31 471 31 471 34.5 475 c 2,14,-1
 42 484 l 2,15,16
 53.2 498 53.2 498 64 507 c 0,17,18
 111 547 111 547 148 523 c 1,19,20
 183 498 183 498 139 406 c 0,21,22
 125 376 125 376 81.5 303.5 c 128,-1,23
 38 231 38 231 3 153 c 128,-1,24
 -32 75 -32 75 -1.5 37.5 c 128,-1,25
 29 -0 29 -0 89 10 c 0,26,27
 251 36 251 36 395 189 c 0,28,29
 492 292 492 292 547 416 c 1,30,31
 506 452 506 452 506 511 c 1,32,33
 505 541 505 541 521.5 558.5 c 128,-1,34
 538 576 538 576 561 573 c 128,-1,35
 584 570 584 570 593 549 c 1,36,37
 607 508 607 508 569 422 c 1,38,39
 593 405 593 405 634.5 396.5 c 128,-1,40
 676 388 676 388 732 406 c 128,-1,41
 788 424 788 424 820.5 446 c 128,-1,42
 853 468 853 468 882 493 c 1,43,44
 888 500 888 500 895 493 c 1,45,46
 901 485 901 485 894 480 c 0,47,48
 841 434 841 434 784 405 c 1,49,50
 697 365 697 365 624 381 c 0,51,52
 588 388 588 388 562 405 c 1,53,54
 503 279 503 279 408 176 c 1,55,56
 345 110 345 110 262 57 c 128,-1,57
 179 4 179 4 92 -7 c 0,58,59
 38 -14 38 -14 1.5 10.5 c 128,-1,60
 -35 35 -35 35 -33 82 c 1,0,1
560 555.5 m 0,61,62
 549 558 549 558 536 548.5 c 128,-1,63
 523 539 523 539 525 511 c 1,64,65
 525 464 525 464 555 434 c 1,66,67
 600.488 546.298 600.488 546.298 560 555.5 c 0,61,62
EndSplineSet
EndChar

StartChar: w
Encoding: 119 119 23
Width: 950
Flags: MW
HStem: -16 21G<440.5 463.5>
LayerCount: 2
Fore
SplineSet
459 -16 m 0,0,1
 404 -16 404 -16 380 20 c 0,2,3
 335 88 335 88 413 279 c 1,4,-1
 421 297 l 1,5,6
 349 191 349 191 289 128 c 128,-1,7
 229 65 229 65 141 23.5 c 128,-1,8
 53 -18 53 -18 -4 4 c 1,9,10
 -52 25 -52 25 -46 84 c 0,11,12
 -36 187 -36 187 65 364 c 1,13,-1
 110 439.5 l 1,14,15
 155.693 514 155.693 514 160 514 c 1,16,17
 165 521 165 521 172.5 516.5 c 128,-1,18
 180 512 180 512 174 504 c 2,19,-1
 124.5 429 l 1,20,21
 -13.3921 211.893 -13.3921 211.893 -27 82 c 0,22,23
 -32 35 -32 35 3 21 c 0,24,25
 52 1 52 1 140 43 c 1,26,27
 201.625 73.8125 201.625 73.8125 239.312 109.406 c 128,-1,28
 277 145 277 145 298.5 167 c 128,-1,29
 320 189 320 189 346 224.5 c 2,30,-1
 388 281 l 2,31,32
 404 302 404 302 429 343 c 2,33,-1
 531 512 l 1,34,-1
 546 502 l 1,35,36
 468 366 468 366 430 272 c 0,37,38
 355 90 355 90 395 30 c 1,39,40
 420 -5 420 -5 486 5 c 0,41,42
 583 19 583 19 679 130 c 1,43,44
 744 203 744 203 800 316 c 1,45,46
 773 344 773 344 768.5 389.5 c 128,-1,47
 764 435 764 435 782 477 c 0,48,49
 806 532 806 532 847 526 c 1,50,51
 892.16 515.964 892.16 515.964 861 421 c 1,52,53
 846 370 846 370 822 321 c 1,54,55
 870 285 870 285 979 322 c 0,56,57
 1023.4 337.983 1023.4 337.983 1052.2 353.491 c 128,-1,58
 1081 369 1081 369 1081 370 c 0,59,60
 1089 373 1089 373 1094 367 c 1,61,62
 1097 359 1097 359 1091 354 c 1,63,64
 1012 314 1012 314 974 301 c 128,-1,65
 936 288 936 288 889.5 285.5 c 128,-1,66
 843 283 843 283 814 304 c 1,67,68
 759 194 759 194 701.5 128.5 c 0,69,70
 574.649 -16 574.649 -16 459 -16 c 0,0,1
840 508 m 0,71,72
 815 508 815 508 799 470 c 1,73,74
 782 435 782 435 786 396 c 128,-1,75
 790 357 790 357 808 334 c 1,76,77
 810 339 810 339 815.5 351.5 c 0,78,79
 868.355 471.626 868.355 471.626 852 502 c 0,80,81
 848 508 848 508 840 508 c 0,71,72
EndSplineSet
EndChar

StartChar: x
Encoding: 120 120 24
Width: 751
Flags: MW
HStem: -49 21G<-93.5 -91>
LayerCount: 2
Fore
SplineSet
758 202 m 128,-1,1
 764 196 764 196 757 190 c 0,2,3
 628 76 628 76 518 24 c 1,4,5
 432 -18 432 -18 367 -18 c 0,6,7
 295.485 -18 295.485 -18 269 28 c 0,8,9
 234 87 234 87 275 240 c 1,10,11
 220 202 220 202 157 153 c 1,12,13
 38.1429 65.2286 38.1429 65.2286 -56 -19.5 c 0,14,15
 -81 -42 -81 -42 -86 -47 c 1,16,17
 -90 -49 -90 -49 -93 -49 c 128,-1,18
 -96 -49 -96 -49 -100.5 -44.5 c 128,-1,19
 -105 -40 -105 -40 -100 -35 c 128,-1,20
 -95 -30 -95 -30 -68.5 -7 c 2,21,-1
 19.5 67.5 l 2,22,23
 145.691 173.172 145.691 173.172 283 267 c 1,24,25
 286 279 286 279 304.5 342 c 128,-1,26
 323 405 323 405 329.5 440.5 c 128,-1,27
 336 476 336 476 323 484 c 1,28,29
 296 506 296 506 166 447 c 0,30,31
 94 415 94 415 -10 354 c 0,32,33
 -18 350 -18 350 -22.5 357 c 128,-1,34
 -27 364 -27 364 -19 370 c 1,35,36
 276.813 541.571 276.813 541.571 334 498 c 0,37,38
 355 482 355 482 345 428 c 0,39,40
 342 413 342 413 306 283 c 1,41,-1
 396 343 l 1,42,43
 554 442 554 442 685 499 c 0,44,45
 693 502 693 502 697 495 c 1,46,47
 700 487 700 487 693 483 c 0,48,49
 514 404 514 404 298 256 c 1,50,51
 253 91 253 91 285 37 c 0,52,53
 300 11 300 11 332 4 c 0,54,55
 401 -13 401 -13 510 40 c 128,-1,56
 619 93 619 93 745 203 c 0,57,0
 752 208 752 208 758 202 c 128,-1,1
EndSplineSet
EndChar

StartChar: y
Encoding: 121 121 25
Width: 789
Flags: W
LayerCount: 2
Fore
SplineSet
-166 -594 m 0,0,1
 -206 -593 -206 -593 -222.5 -568.5 c 128,-1,2
 -239 -544 -239 -544 -231 -510 c 128,-1,3
 -223 -476 -223 -476 -197 -444 c 0,4,5
 -132 -364 -132 -364 -24 -282 c 128,-1,6
 84 -200 84 -200 203 -130 c 1,7,8
 248 -102 248 -102 322 -61 c 1,9,-1
 429 133 l 1,10,11
 292 31 292 31 187.5 4 c 128,-1,12
 83 -23 83 -23 19 20 c 1,13,14
 -19 44 -19 44 -25 88 c 0,15,16
 -39 177 -39 177 74 327 c 0,17,18
 119 387 119 387 190 444.5 c 128,-1,19
 261 502 261 502 342 532 c 0,20,21
 350 535 350 535 353.5 527 c 128,-1,22
 357 519 357 519 349 515 c 0,23,24
 203 461 203 461 89 317 c 1,25,26
 82 310 82 310 59.5 278 c 128,-1,27
 37 246 37 246 12 188.5 c 0,28,29
 -35.9213 78.2809 -35.9213 78.2809 29 35 c 0,30,31
 87 -4 87 -4 183 22 c 0,32,33
 302 54 302 54 451 172 c 1,34,-1
 621 480 l 1,35,36
 632 503 632 503 654.5 516 c 128,-1,37
 677 529 677 529 697 519 c 0,38,39
 705 515 705 515 711 506.5 c 128,-1,40
 717 498 717 498 716 471.5 c 128,-1,41
 715 445 715 445 695.5 406.5 c 128,-1,42
 676 368 676 368 621 307 c 0,43,44
 550.905 229.258 550.905 229.258 483 175.5 c 0,45,46
 471 166 471 166 465 160 c 1,47,-1
 351 -46 l 1,48,49
 462 13 462 13 466 13 c 1,50,-1
 500.5 30.5 l 2,51,52
 517 39 517 39 538.5 51.5 c 0,53,54
 613.133 95.8363 613.133 95.8363 645.566 116.918 c 2,55,-1
 714.5 164 l 2,56,57
 751 190 751 190 785 218 c 0,58,59
 792 223 792 223 797.5 216 c 128,-1,60
 803 209 803 209 796 204 c 0,61,62
 762 176 762 176 725.5 150 c 0,63,64
 609.734 70.519 609.734 70.519 567.867 47.2595 c 128,-1,65
 526 24 526 24 509.5 15.5 c 2,66,-1
 474 -3 l 1,67,68
 385 -47 385 -47 335 -75 c 1,69,-1
 331 -83 l 1,70,71
 243 -247 243 -247 107 -403 c 0,72,73
 -62 -596 -62 -596 -166 -594 c 0,0,1
306 -91 m 1,74,75
 251 -121 251 -121 212 -145 c 0,76,77
 -72 -316 -72 -316 -183 -455 c 0,78,79
 -210.275 -488.569 -210.275 -488.569 -213.5 -530.5 c 0,80,81
 -215 -550 -215 -550 -203 -563 c 128,-1,82
 -191 -576 -191 -576 -165 -576 c 0,83,84
 -115 -576 -115 -576 -47.25 -525.5 c 128,-1,85
 20.5 -475 20.5 -475 94 -391 c 0,86,87
 219 -247 219 -247 306 -91 c 1,74,75
637 472 m 1,88,-1
 488 203 l 1,89,90
 555 261 555 261 608 319.5 c 128,-1,91
 661 378 661 378 680 416 c 0,92,93
 716 488 716 488 690.5 502.5 c 128,-1,94
 665 517 665 517 637 472 c 1,88,-1
EndSplineSet
EndChar

StartChar: z
Encoding: 122 122 26
Width: 679
Flags: W
LayerCount: 2
Fore
SplineSet
-260 -525 m 1,0,1
 -254 -474 -254 -474 -189.5 -404 c 128,-1,2
 -125 -334 -125 -334 -15 -247 c 1,3,4
 121 -142 121 -142 269 -55 c 1,5,6
 267 -36 267 -36 256.5 -14 c 128,-1,7
 246 8 246 8 213.5 28 c 128,-1,8
 181 48 181 48 159.5 54 c 128,-1,9
 138 60 138 60 133 60 c 2,10,-1
 105 65 l 1,11,-1
 130 77 l 1,12,13
 136.512 77 136.512 77 189.256 108.5 c 0,14,15
 509.285 299.628 509.285 299.628 443.5 456.5 c 0,16,17
 408.661 539.577 408.661 539.577 295.5 503 c 0,18,19
 246 487 246 487 217.5 470.5 c 128,-1,20
 189 454 189 454 176 445 c 0,21,22
 136.119 417.39 136.119 417.39 114 396.5 c 2,23,-1
 105 388 l 1,24,25
 100 381 100 381 92 387 c 1,26,27
 87 394 87 394 92 400 c 0,28,29
 129 437 129 437 175 465 c 0,30,31
 304 546 304 546 384 530 c 1,32,33
 438 518 438 518 460 464 c 0,34,35
 521.045 314.163 521.045 314.163 285 148 c 1,36,37
 226 108 226 108 160 72 c 1,38,39
 248 45 248 45 276 -12 c 0,40,41
 285 -29 285 -29 286 -45 c 1,42,43
 348 -10 348 -10 390.5 11 c 128,-1,44
 433 32 433 32 470.5 53.5 c 128,-1,45
 508 75 508 75 538.5 94.5 c 128,-1,46
 569 114 569 114 597 134 c 0,47,48
 686.517 199.103 686.517 199.103 708.5 218.5 c 2,49,-1
 717 226 l 2,50,51
 723 232 723 232 729 225 c 1,52,53
 736 220 736 220 728.5 212.5 c 128,-1,54
 721 205 721 205 685.5 176.5 c 128,-1,55
 650 148 650 148 567.5 93 c 128,-1,56
 485 38 485 38 416 3.5 c 128,-1,57
 347 -31 347 -31 288 -65 c 1,58,59
 286 -102 286 -102 268 -137 c 0,60,61
 211 -255 211 -255 69.5 -409.5 c 128,-1,62
 -72 -564 -72 -564 -170 -589 c 0,63,64
 -211 -599 -211 -599 -237 -579.5 c 128,-1,65
 -263 -560 -263 -560 -260 -525 c 1,0,1
269 -76 m 1,66,67
 122 -164 122 -164 6.5 -253.5 c 0,68,69
 -233.886 -439.773 -233.886 -439.773 -242 -527 c 0,70,71
 -244 -555 -244 -555 -222.5 -567 c 128,-1,72
 -201 -579 -201 -579 -174 -572 c 0,73,74
 -83 -550 -83 -550 57 -396.5 c 128,-1,75
 197 -243 197 -243 252 -129 c 0,76,77
 266 -101 266 -101 269 -76 c 1,66,67
EndSplineSet
EndChar

StartChar: A
Encoding: 65 65 27
Width: 1208
Flags: MW
HStem: -20 20G<904 922 904 904> 1010 20G<1357.5 1399>
LayerCount: 2
Fore
SplineSet
533 299 m 1,0,1
 442 334.389 442 334.389 442 400 c 0,2,3
 442 446 442 446 475 473.5 c 128,-1,4
 508 501 508 501 581 501 c 0,5,6
 625 501 625 501 659 491 c 1,7,8
 666 502 666 502 682 524 c 0,9,10
 848 748 848 748 972 857 c 0,11,12
 1169.71 1030 1169.71 1030 1372 1030 c 0,13,14
 1474 1030 1474 1030 1544 980 c 0,15,16
 1552 974 1552 974 1547 967 c 128,-1,17
 1542 960 1542 960 1534 966 c 0,18,19
 1473 1008 1473 1008 1392 1013 c 1,20,-1
 1372 999 l 2,21,22
 1350 984 1350 984 1319 957 c 0,23,24
 1231 883 1231 883 1157 784 c 0,25,26
 1000 576 1000 576 947 306 c 1,27,28
 996 318 996 318 1037 336.5 c 0,29,30
 1096.22 363.222 1096.22 363.222 1111 378 c 1,31,32
 1119 384 1119 384 1124.5 377 c 128,-1,33
 1130 370 1130 370 1122 364 c 1,34,35
 1122 362 1122 362 1104 350 c 128,-1,36
 1086 338 1086 338 1041 318.5 c 128,-1,37
 996 299 996 299 943 287 c 1,38,39
 922 164 922 164 922 42 c 2,40,-1
 922 0 l 1,41,-1
 904 0 l 1,42,43
 904 60 904 60 889.5 136 c 128,-1,44
 875 212 875 212 852 271 c 1,45,46
 666.806 257.958 666.806 257.958 550 293 c 1,47,-1
 517 240 l 1,48,49
 418 86 418 86 354 26 c 1,50,51
 280.222 -45.5423 280.222 -45.5423 183.5 -46.5 c 0,52,53
 133 -47 133 -47 97.5 -20.5 c 128,-1,54
 62 6 62 6 43 48 c 128,-1,55
 24 90 24 90 24 139 c 2,56,-1
 24 140 l 2,57,58
 24 149 24 149 33 149 c 128,-1,59
 42 149 42 149 42 140 c 2,60,-1
 42 139 l 2,61,62
 42 111 42 111 50 81 c 1,63,64
 68 22 68 22 104 -4 c 1,65,66
 162 -38 162 -38 226.5 -24 c 128,-1,67
 291 -10 291 -10 342 39 c 1,68,69
 389 82 389 82 448 168 c 1,70,-1
 533 299 l 1,0,1
460 400 m 0,71,72
 460 347 460 347 543 315 c 1,73,74
 619 435 619 435 648 476 c 1,75,76
 616 484 616 484 581 484 c 0,77,78
 517 484 517 484 488.5 460.5 c 128,-1,79
 460 437 460 437 460 400 c 0,71,72
560 309 m 1,80,81
 629 289 629 289 708.5 286.5 c 128,-1,82
 788 284 788 284 845 289 c 1,83,84
 780.463 432.968 780.463 432.968 666 470 c 1,85,86
 640 434 640 434 560 309 c 1,80,81
907 141 m 1,87,88
 911 212 911 212 924 282 c 1,89,90
 898.5 277.5 898.5 277.5 870 273 c 1,91,92
 894.106 216.753 894.106 216.753 907 141 c 1,87,88
1143 795 m 0,93,94
 1246 932 1246 932 1361 1013 c 1,95,96
 1324 1011 1324 1011 1297 1007 c 0,97,98
 1139 979 1139 979 984 843 c 0,99,100
 858 732 858 732 697 513 c 0,101,102
 683 495 683 495 677 486 c 1,103,104
 747 461 747 461 793 405.5 c 128,-1,105
 839 350 839 350 863 291 c 1,106,107
 906 297 906 297 928 301 c 1,108,109
 979 578 979 578 1143 795 c 0,93,94
EndSplineSet
EndChar

StartChar: B
Encoding: 66 66 28
Width: 995
Flags: W
LayerCount: 2
Fore
SplineSet
623 573 m 0,0,1
 692.911 573 692.911 573 787 500 c 1,2,3
 859 515 859 515 902 562 c 1,4,5
 919.429 579.429 919.429 579.429 926.714 595.214 c 2,6,-1
 936.5 616.5 l 2,7,8
 939 622 939 622 940 626 c 128,-1,9
 941 630 941 630 945 644.5 c 128,-1,10
 949 659 949 659 949 685 c 0,11,12
 949 752 949 752 909 801 c 0,13,14
 852 870 852 870 718 890 c 0,15,16
 691 895 691 895 666 896 c 1,17,18
 572.812 807.471 572.812 807.471 459 622 c 1,19,-1
 369 472 l 1,20,-1
 216 200 l 1,21,22
 132 59 132 59 73 9 c 128,-1,23
 14 -41 14 -41 -49 -49 c 128,-1,24
 -112 -57 -112 -57 -151 -22 c 0,25,26
 -178 1 -178 1 -188 39 c 0,27,28
 -190 48 -190 48 -181 50 c 128,-1,29
 -172 52 -172 52 -170 43 c 0,30,31
 -164 12 -164 12 -139 -8 c 1,32,33
 -104 -39 -104 -39 -49 -30 c 1,34,35
 53.5181 -18.8162 53.5181 -18.8162 154 134 c 0,36,37
 187 185 187 185 254 305.5 c 0,38,39
 442.648 644.785 442.648 644.785 544 782 c 0,40,41
 594 851 594 851 641 897 c 1,42,-1
 634 897 l 2,43,44
 478 897 478 897 350 809 c 0,45,46
 288 766 288 766 252 717 c 0,47,48
 246 709 246 709 238.5 715 c 128,-1,49
 231 721 231 721 237 728 c 0,50,51
 278.263 779.579 278.263 779.579 337 822 c 1,52,53
 470 915 470 915 634 915 c 0,54,55
 654 915 654 915 660 914 c 1,56,57
 780.376 1025.46 780.376 1025.46 940 1018 c 0,58,59
 983 1016 983 1016 1023 997 c 128,-1,60
 1063 978 1063 978 1078 944 c 0,61,62
 1082 935 1082 935 1074 931.5 c 128,-1,63
 1066 928 1066 928 1062 936 c 0,64,65
 1049 963 1049 963 1012.5 981 c 128,-1,66
 976 999 976 999 938 1000 c 0,67,68
 829 1002 829 1002 755 961 c 0,69,70
 724 944 724 944 685 912 c 1,71,72
 852.042 898.08 852.042 898.08 923 812 c 0,73,74
 967 759 967 759 967 685 c 0,75,76
 967 624.5 967 624.5 938 581 c 1,77,78
 904 525 904 525 842 499 c 0,79,80
 823 491 823 491 804 485 c 1,81,82
 901.383 403.11 901.383 403.11 900.5 283 c 0,83,84
 900 215 900 215 867 150 c 0,85,86
 826 68 826 68 751.5 20 c 128,-1,87
 677 -28 677 -28 584 -28 c 0,88,89
 466 -28 466 -28 386.5 27.5 c 128,-1,90
 307 83 307 83 307 197 c 0,91,92
 307 219 307 219 311 235 c 0,93,94
 313 245 313 245 321.5 242.5 c 128,-1,95
 330 240 330 240 327.5 227.5 c 128,-1,96
 325 215 325 215 325 197 c 0,97,98
 325 117 325 117 381 55 c 1,99,100
 446 -10 446 -10 584 -10 c 0,101,102
 669 -10 669 -10 739.5 33.5 c 128,-1,103
 810 77 810 77 851 158 c 0,104,105
 912 279 912 279 857 393 c 0,106,107
 840 429 840 429 794 471 c 0,108,109
 786 477 786 477 783 481 c 1,110,111
 711 470 711 470 640 481.5 c 128,-1,112
 569 493 569 493 569 530 c 0,113,114
 569 550 569 550 585.5 561.5 c 128,-1,115
 602 573 602 573 623 573 c 0,0,1
587 530 m 0,116,117
 587 515 587 515 623 504.5 c 128,-1,118
 659 494 659 494 700.5 493.5 c 128,-1,119
 742 493 742 493 763 496 c 1,120,121
 701 538 701 538 673 547.5 c 128,-1,122
 645 557 645 557 627.5 557 c 128,-1,123
 610 557 610 557 598.5 549 c 128,-1,124
 587 541 587 541 587 530 c 0,116,117
EndSplineSet
EndChar

StartChar: C
Encoding: 67 67 29
Width: 738
Flags: MW
HStem: -31 21G<244 286.5> 924 20G<802 829.5>
LayerCount: 2
Fore
SplineSet
258 -31 m 0,0,1
 125.696 -31 125.696 -31 72 66 c 0,2,3
 41 122 41 122 41 190 c 0,4,5
 41 342 41 342 187 532 c 0,6,7
 295 673 295 673 444 784 c 1,8,9
 408 835 408 835 400 894 c 0,10,11
 398 903 398 903 406.5 904 c 128,-1,12
 415 905 415 905 417 895 c 0,13,14
 429 836 429 836 459 795 c 1,15,16
 479 810 479 810 505 827 c 0,17,18
 626 905 626 905 728 932 c 1,19,20
 779 944 779 944 818 944 c 128,-1,21
 857 944 857 944 886 928 c 1,22,23
 926 901.333 926 901.333 926 852.167 c 128,-1,24
 926 803 926 803 898 766 c 1,25,26
 880 739 880 739 847 715 c 0,27,28
 779 666 779 666 687 665 c 1,29,30
 584.158 665 584.158 665 506 720 c 0,31,32
 475 742 475 742 455 770 c 1,33,-1
 402 728 l 1,34,35
 222 579 222 579 126 409 c 1,36,37
 59 288 59 288 59 190 c 1,38,39
 63 68 63 68 141 17 c 0,40,41
 187 -13 187 -13 258 -13 c 1,42,43
 348 -10 348 -10 412 30 c 1,44,45
 523 93 523 93 616 237 c 0,46,47
 621 244 621 244 629 240 c 1,48,49
 637 234 637 234 631 227 c 1,50,51
 537 82 537 82 421 14 c 1,52,53
 340 -31 340 -31 258 -31 c 0,0,1
469 780 m 1,54,55
 547.346 683 547.346 683 687 683 c 0,56,57
 801.667 683 801.667 683 867 756.5 c 0,58,59
 876.333 767.167 876.333 767.167 878.667 770.083 c 128,-1,60
 881 773 881 773 884 776 c 0,61,62
 908 809 908 809 908 842.5 c 128,-1,63
 908 876 908 876 896.5 893 c 128,-1,64
 885 910 885 910 863.5 918 c 128,-1,65
 842 926 842 926 809 926 c 128,-1,66
 776 926 776 926 732 914 c 0,67,68
 612 884 612 884 469 780 c 1,54,55
EndSplineSet
EndChar

StartChar: D
Encoding: 68 68 30
Width: 1008
Flags: MW
HStem: 948 20G<941 1011>
LayerCount: 2
Fore
SplineSet
712 877 m 1,0,1
 839.4 968 839.4 968 981.2 968 c 128,-1,2
 1123 968 1123 968 1164 873 c 0,3,4
 1167 865 1167 865 1160 861 c 1,5,6
 1151 858 1151 858 1148 866 c 0,7,8
 1110 950 1110 950 975 950 c 0,9,10
 883 950 883 950 799 909 c 1,11,12
 757 887 757 887 732 868 c 1,13,14
 830 824 830 824 886 741 c 1,15,16
 948 647 948 647 948 513 c 0,17,18
 948 412 948 412 914 305 c 0,19,20
 845 92 845 92 693 12 c 0,21,22
 621 -26 621 -26 550.5 -26 c 0,23,24
 402 -26 402 -26 350 82 c 0,25,26
 323.4 135.2 323.4 135.2 344 197 c 0,27,28
 356 233 356 233 389 252 c 128,-1,29
 422 271 422 271 469 271 c 128,-1,30
 516 271 516 271 587 243 c 0,31,32
 595 239 595 239 591.5 231 c 128,-1,33
 588 223 588 223 580 226 c 0,34,35
 514 253 514 253 471 253 c 128,-1,36
 428 253 428 253 396.5 235 c 128,-1,37
 365 217 365 217 356.5 169.5 c 128,-1,38
 348 122 348 122 366 90 c 1,39,40
 390 41 390 41 437 16.5 c 128,-1,41
 484 -8 484 -8 550 -8 c 128,-1,42
 616 -8 616 -8 685 28 c 0,43,44
 834 106 834 106 897 311 c 0,45,46
 930 417 930 417 930 513 c 0,47,48
 930 763.255 930 763.255 715 856 c 1,49,50
 613.909 780.182 613.909 780.182 499 610 c 1,51,52
 640.487 610 640.487 610 748 727 c 1,53,54
 753 734 753 734 760.5 728 c 128,-1,55
 768 722 768 722 762 716 c 1,56,57
 762 710.857 762 710.857 737 689.429 c 128,-1,58
 712 668 712 668 693 654 c 0,59,60
 596 584 596 584 487 593 c 1,61,-1
 400 459 l 1,62,63
 365 402 365 402 309 302 c 128,-1,64
 253 202 253 202 245 189 c 0,65,66
 164 46 164 46 107.5 -4.5 c 128,-1,67
 51 -55 51 -55 -12.5 -63 c 128,-1,68
 -76 -71 -76 -71 -115 -36 c 0,69,70
 -142 -13 -142 -13 -152 25 c 0,71,72
 -154 34 -154 34 -145 36 c 128,-1,73
 -136 38 -136 38 -134 30 c 0,74,75
 -127 -2 -127 -2 -104 -22 c 1,76,77
 -67 -52 -67 -52 -12 -44.5 c 128,-1,78
 43 -37 43 -37 90 5 c 128,-1,79
 137 47 137 47 174 105.5 c 128,-1,80
 211 164 211 164 276 281.5 c 128,-1,81
 341 399 341 399 385 468 c 2,82,-1
 467 596 l 1,83,84
 409 605 409 605 368 637.5 c 128,-1,85
 327 670 327 670 317 716 c 128,-1,86
 307 762 307 762 342 817 c 1,87,88
 381 875 381 875 447 897 c 0,89,90
 563.678 935.893 563.678 935.893 712 877 c 1,0,1
479 613 m 1,91,92
 586.854 775.979 586.854 775.979 696 864 c 1,93,94
 639 885 639 885 585.5 892.5 c 128,-1,95
 532 900 532 900 474 886.5 c 128,-1,96
 416 873 416 873 378 833 c 1,97,98
 312 760 312 760 345 695.5 c 128,-1,99
 378 631 378 631 479 613 c 1,91,92
EndSplineSet
EndChar

StartChar: E
Encoding: 69 69 31
Width: 847
Flags: MW
HStem: -14 21G<368 450.5>
LayerCount: 2
Fore
SplineSet
368 -14 m 1,0,1
 219 -8 219 -8 145 90 c 1,2,3
 92 164 92 164 108 281 c 1,4,5
 127 400 127 400 219 478 c 0,6,7
 296 543 296 543 381 560 c 1,8,9
 348 652 348 652 380 743 c 1,10,11
 315 810 315 810 303 893 c 0,12,13
 301 902 301 902 311 904 c 1,14,15
 319 904 319 904 321 896 c 0,16,17
 334 820 334 820 387 761 c 1,18,19
 424.349 857.04 424.349 857.04 517 916 c 1,20,21
 571.364 949.006 571.364 949.006 618 959 c 0,22,23
 632 962 632 962 635 962 c 0,24,25
 748 976 748 976 800 927 c 1,26,27
 832 895 832 895 833.5 846.5 c 128,-1,28
 835 798 835 798 809 763 c 0,29,30
 774 714 774 714 715.5 687 c 128,-1,31
 657 660 657 660 594 660 c 1,32,33
 473 665 473 665 395 729 c 1,34,35
 369 635 369 635 400 563 c 1,36,37
 438 570 438 570 492 567 c 1,38,39
 529 563 529 563 553 545.5 c 128,-1,40
 577 528 577 528 569 497 c 1,41,42
 561 474 561 474 532 470.5 c 128,-1,43
 503 467 503 467 473.5 477 c 0,44,45
 415.01 496.827 415.01 496.827 390 543 c 1,46,47
 299 525 299 525 230 464 c 1,48,49
 145 392 145 392 126 278 c 1,50,51
 113 166 113 166 158 103 c 1,52,53
 193 56 193 56 251 30 c 128,-1,54
 309 4 309 4 368 4 c 0,55,56
 486 4 486 4 584 62.5 c 128,-1,57
 682 121 682 121 732 225 c 0,58,59
 736 234 736 234 744.5 230 c 128,-1,60
 753 226 753 226 749 218 c 0,61,62
 691 107 691 107 591.5 46.5 c 128,-1,63
 492 -14 492 -14 368 -14 c 1,0,1
552 502 m 1,64,65
 559 524 559 524 537 536.5 c 128,-1,66
 515 549 515 549 484 551 c 128,-1,67
 453 553 453 553 409 546 c 1,68,69
 441.088 495.195 441.088 495.195 503.5 487.5 c 0,70,71
 540 483 540 483 552 502 c 1,64,65
594 678 m 1,72,73
 664 679 664 679 710 702.5 c 128,-1,74
 756 726 756 726 794 774 c 0,75,76
 816 803 816 803 815.5 846 c 128,-1,77
 815 889 815 889 788 914 c 1,78,79
 745 958 745 958 633 943 c 0,80,81
 580 935 580 935 528 901 c 128,-1,82
 476 867 476 867 441 822 c 1,83,84
 417 788 417 788 401 748 c 1,85,86
 477 678 477 678 594 678 c 1,72,73
EndSplineSet
EndChar

StartChar: F
Encoding: 70 70 32
Width: 833
Flags: MW
HStem: 380 130<407.5 414 377.5 444.5> 743 205<1144.5 1248>
LayerCount: 2
Fore
SplineSet
882 800 m 1,0,1
 1051.84 948 1051.84 948 1226 948 c 0,2,3
 1323 948 1323 948 1357 913 c 1,4,5
 1379 897 1379 897 1375.5 860 c 128,-1,6
 1372 823 1372 823 1336 791 c 1,7,8
 1283 748 1283 748 1184 743 c 1,9,10
 1132 743 1132 743 1102.5 744.5 c 0,11,12
 1010.81 749.162 1010.81 749.162 887 781 c 1,13,14
 778.087 690.239 778.087 690.239 608 467 c 1,15,16
 619 465 619 465 640 465 c 0,17,18
 697 465 697 465 750 493 c 1,19,20
 758 499 758 499 762 490 c 128,-1,21
 766 481 766 481 758 478 c 1,22,23
 701 447 701 447 640 447 c 0,24,25
 617 447 617 447 596 450 c 1,26,27
 592 445 592 445 580.5 429.5 c 128,-1,28
 569 414 569 414 563.5 407 c 2,29,-1
 549.5 388.5 l 2,30,31
 541 377 541 377 466 276 c 128,-1,32
 391 175 391 175 357 134 c 0,33,34
 270 29 270 29 205 -10 c 1,35,36
 141 -46 141 -46 83.5 -39 c 0,37,38
 -29 -25.3043 -29 -25.3043 -29 75 c 0,39,40
 -29 93 -29 93 -24 118 c 1,41,42
 -21 127 -21 127 -12.5 125 c 128,-1,43
 -4 123 -4 123 -6 114 c 0,44,45
 -11 91 -11 91 -11 75 c 0,46,47
 -11 33 -11 33 13.5 8.5 c 128,-1,48
 38 -16 38 -16 80 -20 c 1,49,50
 138 -28 138 -28 190.5 3 c 128,-1,51
 243 34 243 34 292 87 c 0,52,53
 322 118 322 118 366 175 c 2,54,-1
 533 397 l 1,55,56
 482 380 482 380 441 380 c 128,-1,57
 400 380 400 380 374 384 c 128,-1,58
 348 388 348 388 322.5 405 c 128,-1,59
 297 422 297 422 301 450 c 0,60,61
 309 510 309 510 400 510 c 0,62,63
 450.176 510 450.176 510 497.088 495.5 c 0,64,65
 566.617 474.009 566.617 474.009 588 470 c 1,66,67
 685 597 685 597 757 678 c 1,68,69
 817 743 817 743 865 786 c 1,70,71
 756 815 756 815 639 858 c 0,72,73
 568 884 568 884 500.5 884 c 128,-1,74
 433 884 433 884 365 857.5 c 128,-1,75
 297 831 297 831 252 786 c 1,76,77
 244 780 244 780 238 786 c 128,-1,78
 232 792 232 792 238 798 c 0,79,80
 287 847 287 847 356 874.5 c 128,-1,81
 425 902 425 902 497.5 902 c 128,-1,82
 570 902 570 902 645 875 c 0,83,84
 773 828 773 828 882 800 c 1,0,1
551 421 m 1,85,86
 560 432 560 432 576 454 c 1,87,88
 562 457.5 562 457.5 518 469.75 c 128,-1,89
 474 482 474 482 452 487 c 128,-1,90
 430 492 430 492 400 492 c 0,91,92
 324 492 324 492 319 446 c 0,93,94
 317 427 317 427 339.5 415 c 0,95,96
 376.371 395.335 376.371 395.335 427 398 c 1,97,98
 455 398 455 398 496 406 c 128,-1,99
 537 414 537 414 551 421 c 1,85,86
1313 797 m 1,100,101
 1339 811 1339 811 1352 841.5 c 128,-1,102
 1365 872 1365 872 1344 899 c 1,103,104
 1316 928 1316 928 1226 930 c 1,105,106
 1064.96 930 1064.96 930 904 795 c 1,107,108
 1028.41 764.84 1028.41 764.84 1106.5 762 c 0,109,110
 1134 761 1134 761 1183 761 c 1,111,112
 1268 765 1268 765 1313 797 c 1,100,101
EndSplineSet
EndChar

StartChar: G
Encoding: 71 71 33
Width: 1008
Flags: MW
HStem: -460 20<394 437> -74 20<998 1000> -50 20<493 494 494 495>
LayerCount: 2
Fore
SplineSet
394 -460 m 1,0,1
 343 -458 343 -458 310 -433.5 c 128,-1,2
 277 -409 277 -409 275.5 -355.5 c 128,-1,3
 274 -302 274 -302 311.5 -251 c 128,-1,4
 349 -200 349 -200 405 -166.5 c 0,5,6
 537.074 -87.4915 537.074 -87.4915 745 -63.5 c 0,7,8
 758 -62 758 -62 764 -61 c 1,9,10
 802 24 802 24 845 151 c 1,11,12
 779 57 779 57 686 3.5 c 128,-1,13
 593 -50 593 -50 495 -50 c 2,14,-1
 494 -50 l 2,15,16
 411 -50 411 -50 356 -12 c 0,17,18
 283 37 283 37 268 145 c 128,-1,19
 253 253 253 253 318.5 385 c 128,-1,20
 384 517 384 517 502 641 c 0,21,22
 592 737 592 737 691 811 c 1,23,24
 673 834 673 834 658.5 867.5 c 128,-1,25
 644 901 644 901 644 927 c 1,26,27
 642 936 642 936 652 938 c 128,-1,28
 662 940 662 940 664 929 c 1,29,30
 664 879 664 879 707 822 c 1,31,-1
 745 849 l 1,32,33
 879 938 879 938 991 967 c 0,34,35
 1144 1007 1144 1007 1185 936 c 0,36,37
 1217 882 1217 882 1186 821 c 128,-1,38
 1155 760 1155 760 1101 727 c 0,39,40
 1004 667 1004 667 888.5 688.5 c 128,-1,41
 773 710 773 710 703 794 c 1,42,43
 603 720 603 720 516 627 c 0,44,45
 398 502 398 502 340 382 c 1,46,47
 274 251 274 251 287.5 150.5 c 128,-1,48
 301 50 301 50 367 4 c 0,49,50
 417 -30 417 -30 493 -30 c 2,51,-1
 495 -30 l 2,52,53
 589 -30 589 -30 682 24 c 0,54,55
 816 103 816 103 884 265 c 1,56,-1
 902 258 l 1,57,-1
 873 173 l 1,58,59
 827 30 827 30 787 -59 c 1,60,61
 892 -50 892 -50 998 -54 c 0,62,63
 1008 -54 1008 -54 1008 -64 c 128,-1,64
 1008 -74 1008 -74 997 -74 c 0,65,66
 884 -70 884 -70 777 -80 c 1,67,68
 690.175 -263.669 690.175 -263.669 613 -350 c 1,69,70
 512 -460 512 -460 394 -460 c 1,0,1
754 -83 m 1,71,72
 586.155 -101.491 586.155 -101.491 463.5 -158.5 c 0,73,74
 411.184 -182.816 411.184 -182.816 401 -193 c 1,75,76
 399 -193 399 -193 380.5 -207 c 128,-1,77
 362 -221 362 -221 337.5 -250.5 c 128,-1,78
 313 -280 313 -280 303 -310 c 1,79,80
 287 -370 287 -370 310 -405 c 128,-1,81
 333 -440 333 -440 394 -440 c 0,82,83
 480.179 -440 480.179 -440 545 -385 c 0,84,85
 578 -357 578 -357 602.5 -331.5 c 128,-1,86
 627 -306 627 -306 653 -264.5 c 0,87,88
 716.232 -163.573 716.232 -163.573 754 -83 c 1,71,72
719 806 m 1,89,90
 787 726 787 726 895 707.5 c 128,-1,91
 1003 689 1003 689 1090 743 c 0,92,93
 1138 773 1138 773 1166 826.5 c 128,-1,94
 1194 880 1194 880 1168 925 c 0,95,96
 1134 983 1134 983 995 947 c 1,97,98
 871 917 871 917 719 806 c 1,89,90
EndSplineSet
EndChar

StartChar: H
Encoding: 72 72 34
Width: 924
Flags: W
LayerCount: 2
Fore
SplineSet
80 -237 m 128,-1,1
 41 -227 41 -227 12 -190.5 c 128,-1,2
 -17 -154 -17 -154 -17 -94 c 0,3,4
 -17 4 -17 4 67 116 c 0,5,6
 182 268 182 268 422 384 c 1,7,-1
 494 604 l 1,8,9
 583.2 871.6 583.2 871.6 663 978 c 0,10,11
 666 982 666 982 667 984 c 1,12,-1
 642 994 l 1,13,14
 587 1020 587 1020 536 1078 c 0,15,16
 529 1085 529 1085 536 1091 c 128,-1,17
 543 1097 543 1097 549 1090 c 0,18,19
 612.836 1017.04 612.836 1017.04 679 999 c 1,20,21
 736 1073 736 1073 801 1097 c 0,22,23
 844 1113 844 1113 863.5 1100.5 c 128,-1,24
 883 1088 883 1088 885 1069.5 c 128,-1,25
 887 1051 887 1051 876.5 1035 c 128,-1,26
 866 1019 866 1019 828.5 996 c 128,-1,27
 791 973 791 973 735 973 c 0,28,29
 712 973 712 973 686 979 c 1,30,31
 684 976 684 976 680 970.5 c 0,32,33
 623.556 892.889 623.556 892.889 572.278 763.444 c 128,-1,34
 521 634 521 634 444 394 c 1,35,36
 521 429 521 429 625.5 467 c 128,-1,37
 730 505 730 505 822 550 c 1,38,39
 903.163 695.347 903.163 695.347 1000 826 c 0,40,41
 1001 827 1001 827 1005.5 833 c 128,-1,42
 1010 839 1010 839 1019 850 c 2,43,-1
 1037 871 l 1,44,45
 1123.88 970 1123.88 970 1188 970 c 0,46,47
 1221 970 1221 970 1242.5 948 c 128,-1,48
 1264 926 1264 926 1264 895 c 1,49,50
 1261 841 1261 841 1212 792 c 1,51,-1
 1194.5 775 l 1,52,53
 1111.73 696.584 1111.73 696.584 968 609 c 0,54,55
 904 570 904 570 835 536 c 1,56,57
 769 421 769 421 723 302 c 128,-1,58
 677 183 677 183 677 90 c 0,59,60
 677 32 677 32 698 -13 c 1,61,62
 724 -63 724 -63 759 -91 c 1,63,64
 795 -117 795 -117 854 -133 c 0,65,66
 862 -136 862 -136 860 -144.5 c 128,-1,67
 858 -153 858 -153 849 -151 c 0,68,69
 783 -132 783 -132 749 -105 c 1,70,71
 709 -76 709 -76 684 -25 c 128,-1,72
 659 26 659 26 659 90 c 0,73,74
 659 251.81 659 251.81 806 523 c 1,75,76
 732 487 732 487 635 452 c 128,-1,77
 538 417 538 417 437 371 c 1,78,-1
 354 110 l 1,79,80
 259.409 -159.221 259.409 -159.221 158 -225 c 1,81,0
 119 -247 119 -247 80 -237 c 128,-1,1
82 105 m 1,82,83
 1 -1 1 -1 1 -94 c 0,84,85
 1 -149 1 -149 27 -180 c 128,-1,86
 53 -211 53 -211 84.5 -219 c 128,-1,87
 116 -227 116 -227 139.5 -214.5 c 0,88,89
 195.413 -184.759 195.413 -184.759 248.707 -84.8795 c 128,-1,90
 302 15 302 15 337 116 c 1,91,-1
 415 360 l 1,92,93
 189 249 189 249 82 105 c 1,82,83
1188 952 m 0,94,95
 1142 950 1142 950 1082 891.5 c 128,-1,96
 1022 833 1022 833 984 772 c 1,97,-1
 908 658 l 1,98,99
 863 586 863 586 851 564 c 1,100,101
 950 615 950 615 1036.5 675 c 0,102,103
 1163.22 762.901 1163.22 762.901 1198 804 c 1,104,105
 1246 854 1246 854 1246 895 c 1,106,107
 1245 918 1245 918 1228 935 c 128,-1,108
 1211 952 1211 952 1188 952 c 0,94,95
698 994 m 1,109,110
 718 991 718 991 738.5 991 c 128,-1,111
 759 991 759 991 781 996.5 c 128,-1,112
 803 1002 803 1002 813.5 1008 c 2,113,-1
 824 1014 l 2,114,115
 851 1030 851 1030 862 1046 c 1,116,117
 869 1059 869 1059 866.5 1069 c 128,-1,118
 864 1079 864 1079 857 1083 c 0,119,120
 838 1093 838 1093 808 1081 c 1,121,122
 749 1055 749 1055 698 994 c 1,109,110
EndSplineSet
EndChar

StartChar: I
Encoding: 73 73 35
Width: 833
Flags: MW
HStem: -119 20<71.5 154 71.5 159.5> 751 20<1185 1185> 903 20<1187 1189>
LayerCount: 2
Fore
SplineSet
-25.5 -72 m 128,-1,1
 -58 -25 -58 -25 -43 48 c 0,2,3
 -41 58 -41 58 -31 56 c 128,-1,4
 -21 54 -21 54 -23 44 c 0,5,6
 -38 -19 -38 -19 -10 -59 c 128,-1,7
 18 -99 18 -99 89 -99 c 0,8,9
 136.444 -99 136.444 -99 196 -65.5 c 0,10,11
 260.899 -28.9941 260.899 -28.9941 365.5 103.5 c 1,12,-1
 427.5 183.5 l 1,13,-1
 708.5 567.5 l 2,14,15
 830.811 733.923 830.811 733.923 920 804 c 1,16,17
 776 856 776 856 686 826 c 0,18,19
 676 822 676 822 674 832 c 1,20,21
 671 841 671 841 680 845 c 0,22,23
 746.421 867.14 746.421 867.14 814 854 c 0,24,25
 874.429 842.25 874.429 842.25 938 820 c 1,26,27
 985 855 985 855 1022 875 c 0,28,29
 1103 917 1103 917 1187 923 c 1,30,31
 1237.31 923 1237.31 923 1259.01 916.838 c 128,-1,32
 1280.72 910.676 1280.72 910.676 1293 898 c 1,33,34
 1315 872 1315 872 1311 840.5 c 128,-1,35
 1307 809 1307 809 1284 786 c 0,36,37
 1249 751 1249 751 1189 751 c 2,38,-1
 1185 751 l 1,39,40
 1094 752 1094 752 942 797 c 1,41,42
 891 756 891 756 834.5 691.5 c 128,-1,43
 778 627 778 627 740.5 577 c 2,44,-1
 514 267 l 1,45,46
 405.941 121.635 405.941 121.635 359.971 64.8176 c 128,-1,47
 314 8 314 8 287 -17 c 128,-1,48
 260 -42 260 -42 224 -70 c 0,49,50
 161 -119 161 -119 84 -119 c 128,-1,0
 7 -119 7 -119 -25.5 -72 c 128,-1,1
962 812 m 1,51,52
 1096 772 1096 772 1185 771 c 0,53,54
 1239 770 1239 770 1269 800 c 0,55,56
 1287 817 1287 817 1290 841.5 c 128,-1,57
 1293 866 1293 866 1280 881 c 0,58,59
 1257.44 907.026 1257.44 907.026 1206 904 c 2,60,-1
 1189 903 l 2,61,62
 1070 895 1070 895 962 812 c 1,51,52
EndSplineSet
EndChar

StartChar: J
Encoding: 74 74 36
Width: 609
Flags: MW
HStem: 780 20G<1146 1146> 880 20G 958 20G<1209 1212.5 1209 1212.5 1209 1212.5>
LayerCount: 2
Fore
SplineSet
-547 -335 m 1,0,1
 -553 -291 -553 -291 -534 -247.5 c 128,-1,2
 -515 -204 -515 -204 -479 -170 c 0,3,4
 -405.896 -100.957 -405.896 -100.957 -328 -69 c 0,5,6
 -226.494 -26.8653 -226.494 -26.8653 -105 -8.5 c 0,7,8
 -62 -2 -62 -2 14.5 7.5 c 128,-1,9
 91 17 91 17 121 21 c 1,10,11
 281 200 281 200 440 417 c 1,12,13
 537 547 537 547 618.5 642.5 c 128,-1,14
 700 738 700 738 785 810 c 0,15,16
 811 832 811 832 825 842 c 1,17,18
 788 852 788 852 778 855 c 0,19,20
 626.234 896.952 626.234 896.952 500 874 c 0,21,22
 478 870 478 870 468 867 c 2,23,-1
 458 864 l 2,24,25
 448 862 448 862 444.5 871.5 c 128,-1,26
 441 881 441 881 451 883 c 1,27,28
 455.053 887.053 455.053 887.053 486.526 892.526 c 0,29,30
 630.901 917.635 630.901 917.635 783 874 c 1,31,-1
 845 857 l 1,32,33
 1026 987 1026 987 1210 978 c 1,34,35
 1237.47 978 1237.47 978 1267.74 966.5 c 128,-1,36
 1298 955 1298 955 1311 939 c 0,37,38
 1331 913 1331 913 1322 869 c 1,39,40
 1308.99 833.687 1308.99 833.687 1285.27 816.383 c 0,41,42
 1240.4 783.654 1240.4 783.654 1146 780 c 0,43,44
 1096 778 1096 778 1035.5 789 c 128,-1,45
 975 800 975 800 849 835 c 1,46,47
 751 763 751 763 658 657.5 c 128,-1,48
 565 552 565 552 434.5 375 c 128,-1,49
 304 198 304 198 150 24 c 1,50,51
 239 35 239 35 298 58.5 c 0,52,53
 375.335 89.3028 375.335 89.3028 419 181 c 0,54,55
 429 202 429 202 432 213.5 c 2,56,-1
 435 225 l 1,57,58
 439 235 439 235 448 232.5 c 0,59,60
 457.423 229.883 457.423 229.883 454.711 219.941 c 128,-1,61
 452 210 452 210 449 201 c 128,-1,62
 446 192 446 192 441.5 181.5 c 0,63,64
 429.875 154.375 429.875 154.375 410.438 124.688 c 128,-1,65
 391 95 391 95 361.5 71 c 128,-1,66
 332 47 332 47 295 34.5 c 0,67,68
 238.457 15.3976 238.457 15.3976 148.622 4.2396 c 0,69,70
 138 3 138 3 132 2 c 1,71,-1
 60.5 -74.5 l 2,72,73
 36 -101 36 -101 -14 -151 c 128,-1,74
 -64 -201 -64 -201 -97.5 -229.5 c 128,-1,75
 -131 -258 -131 -258 -181 -295.5 c 128,-1,76
 -231 -333 -231 -333 -271 -353 c 0,77,78
 -369 -402 -369 -402 -452.5 -401 c 128,-1,79
 -536 -400 -536 -400 -547 -335 c 1,0,1
101 -2 m 1,80,81
 -11.1311 -13.8033 -11.1311 -13.8033 -57.5656 -21.4016 c 2,82,-1
 -154 -38 l 2,83,84
 -244.748 -54.3346 -244.748 -54.3346 -323.874 -88.6673 c 128,-1,85
 -403 -123 -403 -123 -471.5 -191.5 c 128,-1,86
 -540 -260 -540 -260 -527 -332 c 1,87,88
 -513 -402 -513 -402 -385.525 -376.313 c 0,89,90
 -381 -375 -381 -375 -379 -375 c 0,91,92
 -223 -342 -223 -342 40 -67 c 1,93,-1
 101 -2 l 1,80,81
870 850 m 1,94,95
 989 818 989 818 1044.5 808 c 128,-1,96
 1100 798 1100 798 1160.5 801 c 128,-1,97
 1221 804 1221 804 1256 821 c 128,-1,98
 1291 838 1291 838 1303 873 c 1,99,100
 1311 907 1311 907 1296 926 c 0,101,102
 1271 958 1271 958 1209 958 c 1,103,104
 1036 966 1036 966 870 850 c 1,94,95
EndSplineSet
EndChar

StartChar: K
Encoding: 75 75 37
Width: 898
Flags: MW
HStem: 554 20G<301.5 323> 826 147
LayerCount: 2
Fore
SplineSet
642 873 m 1,0,1
 754.318 968.678 754.318 968.678 871 973 c 1,2,3
 924 973 924 973 943 942 c 0,4,5
 952 928 952 928 952.5 907.5 c 128,-1,6
 953 887 953 887 944 871 c 0,7,8
 915 820 915 820 819 826 c 0,9,10
 774 829 774 829 647 854 c 1,11,12
 616 828 616 828 569 780 c 1,13,14
 499 706 499 706 396 568 c 1,15,16
 419 557 419 557 432 547 c 0,17,18
 483 512 483 512 519 467 c 1,19,20
 717.519 501.904 717.519 501.904 979 722 c 1,21,-1
 1053 788 l 1,22,23
 1100 828 1100 828 1137.5 845 c 128,-1,24
 1175 862 1175 862 1212 847 c 0,25,26
 1233 839 1233 839 1245.5 819.5 c 128,-1,27
 1258 800 1258 800 1258 778.5 c 128,-1,28
 1258 757 1258 757 1250 737 c 0,29,30
 1247 730 1247 730 1239 732 c 0,31,32
 1232 734 1232 734 1234 744 c 1,33,34
 1240 762 1240 762 1240 776 c 0,35,36
 1240 814 1240 814 1205 831 c 1,37,38
 1173 842 1173 842 1136 825 c 1,39,40
 1110 811 1110 811 1090 795 c 128,-1,41
 1070 779 1070 779 1034 747.5 c 2,42,-1
 990 709 l 1,43,44
 742.989 495.419 742.989 495.419 532 451 c 1,45,46
 596 364.739 596 364.739 596 260 c 0,47,48
 596 213 596 213 585.5 151.5 c 128,-1,49
 575 90 575 90 575 67 c 0,50,51
 575 21 575 21 600 -3 c 128,-1,52
 625 -27 625 -27 657.5 -23.5 c 0,53,54
 718.017 -16.9828 718.017 -16.9828 770 35 c 1,55,56
 777 40 777 40 783 34 c 128,-1,57
 789 28 789 28 783 22 c 0,58,59
 727 -34 727 -34 655.5 -40.5 c 0,60,61
 617 -44 617 -44 589 -16 c 1,62,63
 557 13 557 13 557 67 c 0,64,65
 557 93 557 93 567.5 154.5 c 128,-1,66
 578 216 578 216 578 255 c 128,-1,67
 578 294 578 294 573 320 c 0,68,69
 561 383 561 383 512 447 c 1,70,71
 476 440 476 440 424 440 c 128,-1,72
 372 440 372 440 315 459 c 1,73,74
 312 454 312 454 216 325 c 128,-1,75
 120 196 120 196 92 162 c 0,76,77
 5 57 5 57 -61 19 c 1,78,79
 -110 -11 -110 -11 -164 -11 c 0,80,81
 -231.233 -11 -231.233 -11 -267 26 c 1,82,83
 -294 56 -294 56 -294 103 c 0,84,85
 -294 120 -294 120 -289 147 c 0,86,87
 -287 155 -287 155 -278 153 c 128,-1,88
 -269 151 -269 151 -271 143 c 0,89,90
 -276 126 -276 126 -276 95 c 128,-1,91
 -276 64 -276 64 -254 39 c 1,92,93
 -223.28 7 -223.28 7 -169.64 7 c 128,-1,94
 -116 7 -116 7 -69.75 34.75 c 128,-1,95
 -23.5 62.5 -23.5 62.5 32.25 121.75 c 128,-1,96
 88 181 88 181 239.114 385.683 c 0,97,98
 253 404 253 404 260 414 c 2,99,-1
 298 466 l 1,100,-1
 285 474.5 l 2,101,102
 254.331 494.435 254.331 494.435 247.5 512 c 0,103,104
 244 521 244 521 244 532 c 0,105,106
 244 558 244 558 264.5 574.5 c 128,-1,107
 285 591 285 591 315.5 591 c 128,-1,108
 346 591 346 591 379 576 c 1,109,110
 434 650 434 650 495.5 724.5 c 128,-1,111
 557 799 557 799 624 859 c 1,112,113
 504 883 504 883 391 908 c 128,-1,114
 278 933 278 933 228 933 c 128,-1,115
 178 933 178 933 149.5 915.5 c 128,-1,116
 121 898 121 898 122 869 c 1,117,118
 124 859 124 859 114 859 c 1,119,120
 106 857 106 857 104 867 c 0,121,122
 102 885 102 885 115 907.5 c 128,-1,123
 128 930 128 930 159.5 940.5 c 128,-1,124
 191 951 191 951 236 951 c 128,-1,125
 281 951 281 951 355 935 c 0,126,127
 553 891 553 891 592.5 883 c 2,128,-1
 642 873 l 1,0,1
717 905 m 0,129,130
 696 892 696 892 665 869 c 1,131,132
 783 846 783 846 821 844 c 0,133,134
 926.199 838.073 926.199 838.073 934.5 899.5 c 0,135,136
 937 918 937 918 926 935.5 c 128,-1,137
 915 953 915 953 871 955 c 1,138,139
 797 954 797 954 717 905 c 0,129,130
262 532 m 0,140,141
 262 502 262 502 309 481 c 1,142,-1
 368 561 l 1,143,144
 336 574 336 574 315 574 c 128,-1,145
 294 574 294 574 278 563 c 128,-1,146
 262 552 262 552 262 532 c 0,140,141
326 474 m 1,147,148
 377 458 377 458 419.5 458 c 128,-1,149
 462 458 462 458 499 463 c 1,150,151
 463 504 463 504 430.5 526 c 128,-1,152
 398 548 398 548 385 554 c 1,153,-1
 326 474 l 1,147,148
EndSplineSet
EndChar

StartChar: L
Encoding: 76 76 38
Width: 833
Flags: MW
HStem: -243 21G<700 750> -54 183<96 177.5> 781 152
LayerCount: 2
Fore
SplineSet
862 889 m 0,0,1
 928.5 889 928.5 889 1026 850 c 1,2,3
 1125.23 927.966 1125.23 927.966 1241 933 c 0,4,5
 1293 935 1293 935 1317 901 c 1,6,7
 1336 870 1336 870 1323 835 c 1,8,9
 1298.14 776.994 1298.14 776.994 1204 781 c 1,10,11
 1154 785 1154 785 1093 806 c 1,12,-1
 1029 830 l 1,13,14
 948.769 767.598 948.769 767.598 848 631 c 1,15,-1
 655 361 l 1,16,17
 540 207 540 207 466.5 131 c 128,-1,18
 393 55 393 55 334 13 c 1,19,20
 337 10 337 10 342.5 3.5 c 128,-1,21
 348 -3 348 -3 365.5 -22.5 c 128,-1,22
 383 -42 383 -42 403 -62 c 128,-1,23
 423 -82 423 -82 463.5 -114.5 c 128,-1,24
 504 -147 504 -147 549 -172 c 0,25,26
 644 -225 644 -225 727 -225 c 1,27,28
 810 -223 810 -223 841 -175 c 1,29,30
 870 -122 870 -122 832 -69 c 1,31,32
 815 -48 815 -48 807 -44 c 1,33,34
 801 -38 801 -38 806 -31 c 128,-1,35
 811.116 -23.8372 811.116 -23.8372 816.558 -27.9186 c 2,36,-1
 824.5 -34 l 2,37,38
 827 -36 827 -36 830 -39.5 c 2,39,-1
 837 -47.5 l 2,40,41
 841 -52 841 -52 845 -57 c 0,42,43
 891 -122 891 -122 856 -184 c 1,44,45
 818 -243 818 -243 728 -243 c 128,-1,46
 638 -243 638 -243 544 -190 c 128,-1,47
 450 -137 450 -137 375 -59 c 1,48,-1
 319 3 l 1,49,50
 307 -6 307 -6 273 -24 c 1,51,52
 211 -54 211 -54 165 -54 c 128,-1,53
 119 -54 119 -54 82.5 -41.5 c 128,-1,54
 46 -29 46 -29 25 1 c 128,-1,55
 4 31 4 31 16.5 65.5 c 0,56,57
 39.5072 129 39.5072 129 116 129 c 1,58,59
 206 126 206 126 281 66 c 1,60,-1
 322 26 l 1,61,62
 350 47 350 47 381 73 c 1,63,64
 492 171 492 171 641 372 c 1,65,-1
 743.5 515.5 l 1,66,67
 814 616 814 616 852 665 c 0,68,69
 937 777 937 777 1009 837 c 1,70,71
 965 853 965 853 935.5 862 c 128,-1,72
 906 871 906 871 876 871 c 128,-1,73
 846 871 846 871 830.5 869.5 c 128,-1,74
 815 868 815 868 802 865 c 128,-1,75
 789 862 789 862 777.5 858.5 c 128,-1,76
 766 855 766 855 757 852 c 128,-1,77
 748 849 748 849 741.5 846 c 2,78,-1
 727 839 l 1,79,80
 719 834 719 834 715 842 c 1,81,82
 709 850 709 850 718 854 c 1,83,84
 729.333 865.333 729.333 865.333 776.667 877.167 c 128,-1,85
 824 889 824 889 862 889 c 0,0,1
30 39 m 1,86,87
 35 -1 35 -1 74 -18.5 c 128,-1,88
 113 -36 113 -36 160 -36 c 0,89,90
 226.111 -36 226.111 -36 307 16 c 1,91,92
 282 41 282 41 269 52 c 0,93,94
 195 111 195 111 116 111 c 1,95,96
 79 110 79 110 54.5 91.5 c 128,-1,97
 30 73 30 73 30 39 c 1,86,87
1046 843 m 1,98,99
 1143.75 803.9 1143.75 803.9 1205 799 c 1,100,101
 1269 797 1269 797 1296.5 826 c 128,-1,102
 1324 855 1324 855 1302 891 c 1,103,104
 1283 915 1283 915 1242 915 c 1,105,106
 1159 912 1159 912 1077 864 c 1,107,-1
 1046 843 l 1,98,99
EndSplineSet
EndChar

StartChar: M
Encoding: 77 77 39
Width: 1191
Flags: MW
HStem: -199 21G<1122.5 1177> 903 20G<680 702>
LayerCount: 2
Fore
SplineSet
1018 -150 m 0,0,1
 996 -129 996 -129 982 -98 c 1,2,3
 964 -52 964 -52 964 11 c 1,4,5
 973 212 973 212 1095 487 c 0,6,7
 1183 685 1183 685 1277 821 c 1,8,9
 1322.5 899 1322.5 899 1267 899 c 0,10,11
 1235 899 1235 899 1198 884.5 c 128,-1,12
 1161 870 1161 870 1107 838 c 1,13,14
 1010 778 1010 778 896 672 c 1,15,16
 716 507 716 507 570 297 c 1,17,18
 558 197 558 197 562 95 c 1,19,20
 562 56 562 56 554 20.5 c 128,-1,21
 546 -15 546 -15 523.5 -34 c 128,-1,22
 501 -53 501 -53 475.5 -53 c 128,-1,23
 450 -53 450 -53 433 -38 c 1,24,25
 402 -7 402 -7 412 48 c 1,26,27
 418 93 418 93 469 172 c 1,28,29
 490 211 490 211 552 304 c 1,30,31
 569 436 569 436 608.5 554.5 c 128,-1,32
 648 673 648 673 712 820 c 0,33,34
 728 857 728 857 728 879 c 0,35,36
 727 905 727 905 702 905 c 0,37,38
 645 905 645 905 573 855 c 1,39,40
 507 812 507 812 419 717 c 128,-1,41
 331 622 331 622 123 343 c 0,42,43
 10 191 10 191 -79 99 c 1,44,45
 -247.317 -71 -247.317 -71 -388 -71 c 2,46,-1
 -400 -71 l 1,47,48
 -480 -67 -480 -67 -519 -19 c 1,49,50
 -554 22 -554 22 -554 83 c 128,-1,51
 -554 144 -554 144 -524 192 c 0,52,53
 -518 200 -518 200 -511 194 c 1,54,55
 -504 190 -504 190 -508 182 c 1,56,57
 -536 141 -536 141 -536 84.5 c 128,-1,58
 -536 28 -536 28 -505 -7 c 1,59,60
 -470 -49 -470 -49 -399 -53 c 1,61,-1
 -388 -53 l 2,62,63
 -276.96 -53 -276.96 -53 -154 53 c 0,64,65
 -46 145 -46 145 102.5 346 c 128,-1,66
 251 547 251 547 337 650 c 0,67,68
 467 806 467 806 563 870 c 1,69,70
 640 923 640 923 702 923 c 1,71,72
 746 922 746 922 746 879 c 0,73,74
 746 854 746 854 728 812 c 0,75,76
 669 675 669 675 631.5 565.5 c 128,-1,77
 594 456 594 456 575 336 c 1,78,79
 675 474 675 474 792.5 596 c 128,-1,80
 910 718 910 718 1013.5 795 c 128,-1,81
 1117 872 1117 872 1175.5 894.5 c 128,-1,82
 1234 917 1234 917 1267 917 c 1,83,84
 1299 915 1299 915 1310 899 c 0,85,86
 1330 868 1330 868 1292 811 c 0,87,88
 1196 671 1196 671 1112 479 c 1,89,90
 991 210 991 210 982 10 c 1,91,-1
 982 9 l 1,92,93
 980 -33 980 -33 990 -66 c 1,94,95
 1000 -107 1000 -107 1030 -137 c 1,96,97
 1078 -181 1078 -181 1145 -181 c 128,-1,98
 1212 -181 1212 -181 1261 -138 c 0,99,100
 1291 -112 1291 -112 1302 -91 c 0,101,102
 1306 -83 1306 -83 1315 -87.5 c 0,103,104
 1323.5 -91.75 1323.5 -91.75 1318.75 -98.875 c 2,105,-1
 1310.5 -111 l 2,106,107
 1296.39 -131.161 1296.39 -131.161 1276 -149 c 0,108,109
 1220 -199 1220 -199 1145 -199 c 128,-1,110
 1070 -199 1070 -199 1018 -150 c 0,0,1
444 -24 m 0,111,112
 456 -35 456 -35 475 -35 c 128,-1,113
 494 -35 494 -35 508.75 -22.5 c 0,114,115
 544 7.37288 544 7.37288 544 95 c 1,116,117
 542 170 542 170 548 265 c 1,118,119
 508 205 508 205 484 163 c 1,120,121
 437 89 437 89 429 46 c 1,122,123
 423 -3 423 -3 444 -24 c 0,111,112
EndSplineSet
EndChar

StartChar: N
Encoding: 78 78 40
Width: 921
Flags: MW
HStem: -64 21G<-204 -162.5> 793 159<1569 1579.5 1568 1588>
LayerCount: 2
Fore
SplineSet
-204 -64 m 1,0,1
 -284 -62 -284 -62 -321 -18.5 c 128,-1,2
 -358 25 -358 25 -358 89 c 128,-1,3
 -358 153 -358 153 -328 199 c 1,4,5
 -324 207 -324 207 -316.5 202 c 128,-1,6
 -309 197 -309 197 -313 189 c 1,7,8
 -342 147 -342 147 -340 89 c 1,9,10
 -340 48 -340 48 -324 16 c 1,11,12
 -287 -46 -287 -46 -204 -46 c 0,13,14
 -91 -46 -91 -46 30.5 54.5 c 128,-1,15
 152 155 152 155 302 357.5 c 128,-1,16
 452 560 452 560 533 657 c 0,17,18
 757 923 757 923 868 923 c 0,19,20
 910 923 910 923 910 889 c 0,21,22
 910 874 910 874 901.5 856.5 c 128,-1,23
 893 839 893 839 857 772 c 2,24,-1
 787.5 639 l 1,25,26
 602.584 274.687 602.584 274.687 594 65 c 0,27,28
 592 14 592 14 609 -3 c 1,29,30
 626 -17 626 -17 653 5 c 1,31,32
 666 17 666 17 683 41.5 c 128,-1,33
 700 66 700 66 744 148 c 0,34,35
 859 361 859 361 932 464.5 c 128,-1,36
 1005 568 1005 568 1064.5 635 c 128,-1,37
 1124 702 1124 702 1164.5 740 c 128,-1,38
 1205 778 1205 778 1247 809.5 c 128,-1,39
 1289 841 1289 841 1302 848.5 c 2,40,-1
 1327 863 l 2,41,42
 1334 868 1334 868 1366 886 c 1,43,44
 1359 893 1359 893 1357 897 c 0,45,46
 1331 933 1331 933 1319 970 c 1,47,48
 1318 977 1318 977 1325 980 c 0,49,50
 1334 983 1334 983 1337 975 c 0,51,52
 1359.83 917.174 1359.83 917.174 1382 895 c 1,53,54
 1391 899 1391 899 1405 906 c 0,55,56
 1499 951 1499 951 1568 952 c 1,57,58
 1649.9 952 1649.9 952 1670 899 c 0,59,60
 1681 870 1681 870 1668 843 c 0,61,62
 1643 793 1643 793 1569 793 c 1,63,64
 1448 796 1448 796 1378 872 c 1,65,-1
 1307 830 l 2,66,67
 1270 807 1270 807 1227 770 c 1,68,69
 1034.18 611.457 1034.18 611.457 863.5 324 c 0,70,71
 816 244 816 244 774.5 166.5 c 128,-1,72
 733 89 733 89 709 50 c 128,-1,73
 685 11 685 11 667 -6 c 0,74,75
 628.837 -42.0425 628.837 -42.0425 596 -15 c 1,76,77
 576 7 576 7 576 65 c 1,78,79
 583.451 277.353 583.451 277.353 771.5 648 c 1,80,-1
 882 858 l 2,81,82
 907 905 907 905 868 905 c 0,83,84
 781.588 905 781.588 905 621 730 c 0,85,86
 512 612 512 612 338 376.5 c 128,-1,87
 164 141 164 141 39.5 38.5 c 128,-1,88
 -85 -64 -85 -64 -204 -64 c 1,0,1
1569 811 m 0,89,90
 1626 811 1626 811 1646 842 c 0,91,92
 1659 862 1659 862 1653.5 887 c 128,-1,93
 1648 912 1648 912 1622 924 c 1,94,95
 1596 934 1596 934 1568 934 c 0,96,97
 1497.73 932.867 1497.73 932.867 1394 881 c 1,98,99
 1467 811 1467 811 1569 811 c 0,89,90
EndSplineSet
EndChar

StartChar: O
Encoding: 79 79 41
Width: 951
Flags: MW
HStem: 896 20G<823.5 836>
VStem: 1026 151<628.5 635 609.5 665>
LayerCount: 2
Fore
SplineSet
264 -35 m 1,0,1
 114 -24 114 -24 52 70 c 128,-1,2
 -10 164 -10 164 20 304 c 1,3,4
 73 498 73 498 232 660 c 1,5,6
 367 795 367 795 526 865 c 0,7,8
 621 906 621 906 711 906 c 0,9,10
 748 906 748 906 755 899 c 1,11,12
 796 916 796 916 843 915.5 c 128,-1,13
 890 915 890 915 934.5 891.5 c 128,-1,14
 979 868 979 868 1003 826 c 1,15,16
 1021 798 1021 798 1027 775.5 c 128,-1,17
 1033 753 1033 753 1033 750 c 1,18,19
 1115 740 1115 740 1146 702.5 c 128,-1,20
 1177 665 1177 665 1177 617 c 128,-1,21
 1177 569 1177 569 1148 532 c 1,22,23
 1104 473 1104 473 996 463 c 1,24,25
 929 316 929 316 794 190 c 1,26,27
 675 82 675 82 537.5 20.5 c 128,-1,28
 400 -41 400 -41 264 -35 c 1,0,1
265 -17 m 1,29,30
 535 -25 535 -25 781 203 c 0,31,32
 910 322 910 322 976 462 c 1,33,-1
 967 462 l 2,34,35
 899 462 899 462 826 487 c 128,-1,36
 753 512 753 512 710 552 c 0,37,38
 690 571 690 571 674 593 c 1,39,40
 628 545 628 545 598 487 c 0,41,42
 594 479 594 479 586.5 483.5 c 128,-1,43
 579 488 579 488 582 496 c 1,44,45
 615 557 615 557 663 609 c 1,46,47
 630 664 630 664 630 726 c 1,48,49
 634 835 634 835 730 888 c 1,50,-1
 711 888 l 1,51,52
 623 891 623 891 534 849 c 0,53,54
 372 774 372 774 245 647 c 1,55,56
 89 489 89 489 38 300 c 1,57,58
 9 163 9 163 69 76.5 c 128,-1,59
 129 -10 129 -10 265 -17 c 1,29,30
722 565 m 0,60,61
 761 529 761 529 830 504.5 c 128,-1,62
 899 480 899 480 967 480 c 0,63,64
 978 480 978 480 984 481 c 1,65,66
 1026 578 1026 578 1026 658 c 0,67,68
 1026 696 1026 696 1019 733 c 1,69,70
 906 736 906 736 808 689 c 0,71,72
 739 656 739 656 686 606 c 1,73,74
 702 584 702 584 722 565 c 0,60,61
1044 658 m 2,75,-1
 1044 657 l 1,76,77
 1040 574 1040 574 1004 482 c 1,78,79
 1040 484 1040 484 1077 500.5 c 128,-1,80
 1114 517 1114 517 1136.5 546.5 c 128,-1,81
 1159 576 1159 576 1159 621 c 1,82,83
 1157 663 1157 663 1136 689 c 1,84,85
 1102 723 1102 723 1037 732 c 1,86,87
 1044 695 1044 695 1044 658 c 2,75,-1
677 622 m 1,88,89
 813.898 751 813.898 751 1015 751 c 1,90,91
 1005 787 1005 787 985 821.5 c 128,-1,92
 965 856 965 856 924 877 c 128,-1,93
 883 898 883 898 836 898 c 1,94,95
 760 896 760 896 704 847.5 c 128,-1,96
 648 799 648 799 648 726 c 0,97,98
 648 670 648 670 677 622 c 1,88,89
EndSplineSet
EndChar

StartChar: P
Encoding: 80 80 42
Width: 1203
Flags: MW
VStem: 407 154<657.5 727>
LayerCount: 2
Fore
SplineSet
529 847 m 1,0,1
 561 802.2 561 802.2 561 718 c 0,2,3
 561 663 561 663 539 629.5 c 128,-1,4
 517 596 517 596 479 598.5 c 0,5,6
 407 603.237 407 603.237 407 680 c 0,7,8
 407 720 407 720 433.5 768 c 128,-1,9
 460 816 460 816 504 850 c 1,10,11
 467.23 892.898 467.23 892.898 396 916 c 1,12,13
 386 918 386 918 390 927 c 1,14,15
 393.4 942.3 393.4 942.3 443.2 916.65 c 128,-1,16
 493 891 493 891 518 861 c 1,17,-1
 519 861 l 1,18,19
 626 932 626 932 763 932 c 0,20,21
 874 932 874 932 988 897 c 1,22,23
 1044 913 1044 913 1101 913 c 0,24,25
 1247 913 1247 913 1290 818 c 1,26,27
 1295 811 1295 811 1286 806 c 1,28,29
 1277 803 1277 803 1274 811 c 0,30,31
 1254 856 1254 856 1206 876.5 c 128,-1,32
 1158 897 1158 897 1104.5 895 c 128,-1,33
 1051 893 1051 893 1018 886 c 1,34,35
 1021 885 1021 885 1027 882.5 c 128,-1,36
 1033 880 1033 880 1036 879 c 0,37,38
 1131 837 1131 837 1181 770 c 1,39,40
 1250 684 1250 684 1250 585.5 c 128,-1,41
 1250 487 1250 487 1196 407 c 128,-1,42
 1142 327 1142 327 1055 279.5 c 128,-1,43
 968 232 968 232 875 239 c 0,44,45
 755.15 248.021 755.15 248.021 659 341.5 c 0,46,47
 641 359 641 359 633 369 c 2,48,-1
 625 379 l 2,49,50
 619 386 619 386 626 392 c 128,-1,51
 633 398 633 398 640.5 388 c 0,52,53
 660.722 361.037 660.722 361.037 709 323 c 1,54,55
 783 267 783 267 869 258.5 c 128,-1,56
 955 250 955 250 1044 295 c 1,57,58
 1126 339 1126 339 1179 415 c 128,-1,59
 1232 491 1232 491 1232 581 c 0,60,61
 1232 641 1232 641 1203 703 c 1,62,63
 1143.77 823.733 1143.77 823.733 987 878 c 1,64,65
 881.125 849.125 881.125 849.125 780.062 748.062 c 128,-1,66
 679 647 679 647 526 404 c 1,67,-1
 472.5 314.5 l 1,68,-1
 372 134 l 1,69,70
 288 -11 288 -11 233.5 -59.5 c 128,-1,71
 179 -108 179 -108 122.5 -115.5 c 128,-1,72
 66 -123 66 -123 26.5 -99 c 128,-1,73
 -13 -75 -13 -75 -26 -29 c 0,74,75
 -28 -21 -28 -21 -19 -19 c 1,76,77
 -10 -15 -10 -15 -8 -25 c 0,78,79
 1 -65 1 -65 35.5 -84.5 c 128,-1,80
 70 -104 70 -104 119.5 -98 c 0,81,82
 212.624 -86.7122 212.624 -86.7122 311 67 c 0,83,84
 339 111 339 111 403.5 228.5 c 128,-1,85
 468 346 468 346 511 413 c 0,86,87
 623 592 623 592 697 683 c 0,88,89
 826.746 840.124 826.746 840.124 958 887 c 1,90,91
 921 901 921 901 860.5 908.5 c 128,-1,92
 800 916 800 916 763 914 c 1,93,94
 635 914 635 914 529 847 c 1,0,1
534 660 m 0,95,96
 543 683 543 683 543 713.5 c 128,-1,97
 543 744 543 744 538 777 c 128,-1,98
 533 810 533 810 515 836 c 1,99,100
 472 802 472 802 448.5 758.5 c 128,-1,101
 425 715 425 715 425 680 c 0,102,103
 425 622 425 622 474 617 c 1,104,105
 517 614 517 614 534 660 c 0,95,96
EndSplineSet
EndChar

StartChar: Q
Encoding: 81 81 43
Width: 1004
Flags: MW
HStem: -324 220<859 923> 861 20G<625 743>
VStem: 776 206<388.5 606.5>
LayerCount: 2
Fore
SplineSet
874 -324 m 0,0,1
 812.508 -323.788 812.508 -323.788 752 -298 c 1,2,3
 663 -258 663 -258 602 -180 c 128,-1,4
 541 -102 541 -102 471 -42 c 1,5,6
 394 -74 394 -74 333.5 -85.5 c 128,-1,7
 273 -97 273 -97 202 -95 c 1,8,9
 69 -88 69 -88 35 -26 c 1,10,11
 20 5 20 5 33 38 c 0,12,13
 60 104 60 104 153 103.5 c 128,-1,14
 246 103 246 103 332 66 c 0,15,16
 342 62 342 62 348.5 59 c 2,17,-1
 365 51 l 2,18,19
 415.4 25.8 415.4 25.8 473 -21 c 1,20,21
 602 35 602 35 714 139 c 128,-1,22
 826 243 826 243 892.5 361 c 128,-1,23
 959 479 959 479 964 589 c 1,24,25
 964 741.765 964 741.765 880 806 c 0,26,27
 807 863 807 863 702 863 c 1,28,29
 587 860 587 860 473.5 800 c 128,-1,30
 360 740 360 740 283.5 646 c 128,-1,31
 207 552 207 552 193 426 c 1,32,33
 186 310 186 310 265.5 233.5 c 128,-1,34
 345 157 345 157 463 157 c 0,35,36
 494 157 494 157 527 163 c 0,37,38
 648 186 648 186 712 257.5 c 128,-1,39
 776 329 776 329 776 415 c 0,40,41
 776 454 776 454 759.5 498 c 128,-1,42
 743 542 743 542 701 571 c 1,43,44
 664 594 664 594 610.5 594.5 c 128,-1,45
 557 595 557 595 502 559 c 0,46,47
 494 553 494 553 490 561 c 1,48,49
 484 568 484 568 492 574 c 0,50,51
 549 612 549 612 609 612 c 128,-1,52
 669 612 669 612 711 586 c 1,53,54
 756 555 756 555 775 506.5 c 128,-1,55
 794 458 794 458 794 415 c 0,56,57
 794 322 794 322 725.5 245.5 c 128,-1,58
 657 169 657 169 530 145 c 0,59,60
 496 139 496 139 463 139 c 0,61,62
 338 139 338 139 253 221 c 1,63,64
 166 310 166 310 175 428 c 1,65,66
 189 560 189 560 272 661 c 1,67,68
 351 755 351 755 470.5 818 c 128,-1,69
 590 881 590 881 698.5 881 c 128,-1,70
 807 881 807 881 891 821 c 1,71,72
 982 750.222 982 750.222 982 588 c 1,73,74
 976 474 976 474 908.5 353 c 128,-1,75
 841 232 841 232 730.5 128.5 c 128,-1,76
 620 25 620 25 489 -34 c 1,77,78
 555 -89 555 -89 615.5 -167 c 128,-1,79
 676 -245 676 -245 758 -281 c 0,80,81
 817 -306 817 -306 874 -306 c 1,82,83
 961 -304 961 -304 999 -255 c 1,84,85
 1013 -234 1013 -234 1014 -206.5 c 128,-1,86
 1015 -179 1015 -179 1003 -158 c 0,87,88
 981 -122 981 -122 923 -122 c 1,89,90
 890 -124 890 -124 867 -129 c 1,91,92
 860 -133 860 -133 856 -123 c 1,93,94
 854 -114 854 -114 862 -112 c 0,95,96
 890 -104 890 -104 923 -104 c 0,97,98
 994 -106 994 -106 1018 -149 c 1,99,100
 1032 -171 1032 -171 1031.5 -206.5 c 128,-1,101
 1031 -242 1031 -242 1013 -266 c 0,102,103
 970 -324 970 -324 874 -324 c 0,0,1
455 -29 m 1,104,105
 310.185 86 310.185 86 156 86 c 1,106,107
 76 84 76 84 51 32 c 1,108,109
 40 6 40 6 51 -17 c 1,110,111
 64 -40 64 -40 92.5 -53.5 c 128,-1,112
 121 -67 121 -67 143.5 -70.5 c 128,-1,113
 166 -74 166 -74 201 -77 c 0,114,115
 319 -85 319 -85 455 -29 c 1,104,105
EndSplineSet
EndChar

StartChar: R
Encoding: 82 82 44
Width: 1154
Flags: MW
HStem: -154 21G<-4.5 50> 878 20G
VStem: 336 155<645 706>
LayerCount: 2
Fore
SplineSet
448 826 m 1,0,1
 554.129 896 554.129 896 693 896 c 0,2,3
 803 896 803 896 919 862 c 1,4,5
 976 878 976 878 1031 877 c 0,6,7
 1179 875 1179 875 1220 783 c 0,8,9
 1223 775 1223 775 1216 771 c 1,10,11
 1208 768 1208 768 1204 775 c 0,12,13
 1167 859 1167 859 1031 859 c 0,14,15
 991 859 991 859 949 851 c 1,16,17
 950.333 850.741 950.333 850.741 952 850 c 0,18,19
 1038 816 1038 816 1092 754 c 0,20,21
 1164 672 1164 672 1164 576.5 c 128,-1,22
 1164 481 1164 481 1134 436 c 1,23,24
 1086 344 1086 344 985 290.5 c 128,-1,25
 884 237 884 237 772 237 c 0,26,27
 757 237 757 237 729 239 c 1,28,29
 744 170 744 170 726 59 c 0,30,31
 726 58 726 58 722.5 40.5 c 128,-1,32
 719 23 719 23 718.5 18 c 128,-1,33
 718 13 718 13 716 -2 c 128,-1,34
 714 -17 714 -17 714.5 -25 c 0,35,36
 716.105 -50.6846 716.105 -50.6846 722.553 -69.8423 c 128,-1,37
 729 -89 729 -89 748 -103.5 c 128,-1,38
 767 -118 767 -118 792 -118 c 0,39,40
 848 -118 848 -118 911 -59 c 0,41,42
 916 -54 916 -54 923 -60 c 128,-1,43
 930 -66 930 -66 923 -73 c 0,44,45
 860 -136 860 -136 792 -136 c 0,46,47
 764 -136 764 -136 739 -119 c 128,-1,48
 714 -102 714 -102 704 -73 c 0,49,50
 689 -33 689 -33 708 62 c 1,51,52
 724 169 724 169 710 241 c 1,53,54
 643 249 643 249 584.5 268 c 128,-1,55
 526 287 526 287 499 301 c 128,-1,56
 472 315 472 315 437 338 c 1,57,58
 418 307 418 307 301 98 c 0,59,60
 221 -43 221 -43 158.5 -98.5 c 128,-1,61
 96 -154 96 -154 22 -154 c 0,62,63
 -20 -154 -20 -154 -53.5 -130 c 128,-1,64
 -87 -106 -87 -106 -96 -65 c 0,65,66
 -98 -56 -98 -56 -89 -54 c 128,-1,67
 -80 -52 -80 -52 -78 -61 c 0,68,69
 -71 -95 -71 -95 -43 -115.5 c 128,-1,70
 -15 -136 -15 -136 22 -136 c 0,71,72
 89 -136 89 -136 148 -83 c 1,73,74
 192 -46 192 -46 240 32 c 1,75,76
 269 77 269 77 329 185.5 c 128,-1,77
 389 294 389 294 423 349 c 1,78,79
 385 378 385 378 385.5 423 c 128,-1,80
 386 468 386 468 423.5 483 c 128,-1,81
 461 498 461 498 509 484 c 1,82,83
 571 579 571 579 627 647 c 0,84,85
 735 780 735 780 847 835 c 1,86,87
 870 845 870 845 888 852 c 1,88,89
 792 878 792 878 693 878 c 0,90,91
 652 878 652 878 602 868 c 0,92,93
 519 853 519 853 459 811 c 1,94,95
 491 762 491 762 491 682 c 0,96,97
 491 637 491 637 471 600 c 128,-1,98
 451 563 451 563 413 563 c 128,-1,99
 375 563 375 563 355 586 c 128,-1,100
 335 609 335 609 335.5 646 c 128,-1,101
 336 683 336 683 363.5 732 c 128,-1,102
 391 781 391 781 433 815 c 1,103,104
 393.195 859.78 393.195 859.78 326 881 c 0,105,106
 317 883 317 883 319 891.5 c 128,-1,107
 321 900 321 900 330 898 c 1,108,109
 339 898 339 898 378.5 879 c 128,-1,110
 418 860 418 860 448 825 c 1,111,-1
 448 826 l 1,0,1
473 682 m 1,112,113
 473 755 473 755 444 800 c 1,114,115
 405 770 405 770 379.5 724 c 128,-1,116
 354 678 354 678 354 647 c 128,-1,117
 354 616 354 616 368.5 599 c 128,-1,118
 383 582 383 582 412 581 c 0,119,120
 465.987 579.138 465.987 579.138 473 682 c 1,112,113
436.5 469.5 m 128,-1,122
 402 459 402 459 402 422.5 c 128,-1,123
 402 386 402 386 432 364 c 1,124,125
 456 406 456 406 499 468 c 1,126,121
 471 480 471 480 436.5 469.5 c 128,-1,122
447 353 m 1,127,128
 563 277 563 277 704 259 c 1,129,130
 685 314 685 314 644 362 c 128,-1,131
 603 410 603 410 562 437 c 1,132,133
 543 452 543 452 516 462 c 1,134,-1
 447 353 l 1,127,128
1114 692 m 0,135,136
 1057.89 796.371 1057.89 796.371 918 843 c 1,137,138
 893 836 893 836 855 819 c 1,139,140
 779 780 779 780 707 710 c 1,141,142
 626 629 626 629 526 478 c 1,143,144
 596.83 447.205 596.83 447.205 651.415 382.102 c 128,-1,145
 706 317 706 317 724 257 c 1,146,147
 756 255 756 255 772 255 c 0,148,149
 878 255 878 255 968 302 c 1,150,151
 1148.47 399.824 1148.47 399.824 1146 566.5 c 0,152,153
 1145 634 1145 634 1114 692 c 0,135,136
EndSplineSet
EndChar

StartChar: S
Encoding: 83 83 45
Width: 942
Flags: MW
HStem: -93 21G<183.5 287.5> 1010 20G<884 937>
VStem: 665 23
LayerCount: 2
Fore
SplineSet
-2 -19 m 1,0,-1
 -17 -6 l 1,1,2
 -77 -40 -77 -40 -155 -40 c 0,3,4
 -190 -40 -190 -40 -222 -33 c 0,5,6
 -231 -31 -231 -31 -229 -22 c 128,-1,7
 -227 -13 -227 -13 -219 -15 c 0,8,9
 -187 -22 -187 -22 -155 -22 c 0,10,11
 -91 -22 -91 -22 -31 7 c 1,12,13
 -91 71 -91 71 -99.5 155.5 c 128,-1,14
 -108 240 -108 240 -68 312 c 0,15,16
 -21 396 -21 396 57 396 c 1,17,18
 109 393 109 393 138 360 c 128,-1,19
 167 327 167 327 167 277 c 1,20,21
 164 180 164 180 101 97 c 0,22,23
 56 38 56 38 -1 4 c 1,24,25
 1 2 1 2 4.5 -0.5 c 128,-1,26
 8 -3 8 -3 10 -5 c 0,27,28
 101 -75 101 -75 226 -75 c 0,29,30
 308 -75 308 -75 377 -52 c 128,-1,31
 446 -29 446 -29 489 4 c 1,32,33
 583 73 583 73 625 179 c 1,34,35
 656 262 656 262 665 390 c 0,36,37
 667 418 667 418 670.5 513.5 c 128,-1,38
 674 609 674 609 680 661 c 1,39,40
 586 661 586 661 524 708 c 0,41,42
 516 714 516 714 522 721 c 0,43,44
 529 728 529 728 535 722 c 1,45,46
 591 679 591 679 682 679 c 1,47,48
 694 772 694 772 722 843 c 1,49,50
 801 1030 801 1030 937 1030 c 1,51,52
 1011 1028 1011 1028 1034 977 c 0,53,54
 1066 903 1066 903 1010.5 821.5 c 0,55,56
 955 740 955 740 870.5 702 c 0,57,58
 786 664 786 664 698 661 c 1,59,60
 692 608 692 608 687.028 470.294 c 0,61,62
 682.056 332.588 682.056 332.588 670.53 273.946 c 0,63,64
 659.005 215.305 659.005 215.305 642 173 c 0,65,66
 600 62 600 62 500 -12 c 0,67,68
 454 -46 454 -46 382.5 -69.5 c 128,-1,69
 311 -93 311 -93 226 -93 c 0,70,71
 94 -93 94 -93 -2 -19 c 1,0,-1
-52 305 m 1,72,73
 -89 231 -89 231 -80.5 152 c 128,-1,74
 -72 73 -72 73 -15 16 c 1,75,76
 28 42 28 42 52 68 c 0,77,78
 148 167 148 167 148 278 c 1,79,80
 147 321 147 321 123 349.5 c 128,-1,81
 99 378 99 378 57 378 c 1,82,83
 -14 371 -14 371 -52 305 c 1,72,73
738 836 m 0,84,85
 712 771 712 771 700 679 c 1,86,87
 781 682 781 682 855 716 c 1,88,89
 945 761 945 761 991 827 c 0,90,91
 1014 860 1014 860 1021.5 897 c 128,-1,92
 1029 934 1029 934 1017 965 c 0,93,94
 1000 1012 1000 1012 937 1012 c 1,95,96
 806 1006 806 1006 738 836 c 0,84,85
EndSplineSet
EndChar

StartChar: T
Encoding: 84 84 46
Width: 805
Flags: MW
HStem: -99 21G<9 26 26 26> 683 206<1087.5 1109>
LayerCount: 2
Fore
SplineSet
-77 -62 m 0,0,1
 -104 -32 -104 -32 -104 15 c 0,2,3
 -104 33 -104 33 -99 58 c 0,4,5
 -97 67 -97 67 -88 65 c 128,-1,6
 -79 63 -79 63 -81 55 c 0,7,8
 -86 30 -86 30 -86 15 c 0,9,10
 -86 -25 -86 -25 -64 -50 c 1,11,12
 -30 -81 -30 -81 26 -81 c 1,13,14
 117 -78 117 -78 216 27 c 0,15,16
 278 93 278 93 429.114 297.683 c 0,17,18
 443 316 443 316 450 326 c 0,19,20
 592 519 592 519 681 618 c 0,21,22
 729 672 729 672 790 726 c 1,23,24
 681 755 681 755 564 798 c 0,25,26
 493 824 493 824 411 824 c 0,27,28
 296 824 296 824 203.5 750 c 1,29,-1
 190 739 l 2,30,31
 184 734 184 734 180.5 730.5 c 128,-1,32
 177 727 177 727 176 727 c 0,33,34
 170 721 170 721 163 726 c 1,35,36
 157 732 157 732 163 739 c 0,37,38
 187 765 187 765 232 791 c 0,39,40
 318 842 318 842 422 842 c 0,41,42
 497 842 497 842 570 815 c 0,43,44
 697 769 697 769 807 741 c 1,45,46
 986 889 986 889 1151 889 c 1,47,48
 1183 888 1183 888 1201 886.5 c 128,-1,49
 1219 885 1219 885 1242 876 c 128,-1,50
 1265 867 1265 867 1279 851 c 1,51,52
 1301 821 1301 821 1294 787.5 c 128,-1,53
 1287 754 1287 754 1260 732 c 0,54,55
 1201 683 1201 683 1082.5 683 c 128,-1,56
 964 683 964 683 811 721 c 1,57,-1
 778 691 l 2,58,59
 725 642 725 642 663 569 c 128,-1,60
 601 496 601 496 567.5 452.5 c 2,61,-1
 464 315 l 1,62,63
 310 108 310 108 274 65 c 128,-1,64
 238 22 238 22 208 -9 c 128,-1,65
 178 -40 178 -40 127 -69.5 c 128,-1,66
 76 -99 76 -99 26 -99 c 0,67,68
 -45 -99 -45 -99 -77 -62 c 0,0,1
828 735 m 1,69,70
 969 701 969 701 1080.5 700.5 c 128,-1,71
 1192 700 1192 700 1246 744 c 0,72,73
 1271 765 1271 765 1276.5 790.5 c 128,-1,74
 1282 816 1282 816 1265 840 c 1,75,76
 1238 869 1238 869 1151 871 c 1,77,78
 994 869 994 869 828 735 c 1,69,70
EndSplineSet
EndChar

StartChar: U
Encoding: 85 85 47
Width: 902
Flags: MW
HStem: 906 20G<-23 28>
LayerCount: 2
Fore
SplineSet
732 843 m 0,0,1
 732 757.538 732 757.538 505 775 c 1,2,3
 229.418 550.452 229.418 550.452 109 311 c 0,4,5
 55 204 55 204 55 114 c 128,-1,6
 55 24 55 24 119 -30 c 1,7,8
 176 -76 176 -76 252 -76 c 0,9,10
 370 -77 370 -77 459 -7.5 c 128,-1,11
 548 62 548 62 601 177 c 1,12,13
 644 279 644 279 697 366.5 c 128,-1,14
 750 454 750 454 776 488 c 0,15,16
 834 565 834 565 900.5 628 c 128,-1,17
 967 691 967 691 1018.5 726 c 128,-1,18
 1070 761 1070 761 1116 784.5 c 0,19,20
 1193.32 824 1193.32 824 1210 824 c 1,21,22
 1219 828 1219 828 1221 818.5 c 128,-1,23
 1223 809 1223 809 1216 807.5 c 128,-1,24
 1209 806 1209 806 1195 800.5 c 128,-1,25
 1181 795 1181 795 1155.5 784.5 c 128,-1,26
 1130 774 1130 774 1080 744 c 0,27,28
 916 645 916 645 790 478 c 0,29,30
 749 424 749 424 685 308 c 128,-1,31
 621 192 621 192 587 91 c 0,32,33
 519 -110 519 -110 605 -147 c 0,34,35
 655 -168 655 -168 700 -140.5 c 128,-1,36
 745 -113 745 -113 769.5 -59.5 c 128,-1,37
 794 -6 794 -6 794 49 c 0,38,39
 794 57 794 57 802 59 c 1,40,41
 810 59 810 59 812 51 c 1,42,43
 812 9 812 9 797 -35.5 c 128,-1,44
 782 -80 782 -80 754.5 -116 c 128,-1,45
 727 -152 727 -152 687 -166.5 c 128,-1,46
 647 -181 647 -181 597 -163 c 1,47,48
 501 -126 501 -126 563 78 c 1,49,50
 502 -5 502 -5 429 -49.5 c 128,-1,51
 356 -94 356 -94 262.5 -94 c 128,-1,52
 169 -94 169 -94 108 -44 c 0,53,54
 37 13 37 13 37 110.5 c 128,-1,55
 37 208 37 208 93 319 c 0,56,57
 179 491 179 491 343 655 c 1,58,59
 404 714 404 714 480 778 c 1,60,61
 400 788 400 788 317 820 c 1,62,-1
 238 852.5 l 2,63,64
 169 881 169 881 118 894.5 c 128,-1,65
 67 908 67 908 5 908 c 0,66,67
 -95 908 -95 908 -131 863 c 0,68,69
 -149 841 -149 841 -151 811 c 128,-1,70
 -153 781 -153 781 -135 756 c 1,71,72
 -104 719 -104 719 -40 714 c 0,73,74
 -31 713 -31 713 -31 703.5 c 128,-1,75
 -31 694 -31 694 -45 695.5 c 128,-1,76
 -59 697 -59 697 -93 707.5 c 128,-1,77
 -127 718 -127 718 -149 744.5 c 128,-1,78
 -171 771 -171 771 -170 808.5 c 128,-1,79
 -169 846 -169 846 -145 875 c 0,80,81
 -104 926 -104 926 5 926 c 0,82,83
 72 926 72 926 123.5 912 c 128,-1,84
 175 898 175 898 241 870.5 c 128,-1,85
 307 843 307 843 324 837 c 0,86,87
 409 803 409 803 499 794 c 1,88,-1
 533.5 824 l 2,89,90
 562 849 562 849 575.5 859 c 128,-1,91
 589 869 589 869 614.5 881.5 c 128,-1,92
 640 894 640 894 666.5 896 c 128,-1,93
 693 898 693 898 712.5 885 c 128,-1,94
 732 872 732 872 732 843 c 0,0,1
664 878 m 0,95,96
 629.44 876.08 629.44 876.08 592 848 c 0,97,98
 580 839 580 839 555.5 818 c 2,99,-1
 525 792 l 1,100,101
 584 786 584 786 649 795 c 128,-1,102
 714 804 714 804 714 842.5 c 128,-1,103
 714 881 714 881 664 878 c 0,95,96
EndSplineSet
EndChar

StartChar: V
Encoding: 86 86 48
Width: 1149
Flags: MW
HStem: -144 142<-107 -12.5> 913 20G<1161.5 1164>
LayerCount: 2
Fore
SplineSet
-87 -144 m 0,0,1
 -120 -144 -120 -144 -143 -129.5 c 128,-1,2
 -166 -115 -166 -115 -167 -87 c 0,3,4
 -167 -59 -167 -59 -141 -36 c 1,5,6
 -97 -2 -97 -2 -26 -2 c 0,7,8
 11 -2 11 -2 62 -10 c 1,9,10
 62 -9 62 -9 63 -8 c 0,11,12
 95 79 95 79 161.5 205 c 128,-1,13
 228 331 228 331 299 430 c 1,14,15
 431 609 431 609 524 698 c 0,16,17
 554 726 554 726 587 753 c 1,18,19
 492.581 765.262 492.581 765.262 366 820 c 0,20,21
 285.148 854.963 285.148 854.963 230.574 868.981 c 128,-1,22
 176 883 176 883 122 883 c 128,-1,23
 68 883 68 883 34 873 c 1,24,25
 -32 848 -32 848 -40 799 c 1,26,27
 -45 758 -45 758 -29.5 737 c 128,-1,28
 -14 716 -14 716 15 702.5 c 128,-1,29
 44 689 44 689 69 689 c 1,30,31
 78 688 78 688 78 679.5 c 0,32,33
 78 664.364 78 664.364 28 678 c 1,34,35
 -18 693 -18 693 -39 719 c 1,36,37
 -66 755 -66 755 -58 802 c 1,38,39
 -34.6 901 -34.6 901 114 901 c 0,40,41
 181 901 181 901 228 888 c 128,-1,42
 275 875 275 875 305.5 863.5 c 128,-1,43
 336 852 336 852 373 836.5 c 2,44,-1
 433 812 l 1,45,46
 524 777 524 777 607 769 c 1,47,-1
 681 828 l 2,48,49
 731 868 731 868 766.5 870.5 c 128,-1,50
 802 873 802 873 821 861 c 128,-1,51
 840 849 840 849 840 825 c 1,52,53
 843 786 843 786 808 767 c 1,54,55
 768 748 768 748 673 748 c 0,56,57
 642 748 642 748 612 751 c 1,58,59
 557 705 557 705 536 685 c 0,60,61
 440 592 440 592 314 419 c 0,62,63
 244 322 244 322 177.5 197 c 128,-1,64
 111 72 111 72 80 -13 c 1,65,66
 255 -48 255 -48 392 -48 c 0,67,68
 608 -48 608 -48 786 99 c 0,69,70
 1078 342 1078 342 1154 925 c 1,71,72
 1154 933 1154 933 1164 933 c 1,73,74
 1172 931 1172 931 1172 923 c 1,75,76
 1096 334 1096 334 797 85 c 0,77,78
 615 -66 615 -66 392 -66 c 1,79,80
 234 -62 234 -62 72 -30 c 1,81,82
 50 -77 50 -77 14.5 -109.5 c 128,-1,83
 -21 -142 -21 -142 -87 -144 c 0,0,1
-129 -50 m 0,84,85
 -149 -67 -149 -67 -148.5 -87 c 128,-1,86
 -148 -107 -148 -107 -129 -117 c 128,-1,87
 -110 -127 -110 -127 -87 -127 c 1,88,89
 -30 -124 -30 -124 5 -94 c 0,90,91
 28 -73 28 -73 54 -27 c 1,92,93
 3 -20 3 -20 -26 -20 c 0,94,95
 -92 -20 -92 -20 -129 -50 c 0,84,85
673 766 m 0,96,97
 771 766 771 766 799 783 c 1,98,99
 825 797 825 797 821.5 826.5 c 128,-1,100
 818 856 818 856 776.5 852.5 c 128,-1,101
 735 849 735 849 693 814 c 1,102,-1
 633 767 l 1,103,104
 646 766 646 766 673 766 c 0,96,97
EndSplineSet
EndChar

StartChar: W
Encoding: 87 87 49
Width: 1560
Flags: MW
HStem: 878 20G<169 217.5>
LayerCount: 2
Fore
SplineSet
1073 764 m 1,0,-1
 1071 739 l 1,1,2
 1033 488 1033 488 937 319 c 1,3,4
 920.162 164.655 920.162 164.655 888.581 83.3277 c 128,-1,5
 857 2 857 2 805 -74 c 1,6,7
 829 -76 829 -76 847 -76 c 0,8,9
 919 -76 919 -76 990 -59 c 128,-1,10
 1061 -42 1061 -42 1147 16 c 128,-1,11
 1233 74 1233 74 1306 170 c 0,12,13
 1492 415 1492 415 1503 808 c 0,14,15
 1503 817 1503 817 1512 817 c 128,-1,16
 1521 817 1521 817 1521 807 c 0,17,18
 1512 412 1512 412 1320 159 c 0,19,20
 1245 61 1245 61 1157 1.5 c 128,-1,21
 1069 -58 1069 -58 994.5 -76 c 128,-1,22
 920 -94 920 -94 867 -94 c 128,-1,23
 814 -94 814 -94 794 -91 c 1,24,25
 749 -152 749 -152 709 -170 c 1,26,27
 651.333 -198.833 651.333 -198.833 614 -175.5 c 0,28,29
 594 -163 594 -163 593 -133.5 c 0,30,31
 591.226 -81.1728 591.226 -81.1728 674 -69 c 0,32,33
 722 -62 722 -62 785 -72 c 1,34,-1
 801 -48 l 2,35,36
 843 16 843 16 872 91 c 1,37,38
 895.625 147.7 895.625 147.7 914 280 c 1,39,40
 838 159 838 159 728 81 c 0,41,42
 563 -36 563 -36 366 -36 c 1,43,44
 291 -34 291 -34 158 -23 c 1,45,46
 136 -78 136 -78 98 -109 c 128,-1,47
 60 -140 60 -140 13.5 -147 c 128,-1,48
 -33 -154 -33 -154 -65 -131 c 1,49,50
 -89 -111 -89 -111 -85.5 -84.5 c 128,-1,51
 -82 -58 -82 -58 -58 -38 c 128,-1,52
 -34 -18 -34 -18 3.5 -8.5 c 128,-1,53
 41 1 41 1 75.5 -0.5 c 128,-1,54
 110 -2 110 -2 146 -4 c 1,55,56
 179 84 179 84 244.5 207 c 128,-1,57
 310 330 310 330 380 426 c 0,58,59
 507 602 507 602 605 695 c 0,60,61
 635 723 635 723 668 750 c 1,62,63
 589 760 589 760 507 792 c 0,64,65
 491 798 491 798 424.5 825.5 c 128,-1,66
 358 853 358 853 307.5 866.5 c 128,-1,67
 257 880 257 880 195 880 c 1,68,69
 95 878 95 878 59 834 c 1,70,71
 41 810 41 810 40 781 c 128,-1,72
 39 752 39 752 53.5 730 c 128,-1,73
 68 708 68 708 98.5 697 c 128,-1,74
 129 686 129 686 150 686 c 0,75,76
 159 686 159 686 157.5 677 c 128,-1,77
 156 668 156 668 145.5 668 c 128,-1,78
 135 668 135 668 109 675 c 1,79,80
 60 691 60 691 41 715 c 1,81,82
 19 745 19 745 21 781.5 c 128,-1,83
 23 818 23 818 45 847 c 1,84,85
 90 898 90 898 195 898 c 0,86,87
 262 898 262 898 313 884 c 128,-1,88
 364 870 364 870 432 842 c 128,-1,89
 500 814 500 814 513 809 c 0,90,91
 597 775 597 775 687 766 c 1,92,93
 696 773 696 773 724 796.5 c 128,-1,94
 752 820 752 820 766.5 830.5 c 0,95,96
 813.446 864.495 813.446 864.495 856.223 868.748 c 128,-1,97
 899 873 899 873 915 842 c 1,98,99
 936 793 936 793 888 764 c 1,100,101
 851 745 851 745 754 745 c 0,102,103
 722 745 722 745 693 748 c 1,104,105
 638 702 638 702 617 682 c 0,106,107
 521 591 521 591 394 416 c 0,108,109
 326 321 326 321 261 200.5 c 128,-1,110
 196 80 196 80 164 -5 c 1,111,112
 314 -18 314 -18 366 -18 c 0,113,114
 557 -18 557 -18 717 95 c 0,115,116
 838 181 838 181 920 324 c 1,117,118
 920 330 920 330 923.5 357 c 128,-1,119
 927 384 927 384 948 598 c 1,120,121
 958 720 958 720 1003 783 c 0,122,123
 1021 809 1021 809 1046 808 c 0,124,125
 1073 806 1073 806 1073 764 c 1,0,-1
648 -167.5 m 0,126,127
 719.863 -165.105 719.863 -165.105 774 -88 c 1,128,129
 681.446 -73.4817 681.446 -73.4817 631.5 -101.5 c 0,130,131
 611 -113 611 -113 611.5 -132.5 c 0,132,133
 612.428 -168.686 612.428 -168.686 648 -167.5 c 0,126,127
-48 -53 m 0,134,135
 -63 -66 -63 -66 -66 -84.5 c 128,-1,136
 -69 -103 -69 -103 -56 -116 c 1,137,138
 -26 -136 -26 -136 14 -129 c 128,-1,139
 54 -122 54 -122 85 -97 c 1,140,141
 115 -76 115 -76 139 -22 c 1,142,143
 4 -6 4 -6 -48 -53 c 0,134,135
1054 749 m 1,144,145
 1058 790 1058 790 1046 791.5 c 128,-1,146
 1034 793 1034 793 1024.5 782 c 128,-1,147
 1015 771 1015 771 1003 745 c 0,148,149
 976 691 976 691 966 596 c 0,150,151
 950 433 950 433 943 368 c 1,152,153
 1023 529 1023 529 1054 749 c 1,144,145
754 762 m 0,154,155
 848 762 848 762 875.5 778 c 128,-1,156
 903 794 903 794 903 815 c 1,157,158
 900 852 900 852 854 850 c 1,159,160
 821.03 844.182 821.03 844.182 798.015 828.591 c 128,-1,161
 775 813 775 813 765 805.5 c 128,-1,162
 755 798 755 798 737.5 783.5 c 2,163,-1
 714 764 l 1,164,165
 740 762 740 762 754 762 c 0,154,155
EndSplineSet
EndChar

StartChar: X
Encoding: 88 88 50
Width: 973
Flags: MW
HStem: -103 21G<643.5 706> 883 20G<426.5 477.5>
LayerCount: 2
Fore
SplineSet
466 903 m 0,0,1
 706.324 903 706.324 903 712 693 c 1,2,3
 710 609 710 609 659 487 c 1,4,5
 831.438 720.814 831.438 720.814 1038 814 c 0,6,7
 1108 845 1108 845 1179.5 845 c 128,-1,8
 1251 845 1251 845 1296.5 812.5 c 128,-1,9
 1342 780 1342 780 1342 711 c 1,10,-1
 1340 685 l 1,11,12
 1338 676 1338 676 1329 678 c 0,13,14
 1321 680 1321 680 1322.5 690.5 c 128,-1,15
 1324 701 1324 701 1324 711 c 0,16,17
 1324 768 1324 768 1284 797.5 c 128,-1,18
 1244 827 1244 827 1178 827 c 128,-1,19
 1112 827 1112 827 1045 797 c 0,20,21
 918 742 918 742 801 625 c 1,22,23
 572.354 388.732 572.354 388.732 512 150 c 1,24,25
 501 113 501 113 508 58 c 128,-1,26
 515 3 515 3 544 -30 c 0,27,28
 594 -85 594 -85 670 -85 c 0,29,30
 719 -85 719 -85 764 -61 c 0,31,32
 838.984 -21.0084 838.984 -21.0084 845.5 65 c 0,33,34
 848 98 848 98 834.5 129 c 128,-1,35
 821 160 821 160 790 170 c 1,36,37
 762 181 762 181 727 172.5 c 128,-1,38
 692 164 692 164 670 137 c 0,39,40
 664 129 664 129 657 135 c 0,41,42
 651 141 651 141 656 148 c 0,43,44
 679 178 679 178 718 189.5 c 128,-1,45
 757 201 757 201 793.5 188 c 128,-1,46
 830 175 830 175 847 141.5 c 128,-1,47
 864 108 864 108 863 70 c 128,-1,48
 862 32 862 32 847 -1 c 1,49,50
 824 -48 824 -48 774.5 -75.5 c 128,-1,51
 725 -103 725 -103 670 -103 c 0,52,53
 586 -103 586 -103 530 -40.5 c 128,-1,54
 474 22 474 22 494 154 c 1,55,56
 506 203 506 203 533 269 c 1,57,58
 469.497 182.102 469.497 182.102 424 138.5 c 1,59,-1
 396.5 113 l 2,60,61
 358.378 78.5676 358.378 78.5676 313 47 c 0,62,63
 144 -69 144 -69 -14 -69 c 128,-1,64
 -172 -69 -172 -69 -245 9 c 1,65,66
 -292 61 -292 61 -285 135.5 c 128,-1,67
 -278 210 -278 210 -229 260 c 0,68,69
 -139 353 -139 353 32 346 c 0,70,71
 41 346 41 346 39.5 337.5 c 128,-1,72
 38 329 38 329 31 329 c 0,73,74
 -200.722 329 -200.722 329 -254.5 182.5 c 0,75,76
 -269 143 -269 143 -265.5 98.5 c 128,-1,77
 -262 54 -262 54 -234 24 c 0,78,79
 -162 -51 -162 -51 -13 -51 c 128,-1,80
 136 -51 136 -51 295 57 c 0,81,82
 384 118 384 118 434 175 c 0,83,84
 535 293 535 293 612 432.5 c 128,-1,85
 689 572 689 572 694 693 c 0,86,87
 697 752 697 752 665 804 c 1,88,89
 611.885 885 611.885 885 466 885 c 0,90,91
 360 885 360 885 295.5 832.5 c 128,-1,92
 231 780 231 780 213.5 704.5 c 128,-1,93
 196 629 196 629 223.5 581 c 128,-1,94
 251 533 251 533 303.5 515 c 128,-1,95
 356 497 356 497 406 516 c 1,96,97
 475 538 475 538 491 620 c 0,98,99
 493 629 493 629 501.5 627 c 128,-1,100
 510 625 510 625 508 617 c 0,101,102
 496 544 496 544 439 511.5 c 128,-1,103
 382 479 382 479 314 495 c 128,-1,104
 246 511 246 511 211.5 567.5 c 128,-1,105
 177 624 177 624 196 707.5 c 128,-1,106
 215 791 215 791 284 847 c 128,-1,107
 353 903 353 903 466 903 c 0,0,1
EndSplineSet
EndChar

StartChar: Y
Encoding: 89 89 51
Width: 921
Flags: MW
HStem: -203 21G<250.5 343>
LayerCount: 2
Fore
SplineSet
1371 863 m 1,0,1
 1373 855 1373 855 1366 853 c 128,-1,2
 1359 851 1359 851 1347 848 c 128,-1,3
 1335 845 1335 845 1309 837 c 128,-1,4
 1283 829 1283 829 1232 800 c 0,5,6
 1073 710 1073 710 940 524 c 1,7,-1
 832 369 l 1,8,9
 810 333 810 333 738.5 228 c 128,-1,10
 667 123 667 123 573 -30 c 1,11,12
 521 -109 521 -109 446 -156 c 128,-1,13
 371 -203 371 -203 276.5 -203 c 128,-1,14
 182 -203 182 -203 108 -159 c 1,15,16
 62 -130 62 -130 33 -83 c 1,17,18
 -22.7692 -138.769 -22.7692 -138.769 -72 -148 c 0,19,20
 -82 -150 -82 -150 -82 -141 c 1,21,22
 -84 -132 -84 -132 -75 -130 c 0,23,24
 -34 -122 -34 -122 10 -80 c 1,25,-1
 24 -66 l 1,26,27
 1 -18 1 -18 1 31 c 128,-1,28
 1 80 1 80 20 113 c 1,29,30
 41 146 41 146 67.5 146 c 128,-1,31
 94 146 94 146 107.5 126 c 128,-1,32
 121 106 121 106 120 77 c 1,33,34
 120 11 120 11 46 -69 c 1,35,36
 70 -114 70 -114 117 -143 c 1,37,38
 188 -185 188 -185 275.5 -185 c 128,-1,39
 363 -185 363 -185 436 -141 c 128,-1,40
 509 -97 509 -97 558 -21 c 2,41,-1
 691 190 l 1,42,43
 679 178 679 178 673 173 c 0,44,45
 579 93 579 93 476 93 c 0,46,47
 419 93 419 93 372 113 c 1,48,49
 271 159.893 271 159.893 271 270 c 0,50,51
 271 354 271 354 333 471.5 c 128,-1,52
 395 589 395 589 468 671 c 128,-1,53
 541 753 541 753 628 824 c 1,54,55
 554 834 554 834 467 865 c 1,56,-1
 407 890.5 l 2,57,58
 334.367 922.038 334.367 922.038 282 937 c 1,59,60
 156 970 156 970 75 943 c 0,61,62
 42 933 42 933 20.5 908 c 128,-1,63
 -1 883 -1 883 -1 849 c 0,64,65
 -1 780 -1 780 110 759 c 1,66,67
 119 759 119 759 119 750 c 1,68,69
 117 741 117 741 109 741 c 1,70,71
 99 743 99 743 88.5 744.5 c 0,72,73
 39.121 751.554 39.121 751.554 10.0605 781.777 c 128,-1,74
 -19 812 -19 812 -19 849 c 0,75,76
 -19 917 -19 917 45 951 c 1,77,78
 132 993 132 993 287 954 c 1,79,80
 337.577 940.048 337.577 940.048 394.289 915.524 c 2,81,-1
 473 882 l 1,82,83
 562 849 562 849 648 840 c 1,84,85
 651 842 651 842 668 857 c 128,-1,86
 685 872 685 872 691 876.5 c 128,-1,87
 697 881 697 881 712.5 893.5 c 128,-1,88
 728 906 728 906 737.5 911.5 c 2,89,-1
 761 924.5 l 2,90,91
 785.387 937.565 785.387 937.565 815.194 941.782 c 128,-1,92
 845 946 845 946 864.5 927 c 128,-1,93
 884 908 884 908 880 881 c 128,-1,94
 876 854 876 854 846.5 836 c 128,-1,95
 817 818 817 818 754 816.5 c 128,-1,96
 691 815 691 815 653 821 c 1,97,98
 562 748 562 748 488 666 c 128,-1,99
 414 584 414 584 351.5 468 c 128,-1,100
 289 352 289 352 289 270 c 0,101,102
 289 187.393 289 187.393 350 146 c 0,103,104
 400 111 400 111 476 111 c 0,105,106
 572 111 572 111 661 187 c 0,107,108
 716 235 716 235 772 311 c 1,109,-1
 925 534 l 1,110,111
 985 619 985 619 1052.5 685 c 128,-1,112
 1120 751 1120 751 1170.5 784.5 c 128,-1,113
 1221 818 1221 818 1268 839 c 0,114,115
 1337.38 870 1337.38 870 1361 870 c 1,116,117
 1371 872 1371 872 1371 863 c 1,0,1
742.5 892 m 0,118,119
 730 883 730 883 706.5 864 c 2,120,-1
 674 838 l 1,121,122
 794 827 794 827 839 853 c 0,123,124
 870 870 870 870 860 899 c 128,-1,125
 850 928 850 928 816.004 924.223 c 128,-1,126
 782.007 920.445 782.007 920.445 742.5 892 c 0,118,119
94.5 111.5 m 128,-1,128
 87 128 87 128 69 128 c 128,-1,129
 51 128 51 128 36 105 c 128,-1,130
 21 82 21 82 20 34 c 128,-1,131
 19 -14 19 -14 38 -52 c 1,132,133
 102 21 102 21 102 77 c 0,134,127
 102 95 102 95 94.5 111.5 c 128,-1,128
EndSplineSet
EndChar

StartChar: Z
Encoding: 90 90 52
Width: 1164
Flags: MW
HStem: -95 21G<853 932.5> 728 176
LayerCount: 2
Fore
SplineSet
874 762 m 1,0,1
 949 834 949 834 1031 867 c 128,-1,2
 1113 900 1113 900 1174.42 900 c 128,-1,3
 1235.85 900 1235.85 900 1256 855.5 c 0,4,5
 1268 829 1268 829 1257.5 805.5 c 0,6,7
 1222.87 728 1222.87 728 1053 728 c 0,8,9
 967 728 967 728 880 743 c 1,10,11
 835 696.5 835 696.5 799.5 651.75 c 128,-1,12
 764 607 764 607 713.5 537.5 c 2,13,-1
 653 454 l 1,14,-1
 861 434 l 2,15,16
 870 434 870 434 870 424 c 1,17,18
 868 416 868 416 861 416 c 2,19,-1
 860 416 l 1,20,-1
 640 437 l 1,21,22
 614 403 614 403 601 388 c 0,23,24
 427.069 186.064 427.069 186.064 307 76 c 1,25,26
 358 62 358 62 464 23 c 0,27,28
 735.795 -77 735.795 -77 898 -77 c 0,29,30
 1030 -77 1030 -77 1066 -9 c 0,31,32
 1087 30 1087 30 1076 97 c 0,33,34
 1074 105 1074 105 1082.5 107 c 128,-1,35
 1091 109 1091 109 1093 100 c 0,36,37
 1109 33 1109 33 1082 -18 c 0,38,39
 1042 -95 1042 -95 898 -95 c 0,40,41
 786 -95 786 -95 624 -49 c 0,42,43
 570 -34 570 -34 460 6 c 128,-1,44
 350 46 350 46 292 62 c 1,45,46
 216 -6 216 -6 158 -39.5 c 128,-1,47
 100 -73 100 -73 26.5 -73 c 128,-1,48
 -47 -73 -47 -73 -72 -30 c 1,49,50
 -86 -8 -86 -8 -85 20.5 c 128,-1,51
 -84 49 -84 49 -70 73 c 1,52,53
 -22 147 -22 147 154 114 c 0,54,55
 221 101 221 101 287 82 c 1,56,57
 409.773 192.073 409.773 192.073 587 400 c 0,58,59
 596 410 596 410 619 439 c 1,60,-1
 450 454 l 1,61,62
 440 456 440 456 442 464 c 1,63,64
 442 474 442 474 452 472 c 1,65,-1
 632 456 l 1,66,-1
 698 546.5 l 2,67,68
 749 617 749 617 785.5 663.5 c 128,-1,69
 822 710 822 710 858 746 c 1,70,71
 625.119 780.053 625.119 780.053 441.5 855 c 1,72,-1
 402.5 870.5 l 2,73,74
 361.636 886 361.636 886 325 886 c 0,75,76
 262 886 262 886 233 831 c 0,77,78
 217 802 217 802 217 763 c 0,79,80
 217 702.7 217 702.7 250 640 c 1,81,82
 256 632 256 632 247 628 c 1,83,84
 239 622 239 622 233 634 c 0,85,86
 199 702 199 702 199 753 c 128,-1,87
 199 804 199 804 217 839 c 1,88,89
 253 904 253 904 325 904 c 0,90,91
 360 904 360 904 388.5 894.5 c 128,-1,92
 417 885 417 885 446.5 873 c 0,93,94
 635.679 796.046 635.679 796.046 874 762 c 1,0,1
151 -23 m 1,95,96
 198 3 198 3 271 68 c 1,97,98
 203 86 203 86 150 96 c 0,99,100
 -27 131 -27 131 -62 49 c 1,101,102
 -74 11 -74 11 -57 -21 c 1,103,104
 -31 -55 -31 -55 28.5 -55 c 128,-1,105
 88 -55 88 -55 151 -23 c 1,95,96
1053 746 m 0,106,107
 1208.5 746 1208.5 746 1240 809 c 1,108,109
 1248 829 1248 829 1240.5 847 c 0,110,111
 1225.92 882 1225.92 882 1170.46 882 c 128,-1,112
 1115 882 1115 882 1039.5 851.5 c 128,-1,113
 964 821 964 821 897 758 c 1,114,115
 961 746 961 746 1053 746 c 0,106,107
EndSplineSet
EndChar

StartChar: one
Encoding: 49 49 53
Width: 567
Flags: MW
HStem: 964 20G<793 793>
LayerCount: 2
Fore
SplineSet
87 -8 m 0,0,1
 79 -3 79 -3 84 6 c 0,2,3
 333 377 333 377 727 897 c 1,4,5
 586.377 795.567 586.377 795.567 385 751 c 0,6,7
 243 719 243 719 133 719 c 0,8,9
 123 719 123 719 123 729 c 128,-1,10
 123 739 123 739 133 739 c 0,11,12
 240 739 240 739 381 770 c 0,13,14
 655 831 655 831 793 984 c 1,15,-1
 808 972 l 2,16,17
 808 971 808 971 782.5 937.5 c 2,18,-1
 614 713.5 l 1,19,-1
 492 548 l 1,20,-1
 360 365.5 l 1,21,-1
 225.5 175.5 l 1,22,-1
 101 -6 l 2,23,24
 96 -13 96 -13 87 -8 c 0,0,1
EndSplineSet
EndChar

StartChar: two
Encoding: 50 50 54
Width: 806
Flags: MW
HStem: -41 21G<614 632> 41 20G
LayerCount: 2
Fore
SplineSet
614 -41 m 1,0,1
 584 -39 584 -39 505.5 -1 c 128,-1,2
 427 37 427 37 363 41 c 128,-1,3
 299 45 299 45 171 1 c 1,4,5
 117 -16 117 -16 104 -19 c 0,6,7
 58 -30 58 -30 47.5 -13 c 128,-1,8
 37 4 37 4 61 36 c 0,9,10
 148.6 150.714 148.6 150.714 310 266 c 1,11,-1
 452 364.5 l 1,12,-1
 605 463 l 1,13,14
 753 556 753 556 796 588 c 0,15,16
 872 645 872 645 907 717 c 128,-1,17
 942 789 942 789 925 851 c 1,18,19
 898 943 898 943 783 956 c 1,20,21
 686 965 686 965 590 917 c 128,-1,22
 494 869 494 869 445 777 c 0,23,24
 425 741 425 741 437 710.5 c 128,-1,25
 449 680 449 680 495 673 c 0,26,27
 579.708 659.496 579.708 659.496 634.5 783.5 c 0,28,29
 644 805 644 805 647.5 817.5 c 2,30,-1
 651 830 l 1,31,32
 653 841 653 841 663 837 c 1,33,34
 673 835 673 835 670 825 c 1,35,36
 670 816.947 670 816.947 656.5 784.974 c 0,37,38
 593.379 635.478 593.379 635.478 492 653 c 0,39,40
 453 659 453 659 432 682 c 0,41,42
 396.369 721.025 396.369 721.025 427 787 c 1,43,44
 482 887 482 887 579.5 936.5 c 128,-1,45
 677 986 677 986 785 975 c 0,46,47
 842 969 842 969 886 938.5 c 128,-1,48
 930 908 930 908 944 857 c 0,49,50
 965 779 965 779 922.5 702.5 c 128,-1,51
 880 626 880 626 817.5 579.5 c 128,-1,52
 755 533 755 533 637.5 459 c 2,53,-1
 463.5 348 l 1,54,55
 276.932 225.822 276.932 225.822 178 135 c 0,56,57
 117 79 117 79 77 24 c 0,58,59
 60 2 60 2 63 -2 c 0,60,61
 67 -10 67 -10 87.5 -3.5 c 2,62,-1
 130.5 9.5 l 2,63,64
 153 16 153 16 165 20 c 0,65,66
 298 65 298 65 366 60.5 c 128,-1,67
 434 56 434 56 534 8 c 0,68,69
 604.192 -25.6923 604.192 -25.6923 630 -21 c 0,70,71
 658.368 -15.8421 658.368 -15.8421 680 13 c 1,72,73
 688 20 688 20 694 14 c 1,74,75
 702 9 702 9 696 0 c 1,76,77
 662 -41 662 -41 614 -41 c 1,0,1
EndSplineSet
EndChar

StartChar: three
Encoding: 51 51 55
Width: 833
Flags: MW
HStem: -87 21G<238 259 259 259>
LayerCount: 2
Fore
SplineSet
143 -68 m 1,0,1
 69 -42 69 -42 42 19 c 1,2,3
 24 57 24 57 26 104 c 128,-1,4
 28 151 28 151 45 190 c 1,5,6
 68 249 68 249 130 290 c 1,7,8
 138.6 298.6 138.6 298.6 163.8 302.8 c 0,9,10
 229.637 313.773 229.637 313.773 257 251 c 1,11,12
 281.11 191.529 281.11 191.529 233.5 148 c 0,13,14
 187.558 105.996 187.558 105.996 177 125 c 0,15,16
 173 134 173 134 183 138 c 0,17,18
 227 156 227 156 241 190 c 0,19,20
 251 214 251 214 238 244.5 c 128,-1,21
 225 275 225 275 205.5 280.5 c 0,22,23
 174.37 289.28 174.37 289.28 149.5 277.5 c 2,24,-1
 140 273 l 2,25,26
 138 273 138 273 125 263.5 c 128,-1,27
 112 254 112 254 93 231.5 c 128,-1,28
 74 209 74 209 63 182 c 0,29,30
 28 96 28 96 60 27 c 0,31,32
 85 -27 85 -27 150 -49 c 1,33,34
 274 -93 274 -93 422 -35 c 0,35,36
 589 31 589 31 683 195 c 0,37,38
 763 336 763 336 724 465 c 1,39,40
 710 507 710 507 685 541 c 1,41,-1
 674 541 l 1,42,43
 583 530 583 530 521 562 c 1,44,45
 477.601 585.87 477.601 585.87 483.8 618.935 c 128,-1,46
 490 652 490 652 535 655 c 0,47,48
 597 660 597 660 646 618 c 0,49,50
 668 600 668 600 682 577 c 1,51,52
 689 570 689 570 694 563 c 1,53,54
 714 566 714 566 739 576 c 0,55,56
 813 604 813 604 868 677 c 1,57,58
 897 718 897 718 903.5 766.5 c 128,-1,59
 910 815 910 815 891 858 c 0,60,61
 858 930 858 930 776 939 c 0,62,63
 726 944 726 944 683 930.5 c 128,-1,64
 640 917 640 917 622.5 903.5 c 128,-1,65
 605 890 605 890 596 879.5 c 128,-1,66
 587 869 587 869 579 875 c 1,67,68
 572 882 572 882 578 889 c 0,69,70
 606 921 606 921 652 942 c 1,71,72
 711 965 711 965 768.5 959 c 0,73,74
 873.523 948.041 873.523 948.041 909 866 c 0,75,76
 930 819 930 819 923 764 c 128,-1,77
 916 709 916 709 884 665 c 0,78,79
 815.731 573.189 815.731 573.189 707 545 c 1,80,81
 730 510 730 510 743 471 c 1,82,83
 762 407 762 407 755 347 c 1,84,85
 747 265 747 265 698.75 181.5 c 0,86,87
 602.67 15.2277 602.67 15.2277 429 -53 c 1,88,89
 346.267 -87 346.267 -87 270.133 -87 c 128,-1,90
 194 -87 194 -87 143 -68 c 1,0,1
666 566 m 1,91,92
 617.7 635 617.7 635 548 635 c 2,93,-1
 537 635 l 1,94,95
 507 632 507 632 504 616 c 0,96,97
 499 596 499 596 530 580 c 0,98,99
 581 553 581 553 670 560 c 1,100,-1
 666 564 l 1,101,-1
 666 566 l 1,91,92
EndSplineSet
EndChar

StartChar: four
Encoding: 52 52 56
Width: 822
Flags: MW
HStem: -25 21G<298 299 299 299> 409 20<409 409> 944 20G<1053 1053>
LayerCount: 2
Fore
SplineSet
307 -21 m 2,0,1
 304 -25 304 -25 300.5 -25 c 128,-1,2
 297 -25 297 -25 293 -23 c 1,3,4
 286 -16 286 -16 291 -9 c 2,5,-1
 605 392 l 1,6,7
 526 407 526 407 453.5 408 c 128,-1,8
 381 409 381 409 354.5 409 c 128,-1,9
 328 409 328 409 302 407.5 c 128,-1,10
 276 406 276 406 252.5 404.5 c 2,11,-1
 207.5 401.5 l 2,12,13
 173.415 399.122 173.415 399.122 146.707 395.561 c 128,-1,14
 120 392 120 392 110 391 c 128,-1,15
 100 390 100 390 88 388 c 1,16,-1
 84 408 l 1,17,18
 342 475 342 475 722 726 c 1,19,-1
 889 841 l 1,20,-1
 1011 931 l 2,21,22
 1050 961 1050 961 1053 964 c 1,23,-1
 1067 950 l 1,24,-1
 640 405 l 1,25,26
 643 404 643 404 648.5 402.5 c 0,27,28
 784.284 365.468 784.284 365.468 824 291 c 0,29,30
 829 282 829 282 820 276.5 c 128,-1,31
 811 271 811 271 807 281 c 1,32,33
 771 348 771 348 652 381 c 1,34,-1
 627 387 l 1,35,-1
 307 -21 l 2,0,1
190 420 m 1,36,37
 298 430 298 430 409.5 430 c 128,-1,38
 521 430 521 430 619 409 c 1,39,-1
 1002 899 l 1,40,41
 878 804 878 804 723.5 702.5 c 128,-1,42
 569 601 569 601 433 529.5 c 128,-1,43
 297 458 297 458 190 420 c 1,36,37
EndSplineSet
EndChar

StartChar: five
Encoding: 53 53 57
Width: 857
Flags: MW
HStem: -54 20<241.5 264 264 264>
LayerCount: 2
Fore
SplineSet
264 -54 m 0,0,1
 184 -54 184 -54 110 -9 c 1,2,3
 92.1311 -1.85246 92.1311 -1.85246 72.5656 29.0738 c 0,4,5
 0.307453 143.288 0.307453 143.288 145 292 c 0,6,7
 152 299 152 299 159 292 c 128,-1,8
 166 285 166 285 159 278 c 0,9,10
 36.5252 150.675 36.5252 150.675 76.5 61.5 c 0,11,12
 90.0353 31.3059 90.0353 31.3059 120 8 c 1,13,14
 190 -34 190 -34 264 -34 c 0,15,16
 388 -34 388 -34 508 79 c 0,17,18
 608 173 608 173 679 315 c 0,19,20
 698 354 698 354 711 405 c 0,21,22
 735 506 735 506 704.5 571.5 c 128,-1,23
 674 637 674 637 585 657 c 0,24,25
 552 665 552 665 511.5 657 c 128,-1,26
 471 649 471 649 438 633 c 128,-1,27
 405 617 405 617 374.5 597.5 c 0,28,29
 327.364 567.364 327.364 567.364 312 552 c 1,30,-1
 297 565 l 1,31,-1
 533 869 l 1,32,33
 560.664 908.959 560.664 908.959 619 890 c 0,34,35
 747.742 847.936 747.742 847.936 922 891.5 c 0,36,37
 952 899 952 899 966.5 904 c 2,38,-1
 981 909 l 2,39,40
 990 913 990 913 994 903.5 c 128,-1,41
 998 894 998 894 988 890 c 0,42,43
 957 875 957 875 865 859 c 1,44,45
 793 849 793 849 732.5 850.25 c 128,-1,46
 672 851.5 672 851.5 630 865.25 c 128,-1,47
 588 879 588 879 574.5 875 c 128,-1,48
 561 871 561 871 555.5 866 c 128,-1,49
 550 861 550 861 550 859 c 1,50,-1
 357 610 l 1,51,52
 426.124 654.931 426.124 654.931 486.062 670.965 c 128,-1,53
 546 687 546 687 589 677 c 0,54,55
 688 655 688 655 724 579 c 0,56,57
 742 540 742 540 742 493.5 c 128,-1,58
 742 447 742 447 734 415.5 c 128,-1,59
 726 384 726 384 721.5 369.5 c 128,-1,60
 717 355 717 355 713 344.5 c 2,61,-1
 705.5 325.5 l 2,62,63
 702 317 702 317 699 311 c 2,64,-1
 691 295 l 2,65,66
 671.667 256.333 671.667 256.333 650 223 c 0,67,68
 502.908 -4.53239 502.908 -4.53239 334 -45 c 0,69,70
 298 -54 298 -54 264 -54 c 0,0,1
EndSplineSet
EndChar

StartChar: six
Encoding: 54 54 58
Width: 697
Flags: MW
HStem: -69 20<244 244> 552 20<517 517> 911 20<666.5 701.5 676 701.5>
LayerCount: 2
Fore
SplineSet
251 -69 m 2,0,-1
 244 -69 l 1,1,2
 133 -68 133 -68 92 10 c 0,3,4
 46 99 46 99 96 264 c 1,5,6
 137 404 137 404 223 535 c 1,7,8
 359 748 359 748 496 853 c 0,9,10
 602 934 602 934 678 931 c 1,11,12
 749 931 749 931 775 887 c 1,13,14
 800.6 840.92 800.6 840.92 771.5 757.5 c 0,15,16
 764 736 764 736 759 726 c 2,17,18
 752 712 l 2,19,20
 748 702 748 702 739 707.5 c 128,-1,21
 730 713 730 713 735 722 c 0,22,23
 741 734 741 734 745 744 c 2,24,-1
 754 766.5 l 2,25,26
 761.842 786.105 761.842 786.105 765.421 812.053 c 0,27,28
 771.073 853.032 771.073 853.032 758 877 c 0,29,30
 739 911 739 911 677 911 c 2,31,-1
 676 911 l 2,32,33
 646 911 646 911 601 892.5 c 128,-1,34
 556 874 556 874 509 837 c 1,35,36
 377 738 377 738 239 525 c 1,37,38
 156 395 156 395 111.5 247 c 128,-1,39
 67 99 67 99 110 20 c 1,40,41
 144 -47 144 -47 244 -49 c 0,42,43
 297 -50 297 -50 347 -32 c 128,-1,44
 397 -14 397 -14 434 14.5 c 128,-1,45
 471 43 471 43 505 82.5 c 0,46,47
 561.667 148.333 561.667 148.333 600.833 226.167 c 128,-1,48
 640 304 640 304 647.5 374.5 c 128,-1,49
 655 445 655 445 629 490 c 0,50,51
 596 547 596 547 517 552 c 1,52,53
 406 556.5 406 556.5 316 480 c 0,54,55
 278.244 447.907 278.244 447.907 254.5 411.5 c 2,56,-1
 247 400 l 2,57,58
 242 391 242 391 233 396 c 0,59,60
 225 401 225 401 228 407 c 128,-1,61
 231 413 231 413 238 423.5 c 0,62,63
 262.333 460 262.333 460 303.167 495 c 0,64,65
 399.206 577.319 399.206 577.319 518 572 c 1,66,67
 609 566 609 566 646 500 c 0,68,69
 675 449 675 449 667.5 374.5 c 0,70,71
 657.252 272.7 657.252 272.7 576.5 145 c 0,72,73
 555 111 555 111 520.5 70 c 128,-1,74
 486 29 486 29 448 0 c 128,-1,75
 410 -29 410 -29 358 -49 c 128,-1,76
 306 -69 306 -69 251 -69 c 2,0,-1
EndSplineSet
EndChar

StartChar: seven
Encoding: 55 55 59
Width: 467
Flags: MW
HStem: -108 21G<41 42 42 42>
LayerCount: 2
Fore
SplineSet
72 -78.5 m 2,0,1
 50 -104 50 -104 48.5 -106 c 128,-1,2
 47 -108 47 -108 43.5 -108 c 128,-1,3
 40 -108 40 -108 36 -106 c 1,4,5
 29 -99 29 -99 33.5 -93.5 c 2,6,-1
 240 153 l 1,7,-1
 419 373 l 1,8,9
 574 566 574 566 673 707 c 1,10,11
 766 843.765 766 843.765 766 880 c 1,12,13
 758 880 758 880 750 877 c 0,14,15
 585.627 819.247 585.627 819.247 312 860 c 0,16,17
 265 867 265 867 241.5 872 c 2,18,-1
 218 877 l 2,19,20
 208 879 208 879 210 888.5 c 128,-1,21
 212 898 212 898 222 896 c 128,-1,22
 232 894 232 894 241 892 c 128,-1,23
 250 890 250 890 262.5 888 c 0,24,25
 348.309 874.685 348.309 874.685 408 869 c 0,26,27
 615 849 615 849 743 896 c 0,28,29
 771 906 771 906 782 891 c 0,30,31
 803 860 803 860 699.5 711 c 128,-1,32
 596 562 596 562 489.5 428.5 c 2,33,-1
 324 223 l 1,34,-1
 72 -78.5 l 2,0,1
EndSplineSet
EndChar

StartChar: eight
Encoding: 56 56 60
Width: 1000
Flags: MW
HStem: -123 20<182 225 225 225>
LayerCount: 2
Fore
SplineSet
225 -123 m 0,0,1
 84 -123 84 -123 33 -48 c 0,2,3
 -5.85892 10.8772 -5.85892 10.8772 12.5 99 c 0,4,5
 15 111 15 111 17.5 118 c 128,-1,6
 20 125 20 125 24 138 c 1,7,8
 77.2431 268.15 77.2431 268.15 176 352 c 1,9,10
 240 408 240 408 319.5 444.5 c 128,-1,11
 399 481 399 481 472.5 502.5 c 128,-1,12
 546 524 546 524 558 528 c 1,13,14
 531 583 531 583 518.5 615.5 c 128,-1,15
 506 648 506 648 505.5 698.5 c 128,-1,16
 505 749 505 749 530 797 c 0,17,18
 568 872 568 872 643 900 c 128,-1,19
 718 928 718 928 789 905 c 1,20,21
 823 892 823 892 849 874 c 1,22,23
 835.5 941.5 835.5 941.5 804 994 c 2,24,-1
 791 1015 l 1,25,26
 784 1022 784 1022 792 1028 c 0,27,28
 802.1 1035.57 802.1 1035.57 809 1023.5 c 0,29,30
 811 1020 811 1020 814.5 1014.5 c 2,31,-1
 822.5 1001.5 l 2,32,33
 862.1 935.5 862.1 935.5 872 853 c 1,34,35
 940.228 775.675 940.228 775.675 923 660 c 0,36,37
 921 649 921 649 912 651 c 0,38,39
 903 652 903 652 903 663 c 1,40,41
 917 756 917 756 873 820 c 1,42,43
 873 732.4 873 732.4 819.5 657.7 c 128,-1,44
 766 583 766 583 586 517 c 1,45,46
 640 410 640 410 648 339 c 0,47,48
 663 216 663 216 585 84 c 1,49,50
 535 -6 535 -6 428 -64.5 c 128,-1,51
 321 -123 321 -123 225 -123 c 0,0,1
567 510 m 1,52,53
 553 505 553 505 478.5 483.5 c 0,54,55
 182.875 398.185 182.875 398.185 66.5 185.5 c 0,56,57
 52 159 52 159 47.5 145.5 c 2,58,-1
 43 132 l 1,59,-1
 43 131 l 1,60,61
 40 124 40 124 38.5 117.5 c 128,-1,62
 37 111 37 111 34.5 102 c 128,-1,63
 32 93 32 93 30.5 82.5 c 128,-1,64
 29 72 29 72 28 60.5 c 128,-1,65
 27 49 27 49 27.5 36.5 c 128,-1,66
 28 24 28 24 30.5 11.5 c 0,67,68
 53.4 -103 53.4 -103 225 -103 c 0,69,70
 313 -103 313 -103 415.5 -48 c 128,-1,71
 518 7 518 7 568 94 c 0,72,73
 645.678 227.448 645.678 227.448 628 334.5 c 0,74,75
 619 389 619 389 606 423.5 c 128,-1,76
 593 458 593 458 567 510 c 1,52,53
723 895 m 0,77,78
 670 895 670 895 622.5 868 c 128,-1,79
 575 841 575 841 549.5 792.5 c 128,-1,80
 524 744 524 744 525 697.5 c 128,-1,81
 526 651 526 651 538 620 c 128,-1,82
 550 589 550 589 577 535 c 1,83,84
 753 600 753 600 801 666 c 0,85,86
 859 747 859 747 852 844 c 1,87,88
 823 873 823 873 787 884 c 128,-1,89
 751 895 751 895 723 895 c 0,77,78
EndSplineSet
EndChar

StartChar: nine
Encoding: 57 57 61
Width: 553
Flags: MW
HStem: -60 21G<132 133 133 133> 935 20<591 591>
LayerCount: 2
Fore
SplineSet
141 -56 m 2,0,1
 138 -60 138 -60 134.5 -60 c 128,-1,2
 131 -60 131 -60 125.5 -56.5 c 128,-1,3
 120 -53 120 -53 125 -44 c 1,4,-1
 695 733 l 1,5,-1
 650 688 l 1,6,7
 557 600 557 600 469 539.5 c 128,-1,8
 381 479 381 479 307.5 468 c 128,-1,9
 234 457 234 457 180.5 484.5 c 128,-1,10
 127 512 127 512 105 568 c 0,11,12
 79 637 79 637 119.5 721 c 128,-1,13
 160 805 160 805 270 876 c 1,14,15
 445.079 985.986 445.079 985.986 670.5 945 c 0,16,17
 733.75 933.5 733.75 933.5 745 926 c 1,18,19
 755 923 755 923 751 913 c 128,-1,20
 747 903 747 903 738 907 c 0,21,22
 677 930 677 930 591 935 c 0,23,24
 416 946 416 946 281 859 c 1,25,26
 176 794 176 794 136 709 c 1,27,28
 101 637 101 637 122 581 c 128,-1,29
 143 525 143 525 191.5 501.5 c 128,-1,30
 240 478 240 478 304 488 c 0,31,32
 432 506 432 506 636 703 c 0,33,34
 726 789 726 789 792 868.5 c 0,35,36
 814 895 814 895 814 896 c 2,37,-1
 830 884 l 1,38,-1
 141 -56 l 2,0,1
EndSplineSet
EndChar

StartChar: zero
Encoding: 48 48 62
Width: 778
Flags: MW
HStem: -22 21G<261 266 266 266>
VStem: 507 20
LayerCount: 2
Fore
SplineSet
94 79 m 0,0,1
 48 173 48 173 79.5 326 c 128,-1,2
 111 479 111 479 214 645 c 1,3,4
 390.251 920.52 390.251 920.52 602.5 969.5 c 0,5,6
 653.595 981.291 653.595 981.291 678.798 980.146 c 0,7,8
 716.941 978.412 716.941 978.412 729 976 c 1,9,10
 739 972 739 972 736 964 c 1,11,12
 734 954 734 954 724 956 c 0,13,14
 660 971 660 971 568 939 c 0,15,16
 382 873 382 873 231 634 c 0,17,18
 129 471 129 471 99 324.5 c 128,-1,19
 69 178 69 178 112 88 c 0,20,21
 150 8 150 8 239 -1 c 0,22,23
 364 -14 364 -14 487.5 100 c 128,-1,24
 611 214 611 214 711 456 c 0,25,26
 746 541 746 541 758.5 612.5 c 128,-1,27
 771 684 771 684 762 730 c 0,28,29
 746.446 809.498 746.446 809.498 716.723 842.249 c 128,-1,30
 687 875 687 875 650.5 886 c 128,-1,31
 614 897 614 897 578 887 c 1,32,-1
 577 887 l 2,33,34
 561.222 887 561.222 887 544.611 864 c 128,-1,35
 528 841 528 841 526.5 814.5 c 128,-1,36
 525 788 525 788 551.5 769 c 128,-1,37
 578 750 578 750 599.5 744.5 c 128,-1,38
 621 739 621 739 627 739 c 1,39,40
 638 737 638 737 636 727 c 128,-1,41
 634 717 634 717 625 719 c 1,42,43
 602 719 602 719 566 737 c 1,44,45
 504 766 504 766 506.5 814 c 128,-1,46
 509 862 509 862 541 889 c 0,47,48
 561 906 561 906 572 906 c 1,49,50
 614 919 614 919 656 906.5 c 128,-1,51
 698 894 698 894 729 859 c 0,52,53
 781 801 781 801 784 705 c 1,54,55
 789 591 789 591 729 448 c 0,56,57
 628 203 628 203 498 82 c 0,58,59
 386 -22 386 -22 264.399 -22 c 128,-1,60
 142.798 -22 142.798 -22 94 79 c 0,0,1
EndSplineSet
EndChar

StartChar: ampersand
Encoding: 38 38 63
Width: 1163
Flags: MW
HStem: -140 24
LayerCount: 2
Fore
SplineSet
562 -106 m 1,0,1
 474 -140 474 -140 382.5 -140 c 128,-1,2
 291 -140 291 -140 222.5 -100.5 c 128,-1,3
 154 -61 154 -61 126 17 c 0,4,5
 91 117 91 117 136 240 c 0,6,7
 181.694 363.176 181.694 363.176 279.5 441 c 0,8,9
 372.53 515.024 372.53 515.024 487.5 558.5 c 0,10,11
 583.591 594.837 583.591 594.837 715.257 630.672 c 0,12,13
 719 632 719 632 724.5 633 c 128,-1,14
 730 634 730 634 749 640 c 128,-1,15
 768 646 768 646 777 648 c 1,16,-1
 849 760 l 2,17,18
 886 817 886 817 923.5 854 c 128,-1,19
 961 891 961 891 990.5 904.5 c 128,-1,20
 1020 918 1020 918 1046 919 c 0,21,22
 1092.8 920.8 1092.8 920.8 1114.4 892.9 c 128,-1,23
 1136 865 1136 865 1128 827 c 0,24,25
 1108 731 1108 731 871 657 c 1,26,-1
 788 633 l 1,27,28
 670 443 670 443 608 311 c 0,29,30
 460.208 -0.0790127 460.208 -0.0790127 564 -85 c 1,31,32
 689.189 -33.4515 689.189 -33.4515 785.5 81.5 c 1,33,-1
 813.5 115.5 l 2,34,35
 826 131 826 131 836.5 146.5 c 2,36,-1
 854.5 174 l 2,37,38
 862 186 862 186 867 195 c 2,39,-1
 878 214 l 2,40,41
 882 221 882 221 890 217.5 c 128,-1,42
 898 214 898 214 894 206 c 0,43,44
 850 118 850 118 771.5 38.5 c 128,-1,45
 693 -41 693 -41 607 -86 c 0,46,47
 591 -94 591 -94 583 -97 c 1,48,49
 614 -114 614 -114 664 -116 c 0,50,51
 780 -121 780 -121 883 -29 c 0,52,53
 927.484 9.68217 927.484 9.68217 954.5 51 c 2,54,-1
 963 64 l 1,55,56
 969 71 969 71 976 67 c 0,57,58
 983.966 62.4483 983.966 62.4483 977.483 52.7241 c 128,-1,59
 971 43 971 43 964 33.5 c 2,60,-1
 947.5 12 l 2,61,62
 923.54 -18.2655 923.54 -18.2655 895 -43 c 0,63,64
 787 -140 787 -140 663 -134 c 1,65,66
 603 -133 603 -133 562 -106 c 1,0,1
762 625 m 1,67,68
 756 624 756 624 743.5 620 c 128,-1,69
 731 616 731 616 694.5 606 c 2,70,-1
 620.5 585 l 1,71,72
 494.848 548.142 494.848 548.142 442.424 521.571 c 128,-1,73
 390 495 390 495 342.5 465.5 c 128,-1,74
 295 436 295 436 263.5 404 c 0,75,76
 187.613 326.908 187.613 326.908 153 234 c 0,77,78
 109 117 109 117 143 23 c 0,79,80
 168 -47 168 -47 230.5 -84.5 c 128,-1,81
 293 -122 293 -122 381 -122 c 128,-1,82
 469 -122 469 -122 545 -93 c 1,83,84
 483.172 -31.1719 483.172 -31.1719 513 105 c 0,85,86
 552.849 285.37 552.849 285.37 762 625 c 1,67,68
1009 893 m 1,87,88
 934 858 934 858 864 750 c 1,89,90
 831 702 831 702 803 656 c 1,91,92
 845 668 845 668 866 675 c 0,93,94
 1093 745 1093 745 1110 830 c 0,95,96
 1116 859 1116 859 1102 879 c 128,-1,97
 1088 899 1088 899 1057.5 901.5 c 128,-1,98
 1027 904 1027 904 1009 893 c 1,87,88
EndSplineSet
EndChar

StartChar: at
Encoding: 64 64 64
Width: 1143
Flags: W
LayerCount: 2
Fore
SplineSet
49 230.5 m 128,-1,1
 51 324 51 324 126.5 432 c 128,-1,2
 202 540 202 540 338.5 629 c 128,-1,3
 475 718 475 718 624.5 751 c 128,-1,4
 774 784 774 784 913 745 c 1,5,6
 1087.06 687.663 1087.06 687.663 1111.5 563.5 c 0,7,8
 1131.68 460.964 1131.68 460.964 1013.5 329.5 c 0,9,10
 907.616 211.718 907.616 211.718 801.5 170.5 c 0,11,12
 741 147 741 147 693 159 c 1,13,14
 653 171 653 171 650 201 c 1,15,16
 645 231 645 231 685 275 c 1,17,18
 622.5 226.5 l 1,19,20
 542.575 166.981 542.575 166.981 496.787 152.991 c 128,-1,21
 451 139 451 139 405.5 139 c 128,-1,22
 360 139 360 139 318.5 172 c 128,-1,23
 277 205 277 205 272 257 c 1,24,25
 261 352 261 352 397 468 c 0,26,27
 576 619 576 619 736 619 c 0,28,29
 787 619 787 619 827 600.5 c 128,-1,30
 867 582 867 582 878 541 c 1,31,32
 892 475 892 475 802 379 c 1,33,34
 838.143 406.107 838.143 406.107 879.571 433.554 c 2,35,-1
 943.5 475 l 2,36,37
 966 489 966 489 967 489 c 0,38,39
 975 495 975 495 979 486 c 1,40,41
 984 480 984 480 979.5 477 c 2,42,-1
 891 419.5 l 2,43,44
 851 393 851 393 816 367 c 0,45,46
 660 251 660 251 668 203 c 1,47,48
 668 184 668 184 698 177 c 1,49,50
 742 165 742 165 800.5 189 c 128,-1,51
 859 213 859 213 910.5 256.5 c 128,-1,52
 962 300 962 300 1004 347 c 128,-1,53
 1046 394 1046 394 1071 440.5 c 128,-1,54
 1096 487 1096 487 1096.5 535.5 c 128,-1,55
 1097 584 1097 584 1071.5 620 c 0,56,57
 1020.65 691.792 1020.65 691.792 908 728 c 1,58,59
 770 768 770 768 621 731.5 c 128,-1,60
 472 695 472 695 340 607.5 c 128,-1,61
 208 520 208 520 135.5 414 c 128,-1,62
 63 308 63 308 67 221.5 c 128,-1,63
 71 135 71 135 125 75.5 c 128,-1,64
 179 16 179 16 269 -12 c 128,-1,65
 359 -40 359 -40 458 -29 c 0,66,67
 596 -14 596 -14 688.5 26.5 c 128,-1,68
 781 67 781 67 864 137 c 0,69,70
 872 143 872 143 878 137 c 128,-1,71
 884 131 884 131 878 125 c 0,72,73
 801 51 801 51 689.5 7 c 128,-1,74
 578 -37 578 -37 460.5 -47.5 c 128,-1,75
 343 -58 343 -58 247.5 -24 c 128,-1,76
 152 10 152 10 99.5 73.5 c 128,-1,0
 47 137 47 137 49 230.5 c 128,-1,1
415 157 m 128,-1,78
 461 157 461 157 520.5 186.5 c 128,-1,79
 580 216 580 216 617 244.5 c 2,80,-1
 716 324 l 1,81,82
 879 460 879 460 860 537 c 1,83,84
 841 601 841 601 736 601 c 0,85,86
 662 601 662 601 576.5 562.5 c 128,-1,87
 491 524 491 524 409 454 c 1,88,89
 280 346 280 346 290 259 c 0,90,91
 295 212 295 212 332 184.5 c 128,-1,77
 369 157 369 157 415 157 c 128,-1,78
EndSplineSet
EndChar

StartChar: question
Encoding: 63 63 65
Width: 836
Flags: MW
HStem: -10 113<99.5 130.5>
VStem: 59 113<30.5 62>
LayerCount: 2
Fore
SplineSet
196 178 m 2,0,1
 193 173 193 173 190 173 c 128,-1,2
 187 173 187 173 181.5 176 c 128,-1,3
 176 179 176 179 180 187 c 2,4,-1
 320 411 l 1,5,-1
 325 411 l 1,6,7
 470.692 390.388 470.692 390.388 610.566 488.191 c 0,8,9
 715.988 561.904 715.988 561.904 760.684 662.194 c 128,-1,10
 805.38 762.484 805.38 762.484 749.274 819.888 c 0,11,12
 727.47 842.196 727.47 842.196 691 854 c 1,13,14
 640 873 640 873 580.5 863.5 c 128,-1,15
 521 854 521 854 467.5 826.5 c 128,-1,16
 414 799 414 799 368.5 745.5 c 128,-1,17
 323 692 323 692 300 623 c 0,18,19
 296 614 296 614 289 617 c 1,20,21
 281 619 281 619 283 628 c 0,22,23
 327 759 327 759 446 834.5 c 128,-1,24
 565 910 565 910 694 872 c 0,25,26
 800.311 840.068 800.311 840.068 798.164 744.328 c 128,-1,27
 796.016 648.589 796.016 648.589 701.2 543.467 c 128,-1,28
 606.384 438.345 606.384 438.345 472.557 402.701 c 0,29,30
 399.683 383.292 399.683 383.292 330 393 c 1,31,-1
 196 178 l 2,0,1
155 86.5 m 128,-1,33
 172 70 172 70 172 46.5 c 128,-1,34
 172 23 172 23 155 6.5 c 128,-1,35
 138 -10 138 -10 115 -10 c 128,-1,36
 92 -10 92 -10 75.5 6.5 c 128,-1,37
 59 23 59 23 59 46.5 c 128,-1,38
 59 70 59 70 75.5 86.5 c 128,-1,39
 92 103 92 103 115 103 c 128,-1,32
 138 103 138 103 155 86.5 c 128,-1,33
EndSplineSet
EndChar

StartChar: exclam
Encoding: 33 33 66
Width: 622
Flags: MW
HStem: -10 113<117.5 148.5>
VStem: 77 113<30.5 62>
LayerCount: 2
Fore
SplineSet
209 180 m 1,0,1
 205 174 205 174 201.5 174.5 c 128,-1,2
 198 175 198 175 197 175 c 0,3,4
 189 178 189 178 192 187 c 0,5,6
 277 394 277 394 455 650 c 1,7,8
 535.5 762.5 l 1,9,10
 603 855 603 855 613.5 865.5 c 128,-1,11
 624 876 624 876 631 871 c 128,-1,12
 638 866 638 866 634 861 c 2,13,-1
 549.5 751.5 l 1,14,-1
 470 640 l 1,15,16
 289 376 289 376 209 180 c 1,0,1
173 86.5 m 128,-1,18
 190 70 190 70 190 46.5 c 128,-1,19
 190 23 190 23 173 6.5 c 128,-1,20
 156 -10 156 -10 133 -10 c 128,-1,21
 110 -10 110 -10 93.5 6.5 c 128,-1,22
 77 23 77 23 77 46.5 c 128,-1,23
 77 70 77 70 93.5 86.5 c 128,-1,24
 110 103 110 103 133 103 c 128,-1,17
 156 103 156 103 173 86.5 c 128,-1,18
EndSplineSet
EndChar

StartChar: dollar
Encoding: 36 36 67
Width: 950
Flags: W
LayerCount: 2
Fore
SplineSet
241 -94 m 0,0,1
 177 -92 177 -92 121 -62.5 c 128,-1,2
 65 -33 65 -33 42 20 c 0,3,4
 -7.4649 137.479 -7.4649 137.479 102.5 241.5 c 0,5,6
 134.603 271.868 134.603 271.868 143.301 275.434 c 128,-1,7
 152 279 152 279 157 271.5 c 128,-1,8
 162 264 162 264 153 260 c 1,9,-1
 121 234.5 l 2,10,11
 102.667 219.222 102.667 219.222 83 193 c 0,12,13
 23 112 23 112 59 27 c 0,14,15
 78 -17 78 -17 127.5 -45 c 128,-1,16
 177 -73 177 -73 249 -76 c 128,-1,17
 321 -79 321 -79 398.5 -40.5 c 128,-1,18
 476 -2 476 -2 521 84 c 0,19,20
 579.436 194.827 579.436 194.827 578.5 302.5 c 0,21,22
 578 360 578 360 574 396 c 128,-1,23
 570 432 570 432 564 467.5 c 128,-1,24
 558 503 558 503 553 535.5 c 128,-1,25
 548 568 548 568 547 575 c 2,26,-1
 542 611.5 l 2,27,28
 538 641 538 641 538 652.5 c 128,-1,29
 538 664 538 664 536.5 690.5 c 128,-1,30
 535 717 535 717 537.5 733 c 128,-1,31
 540 749 540 749 543 772 c 0,32,33
 547.562 806.975 547.562 806.975 568.781 860.988 c 128,-1,34
 590 915 590 915 628 953 c 128,-1,35
 666 991 666 991 708 1004.5 c 0,36,37
 794.991 1032.46 794.991 1032.46 868 997 c 0,38,39
 927 968 927 968 945.5 912.5 c 128,-1,40
 964 857 964 857 930 782 c 0,41,42
 914 749 914 749 878.5 722.5 c 0,43,44
 826.531 683.706 826.531 683.706 793 677 c 1,45,46
 786 673 786 673 782 682 c 0,47,48
 779 691 779 691 784.5 692.5 c 128,-1,49
 790 694 790 694 811.5 703.5 c 128,-1,50
 833 713 833 713 864 736.5 c 128,-1,51
 895 760 895 760 910 788 c 1,52,53
 970.737 920.861 970.737 920.861 859 982 c 0,54,55
 799.421 1013.92 799.421 1013.92 717 987.5 c 0,56,57
 678 975 678 975 642 940 c 128,-1,58
 606 905 606 905 584.5 851 c 128,-1,59
 563 797 563 797 558 732 c 128,-1,60
 553 667 553 667 557 631.5 c 128,-1,61
 561 596 561 596 568.5 552.5 c 0,62,63
 599.085 375.107 599.085 375.107 597 299 c 1,64,65
 592 181 592 181 537 76 c 0,66,67
 493 -9 493 -9 414 -52.5 c 128,-1,68
 335 -96 335 -96 241 -94 c 0,0,1
120 -184 m 2,69,70
 115 -191 115 -191 107 -186.5 c 128,-1,71
 99 -182 99 -182 105 -174 c 2,72,-1
 918 1096 l 1,73,74
 924 1103 924 1103 931 1099 c 0,75,76
 934 1098 934 1098 934.5 1093.5 c 128,-1,77
 935 1089 935 1089 933 1086 c 2,78,-1
 120 -184 l 2,69,70
EndSplineSet
EndChar

StartChar: cent
Encoding: 162 162 68
Width: 819
Flags: MW
HStem: -253 21G<32 34.5>
LayerCount: 2
Fore
SplineSet
451 17 m 1,0,1
 363 -53 363 -53 245.5 -53 c 0,2,3
 192 -53 192 -53 171 -46 c 1,4,-1
 41 -249 l 1,5,6
 37 -253 37 -253 34.5 -253 c 128,-1,7
 32 -253 32 -253 26.5 -250 c 128,-1,8
 21 -247 21 -247 25 -239 c 2,9,-1
 152 -40 l 1,10,11
 115 -27 115 -27 87.5 13.5 c 128,-1,12
 60 54 60 54 60 124 c 128,-1,13
 60 194 60 194 77 255 c 0,14,15
 124 416 124 416 233.5 553.5 c 128,-1,16
 343 691 343 691 461 763 c 128,-1,17
 579 835 579 835 682 835 c 0,18,19
 703 835 703 835 712 834 c 1,20,-1
 839 1031 l 2,21,22
 844 1038 844 1038 852 1033.5 c 128,-1,23
 860 1029 860 1029 854 1021 c 2,24,-1
 732 831 l 1,25,26
 792 820 792 820 811 783 c 1,27,28
 828.52 755.924 828.52 755.924 813 698.5 c 0,29,30
 801.521 656.028 801.521 656.028 773 618 c 0,31,32
 767 610 767 610 760 615.5 c 128,-1,33
 753 621 753 621 757.5 626.5 c 128,-1,34
 762 632 762 632 774.5 654.5 c 128,-1,35
 787 677 787 677 798.5 713 c 128,-1,36
 810 749 810 749 793 778.5 c 128,-1,37
 776 808 776 808 722 815 c 1,38,-1
 181 -30 l 1,39,-1
 202 -33 l 1,40,41
 348 -45 348 -45 439 31 c 0,42,43
 475.071 59.8572 475.071 59.8572 495.5 97 c 0,44,45
 501 107 501 107 503 111.5 c 128,-1,46
 505 116 505 116 513 112.5 c 128,-1,47
 521 109 521 109 518 102 c 0,48,49
 493 52 493 52 451 17 c 1,0,1
684 817 m 2,50,-1
 682 817 l 1,51,52
 581 816 581 816 466 744.5 c 128,-1,53
 351 673 351 673 245.5 540.5 c 128,-1,54
 140 408 140 408 94 249 c 0,55,56
 71.1462 173.582 71.1462 173.582 80.5 94.5 c 0,57,58
 91.4435 1.97745 91.4435 1.97745 162 -25 c 1,59,-1
 701 816 l 1,60,61
 696 817 696 817 684 817 c 2,50,-1
EndSplineSet
EndChar

StartChar: numbersign
Encoding: 35 35 69
Width: 962
Flags: MW
HStem: -74 21G<40 42.5 337.5 339.5> 554 20G<279 884 884 886.5>
LayerCount: 2
Fore
SplineSet
48 -70 m 2,0,1
 46 -74 46 -74 42 -74 c 128,-1,2
 38 -74 38 -74 33.5 -71 c 128,-1,3
 29 -68 29 -68 33 -60 c 1,4,-1
 628 856 l 2,5,6
 633 863 633 863 640.5 858 c 128,-1,7
 648 853 648 853 643 846 c 2,8,-1
 48 -70 l 2,0,1
346 -70 m 1,9,10
 342 -74 342 -74 339.5 -74 c 128,-1,11
 337 -74 337 -74 331 -71 c 128,-1,12
 325 -68 325 -68 331 -60 c 2,13,-1
 926 856 l 1,14,15
 930 864 930 864 937.5 858.5 c 128,-1,16
 945 853 945 853 941 846 c 2,17,-1
 346 -70 l 1,9,10
884 556 m 2,18,-1
 279 556 l 2,19,20
 270 556 270 556 270 565 c 128,-1,21
 270 574 270 574 279 574 c 2,22,-1
 884 574 l 2,23,24
 893 574 893 574 893 565 c 128,-1,25
 893 556 893 556 884 556 c 2,18,-1
711 234 m 2,26,-1
 106 234 l 2,27,28
 97 234 97 234 97 243 c 128,-1,29
 97 252 97 252 106 252 c 2,30,-1
 711 252 l 2,31,32
 720 252 720 252 720 243 c 128,-1,33
 720 234 720 234 711 234 c 2,26,-1
EndSplineSet
EndChar

StartChar: percent
Encoding: 37 37 70
Width: 833
Flags: MW
HStem: -34 21G<105.5 107.5> -32 206<371.5 428.5> 690 206<363 419.5>
VStem: 288 207<764.5 821.5>
LayerCount: 2
Fore
SplineSet
495 793 m 128,-1,1
 495 750 495 750 464.5 720 c 128,-1,2
 434 690 434 690 391.5 690 c 128,-1,3
 349 690 349 690 318.5 720 c 128,-1,4
 288 750 288 750 288 793 c 128,-1,5
 288 836 288 836 318.5 866 c 128,-1,6
 349 896 349 896 391.5 896 c 128,-1,7
 434 896 434 896 464.5 866 c 128,-1,0
 495 836 495 836 495 793 c 128,-1,1
503 71 m 128,-1,9
 503 28 503 28 473 -2 c 128,-1,10
 443 -32 443 -32 400 -32 c 128,-1,11
 357 -32 357 -32 327 -2 c 128,-1,12
 297 28 297 28 297 71 c 128,-1,13
 297 114 297 114 327 144 c 128,-1,14
 357 174 357 174 400 174 c 128,-1,15
 443 174 443 174 473 144 c 128,-1,8
 503 114 503 114 503 71 c 128,-1,9
114 -30 m 2,16,17
 111 -34 111 -34 107 -34 c 128,-1,18
 103 -34 103 -34 102 -33 c 0,19,20
 93 -28 93 -28 99 -20 c 2,21,-1
 686 895 l 2,22,23
 692 903 692 903 698.5 898 c 128,-1,24
 705 893 705 893 702 885 c 1,25,-1
 114 -30 l 2,16,17
EndSplineSet
EndChar

StartChar: asciicircum
Encoding: 94 94 71
Width: 808
Flags: MW
HStem: 557 21G<74 74.5 738 740 738 738.5>
LayerCount: 2
Fore
SplineSet
740 557 m 2,0,-1
 738 557 l 1,1,2
 697 563 697 563 677 598 c 0,3,4
 636 670 636 670 689 829 c 1,5,6
 442.728 648.649 442.728 648.649 171 578 c 0,7,8
 90.2308 557 90.2308 557 74 557 c 1,9,10
 66 555 66 555 64 564 c 128,-1,11
 62 573 62 573 72 575 c 1,12,13
 87.5385 575 87.5385 575 152.269 592 c 0,14,15
 457.129 672.064 457.129 672.064 702 861 c 0,16,17
 707 866 707 866 713 862 c 128,-1,18
 719 858 719 858 717 853 c 2,19,-1
 709 832 l 2,20,21
 674.794 740.785 674.794 740.785 678.5 660.5 c 0,22,23
 680 628 680 628 694.5 603.5 c 128,-1,24
 709 579 709 579 741 575 c 0,25,26
 749 573 749 573 749 564 c 1,27,28
 747 557 747 557 740 557 c 2,0,-1
EndSplineSet
EndChar

StartChar: asterisk
Encoding: 42 42 72
Width: 431
Flags: MW
HStem: 523 21G<223 226 223 223> 853 20G<223 226 225 226>
LayerCount: 2
Fore
SplineSet
399 699 m 1,0,-1
 399 696 l 1,1,2
 398 680 398 680 386 671 c 0,3,4
 361.333 652.5 361.333 652.5 321.667 669.75 c 128,-1,5
 282 687 282 687 240 691 c 1,6,7
 277 662 277 662 308.5 649.5 c 128,-1,8
 340 637 340 637 352.5 616 c 0,9,10
 366.493 592.493 366.493 592.493 347 573 c 1,11,12
 327 557 327 557 306 569.5 c 128,-1,13
 285 582 285 582 272.5 613.5 c 128,-1,14
 260 645 260 645 231 682 c 1,15,16
 235 640 235 640 247 612 c 128,-1,17
 259 584 259 584 259.5 566 c 128,-1,18
 260 548 260 548 251 536 c 128,-1,19
 242 524 242 524 226 523 c 1,20,-1
 223 523 l 1,21,22
 198 524 198 524 191 549.5 c 128,-1,23
 184 575 184 575 198 606 c 128,-1,24
 212 637 212 637 218 682 c 1,25,26
 192 651 192 651 178 616.5 c 128,-1,27
 164 582 164 582 143 569.5 c 128,-1,28
 122 557 122 557 101 572 c 1,29,30
 83 590 83 590 95 613.5 c 128,-1,31
 107 637 107 637 140 650 c 128,-1,32
 173 663 173 663 208 691 c 1,33,34
 165 687 165 687 133 672.5 c 128,-1,35
 101 658 101 658 76 664.5 c 128,-1,36
 51 671 51 671 49 696 c 1,37,-1
 49 699 l 1,38,39
 51 724 51 724 76 731 c 128,-1,40
 101 738 101 738 131.5 724 c 128,-1,41
 162 710 162 710 208 704 c 1,42,43
 179 730 179 730 144 744 c 128,-1,44
 109 758 109 758 96.5 779 c 0,45,46
 82.1343 803.134 82.1343 803.134 102 823 c 1,47,48
 122 838 122 838 143 825.5 c 128,-1,49
 164 813 164 813 178 778 c 128,-1,50
 192 743 192 743 218 714 c 1,51,52
 212 760 212 760 198 790.5 c 128,-1,53
 184 821 184 821 191 846 c 128,-1,54
 198 871 198 871 223 873 c 1,55,-1
 226 873 l 1,56,57
 251 871 251 871 257.5 846 c 128,-1,58
 264 821 264 821 249.5 789 c 128,-1,59
 235 757 235 757 231 714 c 1,60,61
 259 749 259 749 272 781 c 128,-1,62
 285 813 285 813 306 825.5 c 0,63,64
 330.134 839.866 330.134 839.866 350 820 c 1,65,66
 366 800 366 800 353 779 c 128,-1,67
 340 758 340 758 305.5 744 c 128,-1,68
 271 730 271 730 240 704 c 1,69,70
 285 710 285 710 316 724 c 128,-1,71
 347 738 347 738 372.5 731 c 128,-1,72
 398 724 398 724 399 699 c 1,0,-1
EndSplineSet
EndChar

StartChar: period
Encoding: 46 46 73
Width: 223
Flags: MW
HStem: -10 113<117.5 148.5>
VStem: 77 113<30.5 62>
LayerCount: 2
Fore
SplineSet
173 86.5 m 128,-1,1
 190 70 190 70 190 46.5 c 128,-1,2
 190 23 190 23 173 6.5 c 128,-1,3
 156 -10 156 -10 133 -10 c 128,-1,4
 110 -10 110 -10 93.5 6.5 c 128,-1,5
 77 23 77 23 77 46.5 c 128,-1,6
 77 70 77 70 93.5 86.5 c 128,-1,7
 110 103 110 103 133 103 c 128,-1,0
 156 103 156 103 173 86.5 c 128,-1,1
EndSplineSet
EndChar

StartChar: comma
Encoding: 44 44 74
Width: 203
Flags: MW
HStem: -53 21G<69 71 71 73> -4 113<109.5 126.5>
VStem: 69 113<48 68 48 68>
LayerCount: 2
Fore
SplineSet
165.5 92.5 m 128,-1,1
 182 76 182 76 182 58.5 c 128,-1,2
 182 41 182 41 177 29 c 0,3,4
 155 -31 155 -31 73 -53 c 1,5,-1
 71 -53 l 2,6,7
 64 -53 64 -53 63 -47 c 1,8,9
 60 -40 60 -40 69 -36 c 1,10,11
 110 -25 110 -25 134 -3 c 1,12,13
 131 -4 131 -4 125 -4 c 0,14,15
 102 -4 102 -4 85.5 12.5 c 128,-1,16
 69 29 69 29 69 52.5 c 128,-1,17
 69 76 69 76 85.5 92.5 c 128,-1,18
 102 109 102 109 125.5 109 c 128,-1,0
 149 109 149 109 165.5 92.5 c 128,-1,1
EndSplineSet
EndChar

StartChar: slash
Encoding: 47 47 75
Width: 969
Flags: MW
HStem: -225 21G<175 177.5>
LayerCount: 2
Fore
SplineSet
184 -221 m 2,0,1
 181 -225 181 -225 177 -225 c 128,-1,2
 173 -225 173 -225 168 -221.5 c 128,-1,3
 163 -218 163 -218 169 -211 c 1,4,-1
 982 1059 l 2,5,6
 987 1066 987 1066 995 1061.5 c 128,-1,7
 1003 1057 1003 1057 997 1049 c 2,8,-1
 184 -221 l 2,0,1
EndSplineSet
EndChar

StartChar: parenleft
Encoding: 40 40 76
Width: 384
Flags: MW
HStem: -145 21G<117 119 119 120>
LayerCount: 2
Fore
SplineSet
119 -145 m 2,0,1
 112 -145 112 -145 110 -137 c 1,2,3
 83 94 83 94 180 320 c 1,4,5
 256 500 256 500 411 675 c 0,6,7
 547.134 829.114 547.134 829.114 714.5 949.5 c 0,8,9
 743 970 743 970 756.5 978.5 c 2,10,-1
 770 987 l 2,11,12
 778 992 778 992 782.5 984.5 c 128,-1,13
 787 977 787 977 783 974.5 c 2,14,-1
 765.5 963 l 2,15,16
 752 954 752 954 724.5 934 c 2,17,-1
 667 891 l 1,18,19
 441.055 712.195 441.055 712.195 304.5 508 c 0,20,21
 88.0778 184.378 88.0778 184.378 128 -135 c 0,22,23
 130 -143 130 -143 120 -145 c 1,24,-1
 119 -145 l 2,0,1
EndSplineSet
EndChar

StartChar: parenright
Encoding: 41 41 77
Width: 593
Flags: MW
HStem: -183 21G<-157.5 -155> 931 20G<499 501.5>
LayerCount: 2
Fore
SplineSet
-136.5 -172 m 2,0,-1
 -151.5 -182 l 2,1,2
 -153 -183 -153 -183 -157 -183 c 128,-1,3
 -161 -183 -161 -183 -163 -178 c 1,4,5
 -168 -171 -168 -171 -160 -166 c 0,6,7
 -114 -137 -114 -137 -47 -84 c 0,8,9
 86 21 86 21 196 144 c 1,10,11
 540 535 540 535 491 941 c 0,12,13
 491 949 491 949 499 951 c 1,14,15
 509 951 509 951 509 943 c 0,16,17
 537 717 537 717 440 486 c 1,18,19
 303.056 169.318 303.056 169.318 -36 -99 c 1,20,21
 -111.857 -155.571 -111.857 -155.571 -136.5 -172 c 2,0,-1
EndSplineSet
EndChar

StartChar: equal
Encoding: 61 61 78
Width: 833
Flags: MW
HStem: 234 227<43.5 774 169 651>
LayerCount: 2
Fore
SplineSet
774 443 m 2,0,-1
 169 443 l 2,1,2
 160 443 160 443 160 452 c 128,-1,3
 160 461 160 461 169 461 c 2,4,-1
 774 461 l 2,5,6
 783 461 783 461 783 452 c 128,-1,7
 783 443 783 443 774 443 c 2,0,-1
651 234 m 2,8,-1
 46 234 l 2,9,10
 37 234 37 234 37 243 c 128,-1,11
 37 252 37 252 46 252 c 2,12,-1
 651 252 l 2,13,14
 660 252 660 252 660 243 c 128,-1,15
 660 234 660 234 651 234 c 2,8,-1
EndSplineSet
EndChar

StartChar: quotedbl
Encoding: 34 34 79
Width: 407
Flags: MW
HStem: 504 21G<54.5 56.5 163.5 165.5>
LayerCount: 2
Fore
SplineSet
61 506 m 0,0,1
 57 504 57 504 54 504 c 128,-1,2
 51 504 51 504 47 509.5 c 128,-1,3
 43 515 43 515 50 520 c 0,4,5
 202 636.235 202 636.235 202 758 c 0,6,7
 202 765 202 765 201 770 c 128,-1,8
 200 775 200 775 199.5 778.5 c 128,-1,9
 199 782 199 782 197.5 788 c 128,-1,10
 196 794 196 794 204 797 c 1,11,12
 213 799 213 799 215 791 c 1,13,14
 220.364 785.636 220.364 785.636 219.682 756.318 c 128,-1,15
 219 727 219 727 210 693 c 128,-1,16
 201 659 201 659 164.5 607.5 c 128,-1,17
 128 556 128 556 61 506 c 0,0,1
170 506 m 0,18,19
 166 504 166 504 163 504 c 128,-1,20
 160 504 160 504 156 509.5 c 128,-1,21
 152 515 152 515 159 520 c 0,22,23
 311 636.235 311 636.235 311 758 c 0,24,25
 311 765 311 765 310 770 c 128,-1,26
 309 775 309 775 308.5 778.5 c 128,-1,27
 308 782 308 782 306.5 788 c 128,-1,28
 305 794 305 794 313 797 c 1,29,30
 322 799 322 799 324 791 c 1,31,32
 329.364 785.636 329.364 785.636 328.682 756.318 c 128,-1,33
 328 727 328 727 319 693 c 128,-1,34
 310 659 310 659 273.5 607.5 c 128,-1,35
 237 556 237 556 170 506 c 0,18,19
EndSplineSet
EndChar

StartChar: quotesingle
Encoding: 39 39 80
Width: 243
Flags: MW
HStem: 560 21G<275.5 277.5>
LayerCount: 2
Fore
SplineSet
284 565 m 2,0,1
 282 560 282 560 277.5 560 c 128,-1,2
 273 560 273 560 272 561 c 0,3,4
 264 565 264 565 268 573 c 2,5,-1
 405 848 l 2,6,7
 409 858 409 858 417 852 c 1,8,9
 425 849 425 849 421 840 c 2,10,-1
 284 565 l 2,0,1
EndSplineSet
EndChar

StartChar: hyphen
Encoding: 45 45 81
Width: 716
Flags: MW
HStem: 301 20G<56 661 661 663.5> 303 21G<53.5 56 56 661>
LayerCount: 2
Fore
SplineSet
661 303 m 2,0,-1
 56 303 l 2,1,2
 47 303 47 303 47 312 c 128,-1,3
 47 321 47 321 56 321 c 2,4,-1
 661 321 l 2,5,6
 670 321 670 321 670 312 c 128,-1,7
 670 303 670 303 661 303 c 2,0,-1
EndSplineSet
EndChar

StartChar: semicolon
Encoding: 59 59 82
Width: 332
Flags: MW
HStem: -53 21G<69 71 71 73> -4 113<109.5 126.5> 320 113<223.5 254.5>
VStem: 69 113<48 68 48 68> 183 113<360.5 392>
LayerCount: 2
Fore
SplineSet
279 416.5 m 128,-1,1
 296 400 296 400 296 376.5 c 128,-1,2
 296 353 296 353 279 336.5 c 128,-1,3
 262 320 262 320 239 320 c 128,-1,4
 216 320 216 320 199.5 336.5 c 128,-1,5
 183 353 183 353 183 376.5 c 128,-1,6
 183 400 183 400 199.5 416.5 c 128,-1,7
 216 433 216 433 239 433 c 128,-1,0
 262 433 262 433 279 416.5 c 128,-1,1
165.5 92.5 m 128,-1,9
 182 76 182 76 182 58.5 c 128,-1,10
 182 41 182 41 177 29 c 0,11,12
 155 -31 155 -31 73 -53 c 1,13,-1
 71 -53 l 2,14,15
 64 -53 64 -53 63 -47 c 1,16,17
 60 -40 60 -40 69 -36 c 1,18,19
 110 -25 110 -25 134 -3 c 1,20,21
 131 -4 131 -4 125 -4 c 0,22,23
 102 -4 102 -4 85.5 12.5 c 128,-1,24
 69 29 69 29 69 52.5 c 128,-1,25
 69 76 69 76 85.5 92.5 c 128,-1,26
 102 109 102 109 125.5 109 c 128,-1,8
 149 109 149 109 165.5 92.5 c 128,-1,9
EndSplineSet
EndChar

StartChar: bracketleft
Encoding: 91 91 83
Width: 528
Flags: MW
HStem: -230 21G<30 32 32 196> 904 20G<769 911 911 913.5>
LayerCount: 2
Fore
SplineSet
196 -230 m 2,0,-1
 32 -230 l 2,1,2
 26 -230 26 -230 23.5 -225.25 c 0,3,4
 21 -220.5 21 -220.5 24 -216 c 2,5,-1
 761 920 l 1,6,7
 765 924 765 924 769 924 c 2,8,-1
 911 924 l 2,9,10
 920 924 920 924 920 915 c 128,-1,11
 920 906 920 906 911 906 c 2,12,-1
 773 906 l 1,13,-1
 48 -212 l 1,14,-1
 196 -212 l 2,15,16
 205 -212 205 -212 205 -221 c 128,-1,17
 205 -230 205 -230 196 -230 c 2,0,-1
EndSplineSet
EndChar

StartChar: bracketright
Encoding: 93 93 84
Width: 833
Flags: MW
HStem: -201 21G<-129.5 -127 -127 15> 933 20G<588 752 752 754>
LayerCount: 2
Fore
SplineSet
15 -201 m 2,0,-1
 -127 -201 l 2,1,2
 -136 -201 -136 -201 -136 -192 c 128,-1,3
 -136 -183 -136 -183 -127 -183 c 2,4,-1
 11 -183 l 1,5,-1
 736 935 l 1,6,-1
 588 935 l 2,7,8
 579 935 579 935 579 944 c 128,-1,9
 579 953 579 953 588 953 c 2,10,-1
 752 953 l 2,11,12
 758 953 758 953 760.5 948.25 c 0,13,14
 763 943.5 763 943.5 760 939 c 2,15,-1
 23 -197 l 1,16,17
 19 -201 19 -201 15 -201 c 2,0,-1
EndSplineSet
EndChar

StartChar: plus
Encoding: 43 43 85
Width: 833
Flags: MW
HStem: 59 21G<203.5 205.5>
LayerCount: 2
Fore
SplineSet
212 63 m 1,0,1
 208 59 208 59 205.5 59 c 128,-1,2
 203 59 203 59 197 62 c 128,-1,3
 191 65 191 65 197 73 c 2,4,-1
 573 651 l 1,5,6
 577 659 577 659 584.5 653.5 c 128,-1,7
 592 648 592 648 588 641 c 2,8,-1
 212 63 l 1,0,1
725 367 m 2,9,-1
 120 367 l 2,10,11
 111 367 111 367 111 376 c 128,-1,12
 111 385 111 385 120 385 c 2,13,-1
 725 385 l 2,14,15
 734 385 734 385 734 376 c 128,-1,16
 734 367 734 367 725 367 c 2,9,-1
EndSplineSet
EndChar

StartChar: underscore
Encoding: 95 95 86
Width: 651
Flags: MW
HStem: -2 20G<22 627 627 629.5> 0 21G<19.5 22 22 627>
LayerCount: 2
Fore
SplineSet
627 0 m 2,0,-1
 22 0 l 2,1,2
 13 0 13 0 13 9 c 128,-1,3
 13 18 13 18 22 18 c 2,4,-1
 627 18 l 2,5,6
 636 18 636 18 636 9 c 128,-1,7
 636 0 636 0 627 0 c 2,0,-1
EndSplineSet
EndChar

StartChar: bar
Encoding: 124 124 87
Width: 833
Flags: MW
HStem: -225 21G<39 41.5>
LayerCount: 2
Fore
SplineSet
48 -221 m 2,0,1
 45 -225 45 -225 41 -225 c 128,-1,2
 37 -225 37 -225 32 -221.5 c 128,-1,3
 27 -218 27 -218 33 -211 c 1,4,-1
 846 1059 l 2,5,6
 851 1066 851 1066 859 1061.5 c 128,-1,7
 867 1057 867 1057 861 1049 c 2,8,-1
 48 -221 l 2,0,1
EndSplineSet
EndChar

StartChar: less
Encoding: 60 60 88
Width: 833
Flags: MW
HStem: 85 21G<377.5 380 380 380>
LayerCount: 2
Fore
SplineSet
380 85 m 128,-1,1
 371 85 371 85 371 93 c 0,2,3
 362.392 214.739 362.392 214.739 167 345 c 0,4,5
 134 367 134 367 115.5 377 c 2,6,-1
 97 387 l 2,7,8
 90 390 90 390 92 398 c 0,9,10
 94 404 94 404 102 404 c 0,11,12
 302 383 302 383 517 515 c 1,13,14
 620 577 620 577 694 651 c 0,15,16
 701 657 701 657 707 651 c 128,-1,17
 713 645 713 645 707 638 c 1,18,19
 521.886 469.714 521.886 469.714 334 411 c 1,20,21
 233.5 381 233.5 381 139 384 c 1,22,23
 194 350 194 350 247.5 308.5 c 128,-1,24
 301 267 301 267 338 215 c 1,25,26
 384.5 153.5 384.5 153.5 389 95 c 0,27,0
 389 85 389 85 380 85 c 128,-1,1
EndSplineSet
EndChar

StartChar: greater
Encoding: 62 62 89
Width: 833
Flags: MW
HStem: 117 21G<84 86> 666 20G<405 407.5>
LayerCount: 2
Fore
SplineSet
85 117 m 128,-1,1
 80 117 80 117 79 120 c 1,2,3
 71 126 71 126 79 132 c 0,4,5
 79 133 79 133 100 152.5 c 0,6,7
 172.455 219.779 172.455 219.779 264.727 275.39 c 128,-1,8
 357 331 357 331 452 359 c 1,9,10
 550 390 550 390 646 387 c 1,11,12
 585 424 585 424 544 458 c 1,13,14
 406.291 566.361 406.291 566.361 397 676 c 0,15,16
 397 684 397 684 405 686 c 1,17,18
 415 686 415 686 415 677 c 0,19,20
 422 579 422 579 556 472 c 1,21,22
 609.915 427.38 609.915 427.38 648.958 405.69 c 128,-1,23
 688 384 688 384 692 382.5 c 128,-1,24
 696 381 696 381 694 373 c 1,25,26
 690 365 690 365 684 367 c 1,27,28
 485 388 485 388 268 256 c 0,29,30
 195.727 212.636 195.727 212.636 123 149 c 1,31,-1
 91 120 l 1,32,0
 90 117 90 117 85 117 c 128,-1,1
EndSplineSet
EndChar

StartChar: backslash
Encoding: 92 92 90
Width: 484
Flags: MW
HStem: -227 21G<325 327.5 327 329>
LayerCount: 2
Fore
SplineSet
327 -227 m 2,0,1
 320 -227 320 -227 318 -220 c 2,2,-1
 84 1015 l 2,3,4
 82 1024 82 1024 91 1026 c 128,-1,5
 100 1028 100 1028 102 1019 c 2,6,-1
 336 -216 l 2,7,8
 338 -225 338 -225 329 -227 c 1,9,-1
 327 -227 l 2,0,1
EndSplineSet
EndChar

StartChar: braceleft
Encoding: 123 123 91
Width: 440
Flags: MW
HStem: 976 20G<725 751.5>
LayerCount: 2
Fore
SplineSet
129 -175 m 1,0,1
 95 -163 95 -163 78 -134 c 128,-1,2
 61 -105 61 -105 61 -68 c 128,-1,3
 61 -31 61 -31 79.5 -3.5 c 128,-1,4
 98 24 98 24 135 54 c 0,5,6
 243 141 243 141 277 191.5 c 128,-1,7
 311 242 311 242 313 318 c 0,8,9
 313 348.846 313 348.846 292.5 372.5 c 2,10,-1
 279.5 387 l 2,11,12
 267.833 399.564 267.833 399.564 256.917 406.282 c 2,13,-1
 241 416 l 2,14,15
 236 419 236 419 230 423 c 1,16,17
 224 424 224 424 224 432 c 1,18,19
 226 440 226 440 232 440 c 0,20,21
 270 440 270 440 321 473 c 0,22,23
 414 534 414 534 442 675 c 0,24,25
 474 839 474 839 566 924 c 0,26,27
 645 996 645 996 749 996 c 0,28,29
 758 996 758 996 758 987 c 128,-1,30
 758 978 758 978 749 978 c 0,31,32
 641 978 641 978 564.5 896.5 c 128,-1,33
 488 815 488 815 460 671 c 1,34,35
 429.334 523.081 429.334 523.081 330 458 c 0,36,37
 302 440 302 440 258 427 c 1,38,39
 357.145 370.346 357.145 370.346 322.5 250 c 0,40,41
 313 217 313 217 301 194.5 c 128,-1,42
 289 172 289 172 260.5 142 c 128,-1,43
 232 112 232 112 214.5 97 c 2,44,-1
 158.59 49.5827 l 2,45,46
 151 43 151 43 147 40 c 0,47,48
 80 -14 80 -14 80 -74.5 c 128,-1,49
 80 -135 80 -135 133 -159 c 0,50,51
 144 -163 144 -163 142 -168.5 c 0,52,53
 138.915 -176.983 138.915 -176.983 129 -175 c 1,0,1
EndSplineSet
EndChar

StartChar: braceright
Encoding: 125 125 92
Width: 689
Flags: MW
HStem: -146 21G<-50.5 -24>
LayerCount: 2
Fore
SplineSet
572 1025 m 1,0,1
 606 1013 606 1013 623 984 c 128,-1,2
 640 955 640 955 640 918 c 128,-1,3
 640 881 640 881 621.5 853.5 c 128,-1,4
 603 826 603 826 566 796 c 0,5,6
 458 709 458 709 424 658.5 c 128,-1,7
 390 608 390 608 388 532 c 0,8,9
 388 501.154 388 501.154 408.5 477.5 c 2,10,-1
 421.5 463 l 2,11,12
 433.167 450.436 433.167 450.436 444.083 443.718 c 2,13,-1
 460 434 l 2,14,15
 465 431 465 431 471 427 c 1,16,17
 477 426 477 426 477 418 c 1,18,19
 475 410 475 410 469 410 c 0,20,21
 431 410 431 410 380 377 c 0,22,23
 287 316 287 316 259 175 c 0,24,25
 227 11 227 11 135 -74 c 0,26,27
 56 -146 56 -146 -48 -146 c 0,28,29
 -57 -146 -57 -146 -57 -137 c 128,-1,30
 -57 -128 -57 -128 -48 -128 c 0,31,32
 60 -128 60 -128 136.5 -46.5 c 128,-1,33
 213 35 213 35 241 179 c 1,34,35
 271.666 326.919 271.666 326.919 371 392 c 0,36,37
 399 410 399 410 443 423 c 1,38,39
 343.855 479.654 343.855 479.654 378.5 600 c 0,40,41
 388 633 388 633 400 655.5 c 128,-1,42
 412 678 412 678 440.5 708 c 128,-1,43
 469 738 469 738 486.5 753 c 2,44,-1
 542.41 800.417 l 2,45,46
 550 807 550 807 554 810 c 0,47,48
 621 864 621 864 621 924.5 c 128,-1,49
 621 985 621 985 568 1009 c 0,50,51
 557 1013 557 1013 559 1018.5 c 0,52,53
 562.085 1026.98 562.085 1026.98 572 1025 c 1,0,1
EndSplineSet
EndChar

StartChar: caron
Encoding: 711 711 93
Width: 334
Flags: MW
HStem: 879 20G<33.5 37>
LayerCount: 2
Fore
SplineSet
143 803 m 1,0,1
 228 873 228 873 303 873 c 0,2,3
 312 873 312 873 312 864 c 128,-1,4
 312 855 312 855 303 855 c 0,5,6
 267 855 267 855 223.5 833 c 128,-1,7
 180 811 180 811 163.5 797 c 128,-1,8
 147 783 147 783 140 776 c 128,-1,9
 133 769 133 769 127 772 c 0,10,11
 122 775 122 775 123 782 c 0,12,13
 135.238 849.309 135.238 849.309 80.5 871.5 c 0,14,15
 62 879 62 879 49 880 c 2,16,-1
 36 881 l 2,17,18
 27 881 27 881 27 890 c 128,-1,19
 27 899 27 899 36 899 c 0,20,21
 94 899 94 899 124 862 c 0,22,23
 144 837 144 837 143 803 c 1,0,1
EndSplineSet
EndChar

StartChar: ve
Encoding: 65537 -1 94
Width: 1462
Flags: W
LayerCount: 2
Fore
SplineSet
555 434 m 1,0,1
 589 517 589 517 576.544 542.156 c 128,-1,2
 564.089 567.312 564.089 567.312 544.544 553.169 c 128,-1,3
 525 539.026 525 539.026 525.5 508.013 c 128,-1,4
 526 477 526 477 555 434 c 1,0,1
561 403 m 1,5,6
 503 279 503 279 408 176 c 1,7,8
 345 110 345 110 262 57 c 128,-1,9
 179 4 179 4 92 -7 c 0,10,11
 38 -14 38 -14 1.5 10.5 c 128,-1,12
 -35 35 -35 35 -33 82 c 1,13,14
 -33 149 -33 149 81 337 c 0,15,16
 171 487 171 487 138 508 c 0,17,18
 111.519 525.654 111.519 525.654 74.5 492 c 1,19,-1
 64 482 l 2,20,21
 56 474 56 474 51 467 c 128,-1,22
 46 460 46 460 42 453.5 c 128,-1,23
 38 447 38 447 30.5 452.5 c 0,24,25
 22.5522 458.328 22.5522 458.328 26.7761 464.664 c 128,-1,26
 31 471 31 471 34.5 475 c 2,27,-1
 42 484 l 2,28,29
 53.2 498 53.2 498 64 507 c 0,30,31
 111 547 111 547 148 523 c 1,32,33
 183 498 183 498 139 406 c 0,34,35
 125 376 125 376 81.5 303.5 c 128,-1,36
 38 231 38 231 3 153 c 128,-1,37
 -32 75 -32 75 -1.5 37.5 c 128,-1,38
 29 -0 29 -0 89 10 c 0,39,40
 251 36 251 36 395 189 c 0,41,42
 492 292 492 292 547 416 c 1,43,44
 506 467 506 467 506 511 c 1,45,46
 504 539 504 539 521 558.5 c 128,-1,47
 538 578 538 578 560.5 576 c 128,-1,48
 583 574 583 574 593 549 c 1,49,50
 607 508 607 508 569 422 c 0,51,52
 568 421 568 421 585 405.5 c 128,-1,53
 602 390 602 390 634.5 367.5 c 128,-1,54
 667 345 667 345 709 323.5 c 128,-1,55
 751 302 751 302 809.5 287 c 128,-1,56
 868 272 868 272 926 273 c 1,57,58
 1034 273 1034 273 1144 304.5 c 128,-1,59
 1254 336 1254 336 1293 393 c 1,60,61
 1322 441 1322 441 1312.5 475.5 c 128,-1,62
 1303 510 1303 510 1263.5 527.5 c 128,-1,63
 1224 545 1224 545 1172 537 c 0,64,65
 993 507 993 507 859 351 c 0,66,67
 798.139 281.444 798.139 281.444 768 185 c 0,68,69
 753 137 753 137 763 93.5 c 128,-1,70
 773 50 773 50 814 28 c 1,71,72
 845 10 845 10 893.5 6.5 c 128,-1,73
 942 3 942 3 990.5 11 c 0,74,75
 1084.95 26.579 1084.95 26.579 1158.47 56.2895 c 128,-1,76
 1232 86 1232 86 1306.5 130 c 128,-1,77
 1381 174 1381 174 1469 250 c 0,78,79
 1476 255 1476 255 1482 249 c 1,80,81
 1486 243 1486 243 1481 236 c 1,82,83
 1390 159 1390 159 1315 115 c 128,-1,84
 1240 71 1240 71 1147 33 c 1,85,86
 1025.67 -11.3309 1025.67 -11.3309 913.5 -10.5 c 0,87,88
 846 -10 846 -10 804 13 c 0,89,90
 747 44 747 44 742 110 c 128,-1,91
 737 176 737 176 767 241.5 c 128,-1,92
 797 307 797 307 843 360 c 0,93,94
 983 525 983 525 1169 554 c 0,95,96
 1262 569 1262 569 1312 515.5 c 128,-1,97
 1362 462 1362 462 1308 382 c 1,98,99
 1259 315 1259 315 1146.5 285 c 128,-1,100
 1034 255 1034 255 926 256 c 0,101,102
 864 256 864 256 803.5 271 c 128,-1,103
 743 286 743 286 701 307.5 c 0,104,105
 617 350.5 617 350.5 577 388 c 2,106,-1
 561 403 l 1,5,6
EndSplineSet
Ligature2: "'dlig' Discretionary Ligatures in Latin lookup 0 subtable" v e
EndChar

StartChar: sr
Encoding: 65538 -1 95
Width: 1056
Flags: W
LayerCount: 2
Fore
SplineSet
272 215 m 1,0,1
 127 155 127 155 103 93 c 0,2,3
 88 55 88 55 101.5 28.5 c 128,-1,4
 115 2 115 2 154 -0.5 c 128,-1,5
 193 -3 193 -3 212 16 c 1,6,7
 266 62 266 62 272 215 c 1,0,1
305 579 m 0,8,9
 279 556 279 556 276 472 c 1,10,11
 298 487 298 487 319 508 c 1,12,13
 359 552 359 552 351 576 c 0,14,15
 348 586 348 586 334.5 589.5 c 128,-1,16
 321 593 321 593 305 579 c 0,8,9
290 222 m 2,17,-1
 289 201 l 1,18,19
 280 52.5 280 52.5 223 3 c 0,20,21
 193 -22 193 -22 147.5 -17 c 128,-1,22
 102 -12 102 -12 85 22.5 c 128,-1,23
 68 57 68 57 87 101 c 0,24,25
 114 166 114 166 267 232 c 1,26,-1
 272 234 l 1,27,28
 273 275 273 275 266.5 344.5 c 128,-1,29
 260 414 260 414 259 435 c 1,30,31
 34 246 34 246 4 216 c 1,32,33
 -4 210 -4 210 -9.5 216.5 c 128,-1,34
 -15 223 -15 223 -11 226.5 c 2,35,-1
 137.5 356 l 1,36,-1
 258 458 l 1,37,38
 258 561 258 561 293 593 c 0,39,40
 317 615 317 615 340 607.5 c 128,-1,41
 363 600 363 600 368.5 579 c 128,-1,42
 374 558 374 558 357 530.5 c 128,-1,43
 340 503 340 503 325.5 490 c 128,-1,44
 311 477 311 477 294.5 464.5 c 128,-1,45
 278 452 278 452 276 450 c 1,46,-1
 276 444 l 1,47,48
 277 415 277 415 284 347 c 128,-1,49
 291 279 291 279 290 242 c 1,50,51
 291 241 291 241 315.5 252 c 128,-1,52
 340 263 340 263 379 285 c 128,-1,53
 418 307 418 307 460 335.5 c 128,-1,54
 502 364 502 364 544 405 c 128,-1,55
 586 446 586 446 611 489 c 0,56,57
 612 491 612 491 613.5 493.5 c 128,-1,58
 615 496 615 496 617 500 c 1,59,60
 583 526 583 526 590 568 c 0,61,62
 595 599 595 599 621.5 599 c 128,-1,63
 648 599 648 599 656 578 c 1,64,65
 664 553 664 553 641 505 c 1,66,67
 682 482 682 482 752 479 c 1,68,69
 810 479 810 479 822 454 c 1,70,71
 834 432 834 432 810 396 c 0,72,73
 800 381 800 381 734 293 c 0,74,75
 614.484 133.645 614.484 133.645 607.742 59.3226 c 128,-1,76
 601 -15 601 -15 680 -15 c 0,77,78
 711 -15 711 -15 774 7 c 0,79,80
 888 47 888 47 1018 126 c 0,81,82
 1025 131 1025 131 1029.5 124 c 128,-1,83
 1034 117 1034 117 1027 111 c 1,84,85
 894 29 894 29 801.5 -2.5 c 128,-1,86
 709 -34 709 -34 668 -33 c 128,-1,87
 627 -32 627 -32 606.5 -6 c 0,88,89
 566.724 44.4478 566.724 44.4478 621 153 c 0,90,91
 653 216 653 216 711.5 293 c 128,-1,92
 770 370 770 370 791.5 401 c 128,-1,93
 813 432 813 432 805 446.5 c 128,-1,94
 797 461 797 461 753 461 c 0,95,96
 725.857 461 725.857 461 689.429 469.5 c 128,-1,97
 653 478 653 478 633 489 c 1,98,99
 629 483 629 483 627 479 c 0,100,101
 602 434 602 434 558 391 c 128,-1,102
 514 348 514 348 469 318.5 c 128,-1,103
 424 289 424 289 383 266 c 128,-1,104
 342 243 342 243 316 232 c 128,-1,105
 290 221 290 221 290 222 c 2,17,-1
623 581 m 0,106,107
 612 580 612 580 609.5 566.5 c 128,-1,108
 607 553 607 553 612 537.5 c 128,-1,109
 617 522 617 522 626 516 c 1,110,111
 645 555 645 555 639.5 568 c 128,-1,112
 634 581 634 581 623 581 c 0,106,107
EndSplineSet
Ligature2: "'dlig' Discretionary Ligatures in Latin lookup 0 subtable" s r
EndChar

StartChar: ws
Encoding: 65539 -1 96
Width: 1495
Flags: W
LayerCount: 2
Fore
SplineSet
1208 222 m 1,0,-1
 1207 201 l 1,1,2
 1198 52.5 1198 52.5 1141 3 c 0,3,4
 1111 -22 1111 -22 1065.5 -17 c 128,-1,5
 1020 -12 1020 -12 1003 22.5 c 128,-1,6
 986 57 986 57 1005 101 c 0,7,8
 1032 166 1032 166 1185 232 c 1,9,-1
 1190 234 l 1,10,11
 1191 275 1191 275 1184.5 344.5 c 128,-1,12
 1178 414 1178 414 1177 435 c 1,13,14
 1127.08 389.07 1127.08 389.07 1066.54 352.035 c 128,-1,15
 1006 315 1006 315 967 302 c 0,16,17
 862.537 267.179 862.537 267.179 814 304 c 1,18,19
 759 194 759 194 701.5 128.5 c 0,20,21
 574.649 -16 574.649 -16 459 -16 c 0,22,23
 404 -16 404 -16 380 20 c 0,24,25
 335 88 335 88 413 279 c 1,26,-1
 421 297 l 1,27,28
 349 191 349 191 289 128 c 128,-1,29
 229 65 229 65 141 23.5 c 128,-1,30
 53 -18 53 -18 -4 4 c 1,31,32
 -52 25 -52 25 -46 84 c 0,33,34
 -36 187 -36 187 65 364 c 1,35,-1
 110 439.5 l 1,36,37
 155.693 514 155.693 514 160 514 c 1,38,39
 165 521 165 521 172.5 516.5 c 128,-1,40
 180 512 180 512 174 504 c 2,41,-1
 124.5 429 l 1,42,43
 -13.3921 211.893 -13.3921 211.893 -27 82 c 0,44,45
 -32 35 -32 35 3 21 c 0,46,47
 52 1 52 1 140 43 c 1,48,49
 201.625 73.8125 201.625 73.8125 239.312 109.406 c 128,-1,50
 277 145 277 145 298.5 167 c 128,-1,51
 320 189 320 189 346 224.5 c 2,52,-1
 388 281 l 2,53,54
 404 302 404 302 429 343 c 2,55,-1
 531 512 l 1,56,-1
 546 502 l 1,57,58
 468 366 468 366 430 272 c 0,59,60
 355 90 355 90 395 30 c 1,61,62
 420 -5 420 -5 486 5 c 0,63,64
 583 19 583 19 679 130 c 1,65,66
 744 203 744 203 800 316 c 1,67,68
 773 344 773 344 768.5 389.5 c 128,-1,69
 764 435 764 435 782 477 c 0,70,71
 806 532 806 532 847 526 c 1,72,73
 892.16 515.964 892.16 515.964 861 421 c 1,74,75
 846 370 846 370 822 321 c 1,76,77
 868.769 284.624 868.769 284.624 966.5 320.5 c 0,78,79
 1038.47 346.918 1038.47 346.918 1121.5 411.5 c 0,80,81
 1153 436 1153 436 1176 458 c 1,82,83
 1176 561 1176 561 1211 593 c 0,84,85
 1235 615 1235 615 1258 607.5 c 128,-1,86
 1281 600 1281 600 1286 581 c 0,87,88
 1298 531 1298 531 1194 450 c 1,89,-1
 1194 444 l 1,90,91
 1195 415 1195 415 1202 347 c 128,-1,92
 1209 279 1209 279 1208 242 c 1,93,94
 1256.97 262.264 1256.97 262.264 1315.5 280 c 2,95,-1
 1332 285 l 2,96,97
 1423 312 1423 312 1502 308 c 0,98,99
 1511 308 1511 308 1511 299 c 128,-1,100
 1511 290 1511 290 1502 290 c 0,101,102
 1388.1 296.157 1388.1 296.157 1208 222 c 1,0,-1
840 508 m 0,103,104
 815 508 815 508 799 470 c 1,105,106
 782 435 782 435 786 396 c 128,-1,107
 790 357 790 357 808 334 c 1,108,109
 810 339 810 339 815.5 351.5 c 0,110,111
 868.355 471.626 868.355 471.626 852 502 c 0,112,113
 848 508 848 508 840 508 c 0,103,104
1190 215 m 1,114,115
 1045 155 1045 155 1021 93 c 0,116,117
 1006 55 1006 55 1019.5 28.5 c 128,-1,118
 1033 2 1033 2 1072 -0.5 c 128,-1,119
 1111 -3 1111 -3 1130 16 c 1,120,121
 1184 62 1184 62 1190 215 c 1,114,115
1223 579 m 0,122,123
 1197 556 1197 556 1194 472 c 1,124,125
 1204 479 1204 479 1236 511 c 1,126,127
 1276 555 1276 555 1269 576 c 0,128,129
 1266 586 1266 586 1252.5 589.5 c 128,-1,130
 1239 593 1239 593 1223 579 c 0,122,123
EndSplineSet
Ligature2: "'dlig' Discretionary Ligatures in Latin lookup 0 subtable" w s
EndChar

StartChar: er
Encoding: 65540 -1 97
Width: 1296
Flags: MW
HStem: 579 20G<895.5 908.5>
LayerCount: 2
Fore
SplineSet
1301 111 m 1,0,1
 1168 29 1168 29 1075.5 -2.5 c 128,-1,2
 983 -34 983 -34 942 -33 c 128,-1,3
 901 -32 901 -32 880.5 -6 c 0,4,5
 840.724 44.4478 840.724 44.4478 895 153 c 0,6,7
 927 216 927 216 985.5 293 c 128,-1,8
 1044 370 1044 370 1065.5 401 c 128,-1,9
 1087 432 1087 432 1079 446.5 c 128,-1,10
 1071 461 1071 461 1027 461 c 0,11,12
 999.857 461 999.857 461 963.429 469.5 c 128,-1,13
 927 478 927 478 907 489 c 1,14,-1
 901 479 l 1,15,16
 802 309 802 309 677.5 201 c 128,-1,17
 553 93 553 93 388 30 c 0,18,19
 273.173 -12.7787 273.173 -12.7787 154 -11 c 0,20,21
 87 -10 87 -10 45 13 c 0,22,23
 -11 44 -11 44 -17 111 c 128,-1,24
 -23 178 -23 178 4 241.5 c 128,-1,25
 31 305 31 305 71 346 c 1,26,27
 41 362 41 362 41 364 c 1,28,29
 34 368 34 368 38 376 c 1,30,31
 44 384 44 384 53.5 377 c 128,-1,32
 63 370 63 370 84 360 c 1,33,34
 92 369 92 369 108.5 384.5 c 2,35,-1
 131 406 l 1,36,37
 264 535 264 535 410 554 c 0,38,39
 498 565 498 565 555 513 c 128,-1,40
 612 461 612 461 568 386 c 0,41,42
 535 330 535 330 465 301.5 c 128,-1,43
 395 273 395 273 325 276 c 0,44,45
 220 281 220 281 120 323 c 1,46,-1
 88 337 l 1,47,48
 63 314 63 314 41 272.5 c 128,-1,49
 19 231 19 231 6 184.5 c 128,-1,50
 -7 138 -7 138 4 94 c 128,-1,51
 15 50 15 50 50.5 30.5 c 128,-1,52
 86 11 86 11 134 7.5 c 128,-1,53
 182 4 182 4 231 12 c 0,54,55
 326.22 27.5461 326.22 27.5461 382 49 c 0,56,57
 550 114 550 114 667 219 c 128,-1,58
 784 324 784 324 885 489 c 0,59,60
 886 491 886 491 887.5 493.5 c 128,-1,61
 889 496 889 496 891 500 c 1,62,63
 857 526 857 526 864 568 c 0,64,65
 869 599 869 599 895.5 599 c 128,-1,66
 922 599 922 599 930 578 c 1,67,68
 938 553 938 553 915 505 c 1,69,70
 956 482 956 482 1026 479 c 1,71,72
 1084 479 1084 479 1096 454 c 1,73,74
 1108 432 1108 432 1084 396 c 0,75,76
 1074 381 1074 381 1008 293 c 0,77,78
 888.484 133.645 888.484 133.645 881.742 59.3226 c 128,-1,79
 875 -15 875 -15 954 -15 c 0,80,81
 985 -15 985 -15 1048 7 c 0,82,83
 1162 47 1162 47 1292 126 c 0,84,85
 1299 131 1299 131 1303.5 124 c 128,-1,86
 1308 117 1308 117 1301 111 c 1,0,1
100 351 m 1,87,-1
 127 339 l 1,88,89
 225 299 225 299 325 294 c 0,90,91
 393 291 393 291 459 320.5 c 128,-1,92
 525 350 525 350 553 396 c 1,93,94
 576 440 576 440 561 474 c 128,-1,95
 546 508 546 508 503.5 526 c 128,-1,96
 461 544 461 544 404 536 c 128,-1,97
 347 528 347 528 283.5 496.5 c 128,-1,98
 220 465 220 465 142 393 c 1,99,-1
 100 351 l 1,87,-1
897 581 m 0,100,101
 886 580 886 580 883.5 566.5 c 128,-1,102
 881 553 881 553 886 537.5 c 128,-1,103
 891 522 891 522 900 516 c 1,104,105
 919 555 919 555 913.5 568 c 128,-1,106
 908 581 908 581 897 581 c 0,100,101
EndSplineSet
Ligature2: "'dlig' Discretionary Ligatures in Latin lookup 0 subtable" e r
EndChar

StartChar: zz
Encoding: 65541 -1 98
Width: 1356
Flags: W
LayerCount: 2
Fore
SplineSet
269 -76 m 1,0,1
 122 -164 122 -164 6.5 -253.5 c 0,2,3
 -233.886 -439.773 -233.886 -439.773 -242 -527 c 0,4,5
 -244 -555 -244 -555 -222.5 -567 c 128,-1,6
 -201 -579 -201 -579 -174 -572 c 0,7,8
 -83 -550 -83 -550 57 -396.5 c 128,-1,9
 197 -243 197 -243 252 -129 c 0,10,11
 266 -101 266 -101 269 -76 c 1,0,1
838 450 m 1,12,13
 719.699 368.778 719.699 368.778 624.5 235.5 c 0,14,15
 587 183 587 183 545 130.5 c 0,16,17
 448.215 9.51852 448.215 9.51852 288 -65 c 1,18,19
 286 -102 286 -102 268 -137 c 0,20,21
 211 -255 211 -255 69.5 -409.5 c 128,-1,22
 -72 -564 -72 -564 -170 -589 c 0,23,24
 -211 -599 -211 -599 -237 -579.5 c 128,-1,25
 -263 -560 -263 -560 -260 -525 c 1,26,27
 -254 -474 -254 -474 -189.5 -404 c 128,-1,28
 -125 -334 -125 -334 -15 -247 c 1,29,30
 121 -142 121 -142 269 -55 c 1,31,32
 267 -36 267 -36 256.5 -14 c 128,-1,33
 246 8 246 8 213.5 28 c 128,-1,34
 181 48 181 48 159.5 54 c 128,-1,35
 138 60 138 60 133 60 c 2,36,-1
 105 65 l 1,37,-1
 130 77 l 1,38,39
 136.512 77 136.512 77 189.256 108.5 c 0,40,41
 509.285 299.628 509.285 299.628 443.5 456.5 c 0,42,43
 408.661 539.577 408.661 539.577 295.5 503 c 0,44,45
 246 487 246 487 217.5 470.5 c 128,-1,46
 189 454 189 454 176 445 c 0,47,48
 136.119 417.39 136.119 417.39 114 396.5 c 2,49,-1
 105 388 l 1,50,51
 100 381 100 381 92 387 c 1,52,53
 87 394 87 394 92 400 c 0,54,55
 129 437 129 437 175 465 c 0,56,57
 304 546 304 546 384 530 c 1,58,59
 438 518 438 518 460 464 c 0,60,61
 521.045 314.163 521.045 314.163 285 148 c 1,62,63
 226 108 226 108 160 72 c 1,64,65
 248 45 248 45 276 -12 c 0,66,67
 285 -29 285 -29 286 -45 c 1,68,69
 440.754 28.6923 440.754 28.6923 533 144 c 0,70,71
 573 194 573 194 609 244.5 c 128,-1,72
 645 295 645 295 701 354.5 c 0,73,74
 782.289 440.87 782.289 440.87 867 489.5 c 0,75,76
 894 505 894 505 946.5 521.5 c 128,-1,77
 999 538 999 538 1037 530 c 0,78,79
 1091 518 1091 518 1113 464 c 0,80,81
 1174.04 314.163 1174.04 314.163 938 148 c 1,82,83
 879 108 879 108 813 72 c 1,84,85
 901 45 901 45 929 -12 c 0,86,87
 938 -29 938 -29 939 -45 c 1,88,89
 1001 -10 1001 -10 1043.5 11 c 128,-1,90
 1086 32 1086 32 1123.5 53.5 c 128,-1,91
 1161 75 1161 75 1191.5 94.5 c 128,-1,92
 1222 114 1222 114 1250 134 c 0,93,94
 1339.52 199.103 1339.52 199.103 1361.5 218.5 c 2,95,-1
 1370 226 l 2,96,97
 1376 232 1376 232 1382 225 c 1,98,99
 1389 220 1389 220 1381.5 212.5 c 128,-1,100
 1374 205 1374 205 1338.5 176.5 c 128,-1,101
 1303 148 1303 148 1220.5 93 c 128,-1,102
 1138 38 1138 38 1069 3.5 c 128,-1,103
 1000 -31 1000 -31 941 -65 c 1,104,105
 939 -102 939 -102 921 -137 c 0,106,107
 864 -255 864 -255 722.5 -409.5 c 128,-1,108
 581 -564 581 -564 483 -589 c 0,109,110
 442 -599 442 -599 416 -579.5 c 128,-1,111
 390 -560 390 -560 393 -525 c 1,112,113
 399 -474 399 -474 463.5 -404 c 128,-1,114
 528 -334 528 -334 638 -247 c 1,115,116
 774 -142 774 -142 922 -55 c 1,117,118
 920 -36 920 -36 909.5 -14 c 128,-1,119
 899 8 899 8 866.5 28 c 128,-1,120
 834 48 834 48 812.5 54 c 128,-1,121
 791 60 791 60 786 60 c 2,122,-1
 758 65 l 1,123,-1
 783 77 l 1,124,125
 789.512 77 789.512 77 842.256 108.5 c 0,126,127
 1162.28 299.628 1162.28 299.628 1096.5 456.5 c 0,128,129
 1061.66 539.577 1061.66 539.577 948.5 503 c 0,130,131
 899 487 899 487 870.5 470.5 c 128,-1,132
 842 454 842 454 838 450 c 1,12,13
922 -76 m 1,133,134
 775 -164 775 -164 659.5 -253.5 c 0,135,136
 419.114 -439.773 419.114 -439.773 411 -527 c 0,137,138
 409 -555 409 -555 430.5 -567 c 128,-1,139
 452 -579 452 -579 479 -572 c 0,140,141
 570 -550 570 -550 710 -396.5 c 128,-1,142
 850 -243 850 -243 905 -129 c 0,143,144
 919 -101 919 -101 922 -76 c 1,133,134
EndSplineSet
Ligature2: "'dlig' Discretionary Ligatures in Latin lookup 0 subtable" z z
EndChar

StartChar: br
Encoding: 65542 -1 99
Width: 1317
Flags: W
LayerCount: 2
Fore
SplineSet
888 489 m 1,0,1
 844.523 381.343 844.523 381.343 779 314 c 0,2,3
 709.38 242.446 709.38 242.446 606 233.5 c 0,4,5
 554 229 554 229 496 251 c 1,6,7
 472 171 472 171 413 106 c 0,8,9
 331 16 331 16 233 -8.5 c 128,-1,10
 135 -33 135 -33 73 6 c 128,-1,11
 11 45 11 45 -1 117 c 1,12,13
 -32.7219 261.511 -32.7219 261.511 217 593 c 1,14,15
 306 709 306 709 399 812 c 128,-1,16
 492 915 492 915 541 959 c 0,17,18
 635.312 1043.69 635.312 1043.69 671 1008 c 1,19,20
 713.162 970.054 713.162 970.054 648.5 876 c 0,21,22
 643 868 643 868 643 867 c 0,23,24
 522 692 522 692 310 467 c 1,25,-1
 120 275 l 2,26,27
 76 231 76 231 17 197 c 1,28,29
 8 157 8 157 15 124 c 1,30,31
 15 105.806 15 105.806 35 72.9032 c 128,-1,32
 55 40 55 40 78 24 c 0,33,34
 133 -13 133 -13 227 8 c 1,35,36
 321 31 321 31 400 118 c 0,37,38
 457 181 457 181 480 261 c 1,39,40
 458 275 458 275 435.5 304.5 c 128,-1,41
 413 334 413 334 407 369 c 0,42,43
 398.142 417.721 398.142 417.721 431.151 437.057 c 128,-1,44
 464.161 456.393 464.161 456.393 487.029 435.491 c 128,-1,45
 509.897 414.588 509.897 414.588 511.949 367.294 c 128,-1,46
 514 320 514 320 501 269 c 1,47,48
 742 188 742 188 872 500 c 1,49,50
 838 526 838 526 845 568 c 0,51,52
 850 599 850 599 876.5 599 c 128,-1,53
 903 599 903 599 911 578 c 1,54,55
 919 553 919 553 896 505 c 1,56,57
 937 482 937 482 1007 479 c 1,58,59
 1064 479 1064 479 1076.5 455.5 c 128,-1,60
 1089 432 1089 432 1065 396 c 0,61,62
 1055 381 1055 381 989 293 c 0,63,64
 869.484 133.645 869.484 133.645 862.742 59.3226 c 128,-1,65
 856 -15 856 -15 935 -15 c 0,66,67
 966 -15 966 -15 1029 7 c 0,68,69
 1143 47 1143 47 1273 126 c 0,70,71
 1280 131 1280 131 1284.5 124 c 128,-1,72
 1289 117 1289 117 1282 111 c 1,73,74
 1149 29 1149 29 1056.5 -2.5 c 128,-1,75
 964 -34 964 -34 923 -33 c 128,-1,76
 882 -32 882 -32 861.5 -6 c 0,77,78
 821.724 44.4478 821.724 44.4478 876 153 c 0,79,80
 908 216 908 216 966.5 293 c 128,-1,81
 1025 370 1025 370 1046.5 401 c 128,-1,82
 1068 432 1068 432 1060 446.5 c 128,-1,83
 1052 461 1052 461 1008 461 c 0,84,85
 980.857 461 980.857 461 944.429 469.5 c 128,-1,86
 908 478 908 478 888 489 c 1,0,1
645 1002 m 0,87,88
 615 1002 615 1002 545 938 c 1,89,90
 506 904 506 904 411.5 799 c 128,-1,91
 317 694 317 694 232 582 c 0,92,93
 61 358 61 358 23 222 c 1,94,95
 74 254 74 254 108 288 c 0,96,97
 244.329 422.894 244.329 422.894 297 479 c 0,98,99
 508 703 508 703 628 877 c 1,100,101
 669.72 935.408 669.72 935.408 668.5 972 c 0,102,103
 668 987 668 987 660.5 994.5 c 128,-1,104
 653 1002 653 1002 645 1002 c 0,87,88
483.5 412 m 0,105,106
 475 428 475 428 456.5 428 c 128,-1,107
 438 428 438 428 430 410.5 c 0,108,109
 410.314 367.436 410.314 367.436 455 309 c 0,110,111
 469 291 469 291 485 280 c 1,112,113
 505.096 371.348 505.096 371.348 483.5 412 c 0,105,106
878 581 m 0,114,115
 867 580 867 580 864.5 566.5 c 128,-1,116
 862 553 862 553 867 537.5 c 128,-1,117
 872 522 872 522 881 516 c 1,118,119
 900 555 900 555 894.5 568 c 128,-1,120
 889 581 889 581 878 581 c 0,114,115
EndSplineSet
Ligature2: "'dlig' Discretionary Ligatures in Latin lookup 0 subtable" b r
EndChar

StartChar: st
Encoding: 65543 -1 100
Width: 1077
Flags: MW
HStem: 527 21G
LayerCount: 2
Fore
SplineSet
272 215 m 1,0,1
 127 155 127 155 103 93 c 0,2,3
 88 55 88 55 101.5 28.5 c 128,-1,4
 115 2 115 2 154 -0.5 c 128,-1,5
 193 -3 193 -3 212 16 c 1,6,7
 266 62 266 62 272 215 c 1,0,1
305 579 m 0,8,9
 279 556 279 556 276 472 c 1,10,11
 298 487 298 487 319 508 c 1,12,13
 359 552 359 552 351 576 c 0,14,15
 348 586 348 586 334.5 589.5 c 128,-1,16
 321 593 321 593 305 579 c 0,8,9
290 222 m 1,17,-1
 289 201 l 1,18,19
 280 52.5 280 52.5 223 3 c 0,20,21
 193 -22 193 -22 147.5 -17 c 128,-1,22
 102 -12 102 -12 85 22.5 c 128,-1,23
 68 57 68 57 87 101 c 0,24,25
 114 166 114 166 267 232 c 1,26,-1
 272 234 l 1,27,28
 273 275 273 275 266.5 344.5 c 128,-1,29
 260 414 260 414 259 435 c 1,30,31
 34 246 34 246 4 216 c 1,32,33
 -4 210 -4 210 -9.5 216.5 c 128,-1,34
 -15 223 -15 223 -11 226.5 c 2,35,-1
 137.5 356 l 1,36,-1
 258 458 l 1,37,38
 258 561 258 561 293 593 c 0,39,40
 317 615 317 615 340 607.5 c 128,-1,41
 363 600 363 600 368.5 579 c 128,-1,42
 374 558 374 558 357 530.5 c 128,-1,43
 340 503 340 503 325.5 490 c 128,-1,44
 311 477 311 477 294.5 464.5 c 128,-1,45
 278 452 278 452 276 450 c 1,46,-1
 276 444 l 1,47,48
 277 415 277 415 284 347 c 128,-1,49
 291 279 291 279 290 242 c 1,50,-1
 352.5 264 l 2,51,52
 497.943 314.835 497.943 314.835 543.972 340.917 c 2,53,-1
 636.5 394 l 2,54,55
 717.945 441.291 717.945 441.291 832 530 c 1,56,57
 822 531 822 531 775.5 533 c 0,58,59
 656.878 538.102 656.878 538.102 614 542 c 1,60,61
 605 544 605 544 605 552 c 128,-1,62
 605 560 605 560 614 560 c 0,63,64
 620 560 620 560 679.5 555 c 128,-1,65
 739 550 739 550 841 547 c 1,66,67
 1044 927 1044 927 1133 1042 c 0,68,69
 1153 1069 1153 1069 1164 1076 c 128,-1,70
 1175 1083 1175 1083 1183.5 1079 c 128,-1,71
 1192 1075 1192 1075 1195 1069 c 0,72,73
 1203 1050 1203 1050 1183 1002 c 1,74,75
 1109.12 809.909 1109.12 809.909 874 546 c 1,76,77
 1006 544 1006 544 1095 548 c 0,78,79
 1104 548 1104 548 1104 539 c 128,-1,80
 1104 530 1104 530 1095 530 c 0,81,82
 1030 527 1030 527 979 527 c 128,-1,83
 928 527 928 527 858 529 c 1,84,85
 855 526 855 526 850.5 521 c 128,-1,86
 846 516 846 516 844 514 c 2,87,-1
 676.5 192 l 2,88,89
 651 142 651 142 650 140 c 128,-1,90
 649 138 649 138 646.5 132.5 c 128,-1,91
 644 127 644 127 639 112 c 128,-1,92
 634 97 634 97 631 83 c 0,93,94
 623.386 47.4691 623.386 47.4691 639 26 c 0,95,96
 664 -9 664 -9 748 5 c 128,-1,97
 832 19 832 19 922.5 68 c 128,-1,98
 1013 117 1013 117 1061.5 154.5 c 128,-1,99
 1110 192 1110 192 1150 228 c 0,100,101
 1158 234 1158 234 1163 227 c 128,-1,102
 1168 220 1168 220 1162 214 c 0,103,104
 1076 137 1076 137 967.5 71 c 128,-1,105
 859 5 859 5 759 -12 c 0,106,107
 729 -17 729 -17 708 -17 c 0,108,109
 648 -17 648 -17 625 16 c 1,110,111
 595.214 55.7143 595.214 55.7143 627 132 c 0,112,113
 632 144 632 144 635 149 c 1,114,115
 641 165 641 165 822 505 c 1,116,117
 611 325 611 325 290 222 c 1,17,-1
879 579 m 1,118,119
 1120.18 853.832 1120.18 853.832 1175 1032 c 0,120,121
 1185.98 1069.66 1185.98 1069.66 1173 1061 c 1,122,123
 1111.27 1008.09 1111.27 1008.09 879 579 c 1,118,119
EndSplineSet
Ligature2: "'dlig' Discretionary Ligatures in Latin lookup 0 subtable" s t
EndChar

StartChar: vs
Encoding: 65544 -1 101
Width: 1275
Flags: W
LayerCount: 2
Fore
SplineSet
560 555.5 m 0,0,1
 549 558 549 558 536 548.5 c 128,-1,2
 523 539 523 539 525 511 c 1,3,4
 525 464 525 464 555 434 c 1,5,6
 600.488 546.298 600.488 546.298 560 555.5 c 0,0,1
1002 222 m 1,7,-1
 1001 201 l 1,8,9
 992 52.5 992 52.5 935 3 c 0,10,11
 905 -22 905 -22 859.5 -17 c 128,-1,12
 814 -12 814 -12 797 22.5 c 128,-1,13
 780 57 780 57 799 101 c 0,14,15
 826 166 826 166 979 232 c 1,16,-1
 984 234 l 1,17,18
 985 275 985 275 978.5 349.5 c 128,-1,19
 972 424 972 424 971 443 c 1,20,21
 700 327 700 327 562 405 c 1,22,23
 503 279 503 279 408 176 c 1,24,25
 345 110 345 110 262 57 c 128,-1,26
 179 4 179 4 92 -7 c 0,27,28
 38 -14 38 -14 1.5 10.5 c 128,-1,29
 -35 35 -35 35 -33 82 c 1,30,31
 -33 149 -33 149 81 337 c 0,32,33
 171 487 171 487 138 508 c 0,34,35
 111.519 525.654 111.519 525.654 74.5 492 c 1,36,-1
 64 482 l 2,37,38
 56 474 56 474 51 467 c 128,-1,39
 46 460 46 460 42 453.5 c 128,-1,40
 38 447 38 447 30.5 452.5 c 0,41,42
 22.5522 458.328 22.5522 458.328 26.7761 464.664 c 128,-1,43
 31 471 31 471 34.5 475 c 2,44,-1
 42 484 l 2,45,46
 53.2 498 53.2 498 64 507 c 0,47,48
 111 547 111 547 148 523 c 1,49,50
 183 498 183 498 139 406 c 0,51,52
 125 376 125 376 81.5 303.5 c 128,-1,53
 38 231 38 231 3 153 c 128,-1,54
 -32 75 -32 75 -1.5 37.5 c 128,-1,55
 29 -0 29 -0 89 10 c 0,56,57
 251 36 251 36 395 189 c 0,58,59
 492 292 492 292 547 416 c 1,60,61
 506 452 506 452 506 511 c 1,62,63
 505 541 505 541 521.5 558.5 c 128,-1,64
 538 576 538 576 561 573 c 128,-1,65
 584 570 584 570 593 549 c 1,66,67
 607 508 607 508 569 422 c 1,68,69
 617 390 617 390 693 392.5 c 128,-1,70
 769 395 769 395 842.5 415 c 128,-1,71
 916 435 916 435 970 464 c 1,72,73
 970 561 970 561 1005 593 c 0,74,75
 1029 615 1029 615 1052 607.5 c 128,-1,76
 1075 600 1075 600 1080.5 579 c 128,-1,77
 1086 558 1086 558 1069 530.5 c 128,-1,78
 1052 503 1052 503 1037.5 490 c 128,-1,79
 1023 477 1023 477 1006.5 464.5 c 128,-1,80
 990 452 990 452 988 450 c 1,81,-1
 988 444 l 1,82,83
 989 415 989 415 996 347 c 128,-1,84
 1003 279 1003 279 1002 242 c 1,85,86
 1050.97 262.264 1050.97 262.264 1109.5 280 c 2,87,-1
 1126 285 l 2,88,89
 1217 312 1217 312 1296 308 c 0,90,91
 1305 308 1305 308 1305 299 c 128,-1,92
 1305 290 1305 290 1296 290 c 0,93,94
 1182.1 296.157 1182.1 296.157 1002 222 c 1,7,-1
984 215 m 1,95,96
 839 155 839 155 815 93 c 0,97,98
 800 55 800 55 813.5 28.5 c 128,-1,99
 827 2 827 2 866 -0.5 c 128,-1,100
 905 -3 905 -3 924 16 c 1,101,102
 978 62 978 62 984 215 c 1,95,96
1017 579 m 0,103,104
 991 556 991 556 988 472 c 1,105,106
 1010 487 1010 487 1031 508 c 1,107,108
 1071 552 1071 552 1063 576 c 0,109,110
 1060 586 1060 586 1046.5 589.5 c 128,-1,111
 1033 593 1033 593 1017 579 c 0,103,104
EndSplineSet
Ligature2: "'dlig' Discretionary Ligatures in Latin lookup 0 subtable" v s
EndChar

StartChar: rr
Encoding: 65545 -1 102
Width: 1400
Flags: MW
HStem: 579 20G<226.5 239.5 965.5 978.5>
LayerCount: 2
Fore
SplineSet
274 -33 m 0,0,1
 232 -32 232 -32 211.5 -6 c 0,2,3
 171.724 44.4478 171.724 44.4478 226 153 c 0,4,5
 258 216 258 216 316.5 293 c 128,-1,6
 375 370 375 370 396.5 401 c 128,-1,7
 418 432 418 432 410 446.5 c 128,-1,8
 402 461 402 461 358 461 c 0,9,10
 330.857 461 330.857 461 294.429 469.5 c 128,-1,11
 258 478 258 478 238 489 c 1,12,13
 234 483 234 483 232 479 c 0,14,15
 140 320 140 320 17 209 c 0,16,17
 9 203 9 203 4 210 c 128,-1,18
 -1 217 -1 217 5 223 c 0,19,20
 112 319 112 319 216 489 c 0,21,22
 217 491 217 491 218.5 493.5 c 128,-1,23
 220 496 220 496 222 500 c 1,24,25
 188 526 188 526 195 568 c 0,26,27
 200 599 200 599 226.5 599 c 128,-1,28
 253 599 253 599 261 578 c 1,29,30
 269 553 269 553 246 505 c 1,31,32
 287 482 287 482 357 479 c 1,33,34
 414 479 414 479 426.5 455.5 c 128,-1,35
 439 432 439 432 415 396 c 0,36,37
 405 381 405 381 339 293 c 0,38,39
 219.484 133.645 219.484 133.645 212.742 59.3226 c 128,-1,40
 206 -15 206 -15 287.5 -15 c 128,-1,41
 369 -15 369 -15 472.5 37.5 c 128,-1,42
 576 90 576 90 667.5 168.5 c 128,-1,43
 759 247 759 247 835 332 c 128,-1,44
 911 417 911 417 955 489 c 0,45,46
 956 491 956 491 957.5 493.5 c 128,-1,47
 959 496 959 496 961 500 c 1,48,49
 927 526 927 526 934 568 c 0,50,51
 939 599 939 599 965.5 599 c 128,-1,52
 992 599 992 599 1000 578 c 1,53,54
 1008 553 1008 553 985 505 c 1,55,56
 1026 482 1026 482 1096 479 c 1,57,58
 1154 479 1154 479 1166 454 c 1,59,60
 1178 432 1178 432 1154 396 c 0,61,62
 1144 381 1144 381 1078 293 c 0,63,64
 958.484 133.645 958.484 133.645 951.742 59.3226 c 128,-1,65
 945 -15 945 -15 1024 -15 c 0,66,67
 1055 -15 1055 -15 1118 7 c 0,68,69
 1232 47 1232 47 1362 126 c 0,70,71
 1369 131 1369 131 1373.5 124 c 128,-1,72
 1378 117 1378 117 1371 111 c 1,73,74
 1238 29 1238 29 1145.5 -2.5 c 128,-1,75
 1053 -34 1053 -34 1012 -33 c 128,-1,76
 971 -32 971 -32 950.5 -6 c 0,77,78
 910.724 44.4478 910.724 44.4478 965 153 c 0,79,80
 997 216 997 216 1055.5 293 c 128,-1,81
 1114 370 1114 370 1135.5 401 c 128,-1,82
 1157 432 1157 432 1149 446.5 c 128,-1,83
 1141 461 1141 461 1097 461 c 0,84,85
 1069.86 461 1069.86 461 1033.43 469.5 c 128,-1,86
 997 478 997 478 977 489 c 1,87,88
 973 483 973 483 971 479 c 0,89,90
 915 392 915 392 832.5 302 c 128,-1,91
 750 212 750 212 656 136 c 128,-1,92
 562 60 562 60 459.5 12.5 c 128,-1,93
 357 -35 357 -35 274 -33 c 0,0,1
228 581 m 0,94,95
 217 580 217 580 214.5 566.5 c 128,-1,96
 212 553 212 553 217 537.5 c 128,-1,97
 222 522 222 522 231 516 c 1,98,99
 250 555 250 555 244.5 568 c 128,-1,100
 239 581 239 581 228 581 c 0,94,95
967 581 m 0,101,102
 956 580 956 580 953.5 566.5 c 128,-1,103
 951 553 951 553 956 537.5 c 128,-1,104
 961 522 961 522 970 516 c 1,105,106
 989 555 989 555 983.5 568 c 128,-1,107
 978 581 978 581 967 581 c 0,101,102
EndSplineSet
Ligature2: "'dlig' Discretionary Ligatures in Latin lookup 0 subtable" r r
EndChar

StartChar: ss
Encoding: 65546 -1 103
Width: 1017
Flags: W
LayerCount: 2
Fore
SplineSet
730 222 m 1,0,-1
 729 201 l 1,1,2
 720 52.5 720 52.5 663 3 c 0,3,4
 633 -22 633 -22 587.5 -17 c 128,-1,5
 542 -12 542 -12 525 22.5 c 128,-1,6
 508 57 508 57 527 101 c 0,7,8
 554 166 554 166 707 232 c 1,9,-1
 712 234 l 1,10,11
 713 275 713 275 706.5 344.5 c 128,-1,12
 700 414 700 414 699 435 c 1,13,14
 455 289 455 289 290 222 c 1,15,-1
 289 201 l 1,16,17
 280 52.5 280 52.5 223 3 c 0,18,19
 193 -22 193 -22 147.5 -17 c 128,-1,20
 102 -12 102 -12 85 22.5 c 128,-1,21
 68 57 68 57 87 101 c 0,22,23
 114 166 114 166 267 232 c 1,24,-1
 272 234 l 1,25,26
 273 275 273 275 266.5 344.5 c 128,-1,27
 260 414 260 414 259 435 c 1,28,29
 34 246 34 246 4 216 c 1,30,31
 -4 210 -4 210 -9.5 216.5 c 128,-1,32
 -15 223 -15 223 -11 226.5 c 2,33,-1
 137.5 356 l 1,34,-1
 258 458 l 1,35,36
 258 561 258 561 293 593 c 0,37,38
 317 615 317 615 340 607.5 c 128,-1,39
 363 600 363 600 368.5 579 c 128,-1,40
 374 558 374 558 357 530.5 c 128,-1,41
 340 503 340 503 325.5 490 c 128,-1,42
 311 477 311 477 294.5 464.5 c 128,-1,43
 278 452 278 452 276 450 c 1,44,-1
 276 444 l 1,45,46
 277 415 277 415 284 347 c 128,-1,47
 291 279 291 279 290 242 c 1,48,49
 351 263 351 263 453 317 c 128,-1,50
 555 371 555 371 626.5 414.5 c 2,51,-1
 698 458 l 1,52,53
 698 561 698 561 733 593 c 0,54,55
 757 615 757 615 780 607.5 c 128,-1,56
 803 600 803 600 808.5 579 c 128,-1,57
 814 558 814 558 797 530.5 c 128,-1,58
 780 503 780 503 765.5 490 c 128,-1,59
 751 477 751 477 734.5 464.5 c 128,-1,60
 718 452 718 452 716 450 c 1,61,-1
 716 444 l 1,62,63
 717 415 717 415 724 347 c 128,-1,64
 731 279 731 279 730 242 c 1,65,66
 795.089 268.933 795.089 268.933 837.5 280.5 c 2,67,-1
 854 285 l 1,68,69
 945 312 945 312 1024 308 c 0,70,71
 1033 308 1033 308 1033 299 c 128,-1,72
 1033 290 1033 290 1024 290 c 0,73,74
 910.096 296.157 910.096 296.157 730 222 c 1,0,-1
272 215 m 1,75,76
 127 155 127 155 103 93 c 0,77,78
 88 55 88 55 101.5 28.5 c 128,-1,79
 115 2 115 2 154 -0.5 c 128,-1,80
 193 -3 193 -3 212 16 c 1,81,82
 266 62 266 62 272 215 c 1,75,76
305 579 m 0,83,84
 279 556 279 556 276 472 c 1,85,86
 298 487 298 487 319 508 c 1,87,88
 359 552 359 552 351 576 c 0,89,90
 348 586 348 586 334.5 589.5 c 128,-1,91
 321 593 321 593 305 579 c 0,83,84
712 215 m 1,92,93
 567 155 567 155 543 93 c 0,94,95
 528 55 528 55 541.5 28.5 c 128,-1,96
 555 2 555 2 594 -0.5 c 128,-1,97
 633 -3 633 -3 652 16 c 1,98,99
 706 62 706 62 712 215 c 1,92,93
745 579 m 0,100,101
 719 556 719 556 716 472 c 1,102,103
 738 487 738 487 759 508 c 1,104,105
 799 552 799 552 791 576 c 0,106,107
 788 586 788 586 774.5 589.5 c 128,-1,108
 761 593 761 593 745 579 c 0,100,101
EndSplineSet
Ligature2: "'dlig' Discretionary Ligatures in Latin lookup 0 subtable" s s
EndChar

StartChar: sv
Encoding: 65547 -1 104
Width: 1453
Flags: W
LayerCount: 2
Fore
SplineSet
290 222 m 2,0,-1
 289 201 l 1,1,2
 280 52.5 280 52.5 223 3 c 0,3,4
 193 -22 193 -22 147.5 -17 c 128,-1,5
 102 -12 102 -12 85 22.5 c 128,-1,6
 68 57 68 57 87 101 c 0,7,8
 114 166 114 166 267 232 c 1,9,-1
 272 234 l 1,10,11
 273 275 273 275 266.5 344.5 c 128,-1,12
 260 414 260 414 259 435 c 1,13,14
 34 246 34 246 4 216 c 1,15,16
 -4 210 -4 210 -9.5 216.5 c 128,-1,17
 -15 223 -15 223 -11 226.5 c 2,18,-1
 137.5 356 l 1,19,-1
 258 458 l 1,20,21
 258 561 258 561 293 593 c 0,22,23
 317 615 317 615 340 607.5 c 128,-1,24
 363 600 363 600 368.5 579 c 128,-1,25
 374 558 374 558 357 530.5 c 128,-1,26
 340 503 340 503 325.5 490 c 128,-1,27
 311 477 311 477 294.5 464.5 c 128,-1,28
 278 452 278 452 276 450 c 1,29,-1
 276 444 l 1,30,31
 277 415 277 415 284 347 c 128,-1,32
 291 279 291 279 290 242 c 1,33,34
 353 266 353 266 453.5 326.5 c 0,35,36
 565.031 393.641 565.031 393.641 638 488.5 c 0,37,38
 643 495 643 495 657 508 c 128,-1,39
 671 521 671 521 680.5 525 c 0,40,41
 707.961 536.562 707.961 536.562 726.48 525.281 c 128,-1,42
 745 514 745 514 746.5 493.5 c 128,-1,43
 748 473 748 473 741.5 454 c 128,-1,44
 735 435 735 435 721 405.5 c 128,-1,45
 707 376 707 376 663.5 303.5 c 128,-1,46
 620 231 620 231 585 153 c 128,-1,47
 550 75 550 75 580.5 37.5 c 128,-1,48
 611 -0 611 -0 671 10 c 0,49,50
 833 36 833 36 977 189 c 0,51,52
 1074 292 1074 292 1129 416 c 1,53,54
 1088 452 1088 452 1088 511 c 1,55,56
 1087 541 1087 541 1103.5 558.5 c 128,-1,57
 1120 576 1120 576 1143 573 c 128,-1,58
 1166 570 1166 570 1175 549 c 1,59,60
 1189 508 1189 508 1151 422 c 1,61,62
 1175 405 1175 405 1216.5 396.5 c 128,-1,63
 1258 388 1258 388 1314 406 c 128,-1,64
 1370 424 1370 424 1402.5 446 c 128,-1,65
 1435 468 1435 468 1464 493 c 1,66,67
 1470 500 1470 500 1477 493 c 1,68,69
 1483 485 1483 485 1476 480 c 0,70,71
 1423 434 1423 434 1366 405 c 1,72,73
 1279 365 1279 365 1206 381 c 0,74,75
 1170 388 1170 388 1144 405 c 1,76,77
 1085 279 1085 279 990 176 c 1,78,79
 927 110 927 110 844 57 c 128,-1,80
 761 4 761 4 674 -7 c 0,81,82
 620 -14 620 -14 583.5 10.5 c 128,-1,83
 547 35 547 35 549 82 c 1,84,85
 549 149 549 149 663 337 c 1,86,87
 754 489 754 489 720 508 c 0,88,89
 705.336 516.379 705.336 516.379 694.668 510.69 c 2,90,-1
 678.5 502 l 2,91,92
 667.677 496.097 667.677 496.097 656.839 482.548 c 2,93,-1
 634 455 l 2,94,95
 585 395 585 395 499 337 c 128,-1,96
 413 279 413 279 351.5 249 c 128,-1,97
 290 219 290 219 290 222 c 2,0,-1
272 215 m 1,98,99
 127 155 127 155 103 93 c 0,100,101
 88 55 88 55 101.5 28.5 c 128,-1,102
 115 2 115 2 154 -0.5 c 128,-1,103
 193 -3 193 -3 212 16 c 1,104,105
 266 62 266 62 272 215 c 1,98,99
305 579 m 0,106,107
 279 556 279 556 276 472 c 1,108,109
 298 487 298 487 319 508 c 1,110,111
 359 552 359 552 351 576 c 0,112,113
 348 586 348 586 334.5 589.5 c 128,-1,114
 321 593 321 593 305 579 c 0,106,107
1142 555.5 m 0,115,116
 1131 558 1131 558 1118 548.5 c 128,-1,117
 1105 539 1105 539 1107 511 c 1,118,119
 1107 464 1107 464 1137 434 c 1,120,121
 1182.49 546.298 1182.49 546.298 1142 555.5 c 0,115,116
EndSplineSet
Ligature2: "'dlig' Discretionary Ligatures in Latin lookup 0 subtable" r v
EndChar

